<svg xmlns="http://www.w3.org/2000/svg" xmlns:xlink="http://www.w3.org/1999/xlink" contentStyleType="text/css" height="774px" preserveAspectRatio="none" style="width:820px;height:774px;background:#FFFFFF;" version="1.1" viewBox="0 0 820 774" width="820px" zoomAndPan="magnify"><defs/><g><rect fill="#FFFFFF" height="198.7852" style="stroke:#181818;stroke-width:1.0;" width="10" x="225.8521" y="116.9121"/><rect fill="#FFFFFF" height="37.291" style="stroke:#181818;stroke-width:1.0;" width="10" x="225.8521" y="511.4434"/><rect fill="#FFFFFF" height="31.291" style="stroke:#181818;stroke-width:1.0;" width="10" x="225.8521" y="634.9473"/><rect fill="#FFFFFF" height="31.291" style="stroke:#181818;stroke-width:1.0;" width="10" x="405.1455" y="148.2031"/><rect fill="#FFFFFF" height="93.873" style="stroke:#181818;stroke-width:1.0;" width="10" x="405.1455" y="417.5703"/><rect fill="#FFFFFF" height="31.291" style="stroke:#181818;stroke-width:1.0;" width="10" x="405.1455" y="603.6563"/><rect fill="#FFFFFF" height="131.873" style="stroke:#181818;stroke-width:1.0;" width="10" x="565.7241" y="285.6973"/><rect fill="#FFFFFF" height="31.291" style="stroke:#181818;stroke-width:1.0;" width="10" x="731.2412" y="448.8613"/><rect fill="none" height="299.25" style="stroke:#000000;stroke-width:1.5;" width="803.9409" x="10" y="374.9883"/><line style="stroke:#181818;stroke-width:0.5;stroke-dasharray:5.0,5.0;" x1="43" x2="43" y1="83.6211" y2="691.2383"/><line style="stroke:#181818;stroke-width:0.5;stroke-dasharray:5.0,5.0;" x1="230.2661" x2="230.2661" y1="83.6211" y2="691.2383"/><line style="stroke:#181818;stroke-width:0.5;stroke-dasharray:5.0,5.0;" x1="410.1079" x2="410.1079" y1="83.6211" y2="691.2383"/><line style="stroke:#181818;stroke-width:0.5;stroke-dasharray:5.0,5.0;" x1="570.1831" x2="570.1831" y1="188.0137" y2="691.2383"/><line style="stroke:#181818;stroke-width:0.5;stroke-dasharray:5.0,5.0;" x1="735.5415" x2="735.5415" y1="83.6211" y2="691.2383"/><text fill="#000000" font-family="sans-serif" font-size="14" lengthAdjust="spacing" textLength="41.248" x="20" y="80.1074">Utente</text><ellipse cx="43.624" cy="13.5" fill="#E2E2F0" rx="8" ry="8" style="stroke:#181818;stroke-width:0.5;"/><path d="M43.624,21.5 L43.624,48.5 M30.624,29.5 L56.624,29.5 M43.624,48.5 L30.624,63.5 M43.624,48.5 L56.624,63.5 " fill="none" style="stroke:#181818;stroke-width:0.5;"/><text fill="#000000" font-family="sans-serif" font-size="14" lengthAdjust="spacing" textLength="41.248" x="20" y="705.3457">Utente</text><ellipse cx="43.624" cy="717.3594" fill="#E2E2F0" rx="8" ry="8" style="stroke:#181818;stroke-width:0.5;"/><path d="M43.624,725.3594 L43.624,752.3594 M30.624,733.3594 L56.624,733.3594 M43.624,752.3594 L30.624,767.3594 M43.624,752.3594 L56.624,767.3594 " fill="none" style="stroke:#181818;stroke-width:0.5;"/><rect fill="#E2E2F0" height="32.6211" rx="2.5" ry="2.5" style="stroke:#181818;stroke-width:0.5;" width="129.1719" x="166.2661" y="50"/><text fill="#000000" font-family="sans-serif" font-size="14" lengthAdjust="spacing" textLength="115.1719" x="173.2661" y="72.1074">MainPageView_UI</text><rect fill="#E2E2F0" height="32.6211" rx="2.5" ry="2.5" style="stroke:#181818;stroke-width:0.5;" width="129.1719" x="166.2661" y="690.2383"/><text fill="#000000" font-family="sans-serif" font-size="14" lengthAdjust="spacing" textLength="115.1719" x="173.2661" y="712.3457">MainPageView_UI</text><rect fill="#E2E2F0" height="32.6211" rx="2.5" ry="2.5" style="stroke:#181818;stroke-width:0.5;" width="168.0752" x="326.1079" y="50"/><text fill="#000000" font-family="sans-serif" font-size="14" lengthAdjust="spacing" textLength="154.0752" x="333.1079" y="72.1074">MainPageViewController</text><rect fill="#E2E2F0" height="32.6211" rx="2.5" ry="2.5" style="stroke:#181818;stroke-width:0.5;" width="168.0752" x="326.1079" y="690.2383"/><text fill="#000000" font-family="sans-serif" font-size="14" lengthAdjust="spacing" textLength="154.0752" x="333.1079" y="712.3457">MainPageViewController</text><rect fill="#E2E2F0" height="32.6211" rx="2.5" ry="2.5" style="stroke:#181818;stroke-width:0.5;" width="133.082" x="504.1831" y="690.2383"/><text fill="#000000" font-family="sans-serif" font-size="14" lengthAdjust="spacing" textLength="119.082" x="511.1831" y="712.3457">AddExpenseDialog</text><rect fill="#E2E2F0" height="32.6211" rx="2.5" ry="2.5" style="stroke:#181818;stroke-width:0.5;" width="135.3994" x="668.5415" y="50"/><text fill="#000000" font-family="sans-serif" font-size="14" lengthAdjust="spacing" textLength="121.3994" x="675.5415" y="72.1074">ExpenseRepository</text><rect fill="#E2E2F0" height="32.6211" rx="2.5" ry="2.5" style="stroke:#181818;stroke-width:0.5;" width="135.3994" x="668.5415" y="690.2383"/><text fill="#000000" font-family="sans-serif" font-size="14" lengthAdjust="spacing" textLength="121.3994" x="675.5415" y="712.3457">ExpenseRepository</text><rect fill="#FFFFFF" height="198.7852" style="stroke:#181818;stroke-width:1.0;" width="10" x="225.8521" y="116.9121"/><rect fill="#FFFFFF" height="37.291" style="stroke:#181818;stroke-width:1.0;" width="10" x="225.8521" y="511.4434"/><rect fill="#FFFFFF" height="31.291" style="stroke:#181818;stroke-width:1.0;" width="10" x="225.8521" y="634.9473"/><rect fill="#FFFFFF" height="31.291" style="stroke:#181818;stroke-width:1.0;" width="10" x="405.1455" y="148.2031"/><rect fill="#FFFFFF" height="93.873" style="stroke:#181818;stroke-width:1.0;" width="10" x="405.1455" y="417.5703"/><rect fill="#FFFFFF" height="31.291" style="stroke:#181818;stroke-width:1.0;" width="10" x="405.1455" y="603.6563"/><rect fill="#FFFFFF" height="131.873" style="stroke:#181818;stroke-width:1.0;" width="10" x="565.7241" y="285.6973"/><rect fill="#FFFFFF" height="31.291" style="stroke:#181818;stroke-width:1.0;" width="10" x="731.2412" y="448.8613"/><polygon fill="#181818" points="213.8521,112.9121,223.8521,116.9121,213.8521,120.9121,217.8521,116.9121" style="stroke:#181818;stroke-width:1.0;"/><line style="stroke:#181818;stroke-width:1.0;" x1="43.624" x2="219.8521" y1="116.9121" y2="116.9121"/><text fill="#000000" font-family="sans-serif" font-size="13" lengthAdjust="spacing" textLength="154.4766" x="50.624" y="111.6494">Clicca su "Aggiungi spesa"</text><polygon fill="#181818" points="393.1455,144.2031,403.1455,148.2031,393.1455,152.2031,397.1455,148.2031" style="stroke:#181818;stroke-width:1.0;"/><line style="stroke:#181818;stroke-width:1.0;" x1="235.8521" x2="399.1455" y1="148.2031" y2="148.2031"/><text fill="#000000" font-family="sans-serif" font-size="13" lengthAdjust="spacing" textLength="146.688" x="242.8521" y="142.9404">addExpenseButtonClick()</text><polygon fill="#181818" points="492.1831,175.4941,502.1831,179.4941,492.1831,183.4941,496.1831,179.4941" style="stroke:#181818;stroke-width:1.0;"/><line style="stroke:#181818;stroke-width:1.0;" x1="410.1455" x2="498.1831" y1="179.4941" y2="179.4941"/><text fill="#000000" font-family="sans-serif" font-size="13" lengthAdjust="spacing" textLength="23.8481" x="417.1455" y="174.2314">new</text><rect fill="#E2E2F0" height="32.6211" rx="2.5" ry="2.5" style="stroke:#181818;stroke-width:0.5;" width="133.082" x="504.1831" y="156.2031"/><text fill="#000000" font-family="sans-serif" font-size="14" lengthAdjust="spacing" textLength="119.082" x="511.1831" y="178.3105">AddExpenseDialog</text><polygon fill="#181818" points="54.624,219.1152,44.624,223.1152,54.624,227.1152,50.624,223.1152" style="stroke:#181818;stroke-width:1.0;"/><line style="stroke:#181818;stroke-width:1.0;" x1="48.624" x2="224.8521" y1="223.1152" y2="223.1152"/><text fill="#000000" font-family="sans-serif" font-size="13" lengthAdjust="spacing" textLength="113.458" x="60.624" y="217.8525">Richiede dati spesa</text><polygon fill="#181818" points="213.8521,250.4063,223.8521,254.4063,213.8521,258.4063,217.8521,254.4063" style="stroke:#181818;stroke-width:1.0;"/><line style="stroke:#181818;stroke-width:1.0;" x1="43.624" x2="219.8521" y1="254.4063" y2="254.4063"/><text fill="#000000" font-family="sans-serif" font-size="13" lengthAdjust="spacing" textLength="114.8926" x="50.624" y="249.1436">Inserisce dati spesa</text><polygon fill="#181818" points="553.7241,281.6973,563.7241,285.6973,553.7241,289.6973,557.7241,285.6973" style="stroke:#181818;stroke-width:1.0;"/><line style="stroke:#181818;stroke-width:1.0;" x1="235.8521" x2="559.7241" y1="285.6973" y2="285.6973"/><text fill="#000000" font-family="sans-serif" font-size="13" lengthAdjust="spacing" textLength="80.9263" x="242.8521" y="280.4346">Submit Dialog</text><line style="stroke:#181818;stroke-width:1.0;" x1="575.7241" x2="617.7241" y1="346.9883" y2="346.9883"/><line style="stroke:#181818;stroke-width:1.0;" x1="617.7241" x2="617.7241" y1="346.9883" y2="359.9883"/><line style="stroke:#181818;stroke-width:1.0;" x1="576.7241" x2="617.7241" y1="359.9883" y2="359.9883"/><polygon fill="#181818" points="586.7241,355.9883,576.7241,359.9883,586.7241,363.9883,582.7241,359.9883" style="stroke:#181818;stroke-width:1.0;"/><text fill="#000000" font-family="sans-serif" font-size="13" lengthAdjust="spacing" textLength="131.5171" x="582.7241" y="341.7256">validateExpenseData()</text><path d="M10,374.9883 L70.1709,374.9883 L70.1709,384.2793 L60.1709,394.2793 L10,394.2793 L10,374.9883 " fill="#EEEEEE" style="stroke:#000000;stroke-width:1.5;"/><rect fill="none" height="299.25" style="stroke:#000000;stroke-width:1.5;" width="803.9409" x="10" y="374.9883"/><text fill="#000000" font-family="sans-serif" font-size="13" font-weight="bold" lengthAdjust="spacing" textLength="15.1709" x="25" y="390.0166">alt</text><text fill="#000000" font-family="sans-serif" font-size="11" font-weight="bold" lengthAdjust="spacing" textLength="59.2861" x="85.1709" y="388.8584">[Dati validi]</text><polygon fill="#181818" points="426.1455,413.5703,416.1455,417.5703,426.1455,421.5703,422.1455,417.5703" style="stroke:#181818;stroke-width:1.0;"/><line style="stroke:#181818;stroke-width:1.0;" x1="420.1455" x2="569.7241" y1="417.5703" y2="417.5703"/><text fill="#000000" font-family="sans-serif" font-size="13" lengthAdjust="spacing" textLength="86.709" x="432.1455" y="412.3076">saveExpense()</text><line style="stroke:#A80036;stroke-width:2.0;" x1="561.7241" x2="579.7241" y1="408.5703" y2="426.5703"/><line style="stroke:#A80036;stroke-width:2.0;" x1="561.7241" x2="579.7241" y1="426.5703" y2="408.5703"/><polygon fill="#181818" points="719.2412,444.8613,729.2412,448.8613,719.2412,452.8613,723.2412,448.8613" style="stroke:#181818;stroke-width:1.0;"/><line style="stroke:#181818;stroke-width:1.0;" x1="415.1455" x2="725.2412" y1="448.8613" y2="448.8613"/><text fill="#000000" font-family="sans-serif" font-size="13" lengthAdjust="spacing" textLength="121.3926" x="422.1455" y="443.5986">save(entity:Expense)</text><polygon fill="#181818" points="426.1455,476.1523,416.1455,480.1523,426.1455,484.1523,422.1455,480.1523" style="stroke:#181818;stroke-width:1.0;"/><line style="stroke:#181818;stroke-width:1.0;stroke-dasharray:2.0,2.0;" x1="420.1455" x2="735.2412" y1="480.1523" y2="480.1523"/><text fill="#000000" font-family="sans-serif" font-size="13" lengthAdjust="spacing" textLength="126.458" x="432.1455" y="474.8896">Conferma salvataggio</text><polygon fill="#181818" points="246.8521,507.4434,236.8521,511.4434,246.8521,515.4434,242.8521,511.4434" style="stroke:#181818;stroke-width:1.0;"/><line style="stroke:#181818;stroke-width:1.0;" x1="240.8521" x2="409.1455" y1="511.4434" y2="511.4434"/><text fill="#000000" font-family="sans-serif" font-size="13" lengthAdjust="spacing" textLength="148.8716" x="252.8521" y="506.1807">Conferma aggiunta spesa</text><line style="stroke:#181818;stroke-width:1.0;" x1="235.8521" x2="277.8521" y1="547.7344" y2="547.7344"/><line style="stroke:#181818;stroke-width:1.0;" x1="277.8521" x2="277.8521" y1="547.7344" y2="560.7344"/><line style="stroke:#181818;stroke-width:1.0;" x1="230.8521" x2="277.8521" y1="560.7344" y2="560.7344"/><polygon fill="#181818" points="240.8521,556.7344,230.8521,560.7344,240.8521,564.7344,236.8521,560.7344" style="stroke:#181818;stroke-width:1.0;"/><text fill="#000000" font-family="sans-serif" font-size="13" lengthAdjust="spacing" textLength="132.2598" x="242.8521" y="542.4717">Aggiorna tabella spese</text><line style="stroke:#000000;stroke-width:1.0;stroke-dasharray:2.0,2.0;" x1="10" x2="813.9409" y1="564.7344" y2="564.7344"/><text fill="#000000" font-family="sans-serif" font-size="11" font-weight="bold" lengthAdjust="spacing" textLength="82.5" x="15" y="576.6045">[Dati non validi]</text><polygon fill="#181818" points="426.1455,599.6563,416.1455,603.6563,426.1455,607.6563,422.1455,603.6563" style="stroke:#181818;stroke-width:1.0;"/><line style="stroke:#181818;stroke-width:1.0;" x1="420.1455" x2="569.7241" y1="603.6563" y2="603.6563"/><text fill="#000000" font-family="sans-serif" font-size="13" lengthAdjust="spacing" textLength="70.0781" x="432.1455" y="598.3936">Return error</text><line style="stroke:#A80036;stroke-width:2.0;" x1="561.7241" x2="579.7241" y1="594.6563" y2="612.6563"/><line style="stroke:#A80036;stroke-width:2.0;" x1="561.7241" x2="579.7241" y1="612.6563" y2="594.6563"/><polygon fill="#181818" points="246.8521,630.9473,236.8521,634.9473,246.8521,638.9473,242.8521,634.9473" style="stroke:#181818;stroke-width:1.0;"/><line style="stroke:#181818;stroke-width:1.0;" x1="240.8521" x2="409.1455" y1="634.9473" y2="634.9473"/><text fill="#000000" font-family="sans-serif" font-size="13" lengthAdjust="spacing" textLength="150.2935" x="252.8521" y="629.6846">Notifica errore validazione</text><polygon fill="#181818" points="54.624,662.2383,44.624,666.2383,54.624,670.2383,50.624,666.2383" style="stroke:#181818;stroke-width:1.0;"/><line style="stroke:#181818;stroke-width:1.0;" x1="48.624" x2="229.8521" y1="666.2383" y2="666.2383"/><text fill="#000000" font-family="sans-serif" font-size="13" lengthAdjust="spacing" textLength="158.228" x="60.624" y="660.9756">Mostra messaggio di errore</text><!--SRC=[jLJDJkCm4BxxAKQSG5LV80Sa_WuSMAsAkbSq94COhMj7zgJTylICavIbILp4IjjRC_Rtvy_6Kdo0jP0JCWq6uP8RT08FoEudrlIBQVUqli_ERhoJuAsbO4mF0ylByUu2RYoN9K9iuUoghhbrDKDiAEAPmL9uYxflJ3dwFyRzomoB1HI0LNNtfo4NwReLyIvH_Zw_C6MWX7xrCRvbjBus6Inb6I-5vLBn7UtCdARUTG4hBb-PAe8APJ1tAf5xXGySowFrS_WJDOj50O_jyuO51YiLPKCqKpDJo0AsQ5brqE4p2cfq1gro97dTd0teRmumasK14RS7JCLBsokAEjvFpwERplhurB6q9dzm0-2A6XzPYxtl1Pph8R3iYs5ySSmqsTID9r-r13cVMc_lNYXijE1e5HIrudvm-mLFtiou2fzOiBj2WaDhHaGdeilNPAnbviBr8jBrzS4X23wJjRq6EgKXuPEDr3V9UVVFRLgHjC41XU33Vo_J98tq2FpmmY-iBrcdWOPxyyRUqJ7bDnIbV3Bn7zwM1wy-4JOKOzSjg7XGy6NmhZBl]--></g></svg>