<svg xmlns="http://www.w3.org/2000/svg" xmlns:xlink="http://www.w3.org/1999/xlink" contentStyleType="text/css" height="627px" preserveAspectRatio="none" style="width:417px;height:627px;background:#FFFFFF;" version="1.1" viewBox="0 0 417 627" width="417px" zoomAndPan="magnify"><defs/><g><!--cluster Applicazione--><g id="cluster_Applicazione"><rect fill="none" height="614" rx="2.5" ry="2.5" style="stroke:#181818;stroke-width:1.0;" width="225" x="91" y="7"/><text fill="#000000" font-family="sans-serif" font-size="14" font-weight="bold" lengthAdjust="spacing" textLength="86.3447" x="160.3276" y="24.1074">Applicazione</text></g><g id="elem_Login"><ellipse cx="203.7211" cy="60.1727" fill="#F1F1F1" rx="35.7211" ry="16.1727" style="stroke:#181818;stroke-width:0.5;"/><text fill="#000000" font-family="sans-serif" font-size="14" lengthAdjust="spacing" textLength="34.2549" x="185.9185" y="64.2414">Login</text></g><g id="elem_Visualizza storico spese"><ellipse cx="203.2749" cy="133.155" fill="#F1F1F1" rx="96.2749" ry="21.655" style="stroke:#181818;stroke-width:0.5;"/><text fill="#000000" font-family="sans-serif" font-size="14" lengthAdjust="spacing" textLength="149.3994" x="126.307" y="137.7382">Visualizza storico spese</text></g><g id="elem_Inserisci nuova spesa"><ellipse cx="203.7078" cy="209.9416" fill="#F1F1F1" rx="90.2078" ry="20.4416" style="stroke:#181818;stroke-width:0.5;"/><text fill="#000000" font-family="sans-serif" font-size="14" lengthAdjust="spacing" textLength="134.627" x="133.3943" y="214.7453">Inserisci nuova spesa</text></g><g id="elem_Cancella spesa"><ellipse cx="203.444" cy="282.9888" fill="#F1F1F1" rx="75.444" ry="17.4888" style="stroke:#181818;stroke-width:0.5;"/><text fill="#000000" font-family="sans-serif" font-size="14" lengthAdjust="spacing" textLength="95.7236" x="152.5822" y="287.7925">Cancella spesa</text></g><g id="elem_Importa/Esporta dati"><ellipse cx="203.293" cy="355.7586" fill="#F1F1F1" rx="86.793" ry="19.7586" style="stroke:#181818;stroke-width:0.5;"/><text fill="#000000" font-family="sans-serif" font-size="14" lengthAdjust="spacing" textLength="126.0615" x="137.2623" y="360.5623">Importa/Esporta dati</text></g><g id="elem_Genera grafici a torta"><ellipse cx="203.4561" cy="431.1912" fill="#F1F1F1" rx="88.9561" ry="20.1912" style="stroke:#181818;stroke-width:0.5;"/><text fill="#000000" font-family="sans-serif" font-size="14" lengthAdjust="spacing" textLength="131.5098" x="134.7012" y="435.9949">Genera grafici a torta</text></g><g id="elem_Genera grafico ad area"><ellipse cx="203.5198" cy="507.204" fill="#F1F1F1" rx="94.0198" ry="21.204" style="stroke:#181818;stroke-width:0.5;"/><text fill="#000000" font-family="sans-serif" font-size="14" lengthAdjust="spacing" textLength="143.9785" x="128.5305" y="512.0077">Genera grafico ad area</text></g><g id="elem_Salva dati in database"><ellipse cx="203.4776" cy="584.1955" fill="#F1F1F1" rx="91.4776" ry="20.6955" style="stroke:#181818;stroke-width:0.5;"/><text fill="#000000" font-family="sans-serif" font-size="14" lengthAdjust="spacing" textLength="137.7646" x="131.5952" y="588.9992">Salva dati in database</text></g><!--entity Utente--><g id="elem_Utente"><ellipse cx="26.624" cy="252" fill="#F1F1F1" rx="8" ry="8" style="stroke:#181818;stroke-width:0.5;"/><path d="M26.624,260 L26.624,287 M13.624,268 L39.624,268 M26.624,287 L13.624,302 M26.624,287 L39.624,302 " fill="none" style="stroke:#181818;stroke-width:0.5;"/><text fill="#000000" font-family="sans-serif" font-size="14" lengthAdjust="spacing" textLength="41.248" x="6" y="318.6074">Utente</text></g><!--entity Sistema--><g id="elem_Sistema"><ellipse cx="385.2861" cy="476" fill="#F1F1F1" rx="8" ry="8" style="stroke:#181818;stroke-width:0.5;"/><path d="M385.2861,484 L385.2861,511 M372.2861,492 L398.2861,492 M385.2861,511 L372.2861,526 M385.2861,511 L398.2861,526 " fill="none" style="stroke:#181818;stroke-width:0.5;"/><text fill="#000000" font-family="sans-serif" font-size="14" lengthAdjust="spacing" textLength="50.5723" x="360" y="542.6074">Sistema</text></g><!--link Utente to Login--><g id="link_Utente_Login"><path d="M28.36,243.39 C31.46,200.76 42.93,133.73 83,94 C105.44,71.75 141.33,63.83 167.93,61.13 " fill="none" id="Utente-Login" style="stroke:#181818;stroke-width:1.0;"/></g><!--link Utente to Visualizza storico spese--><g id="link_Utente_Visualizza storico spese"><path d="M38.69,243.44 C47.27,219.72 61.37,190.64 83,172 C96.23,160.6 112.85,152.52 129.47,146.79 " fill="none" id="Utente-Visualizza storico spese" style="stroke:#181818;stroke-width:1.0;"/></g><!--link Utente to Inserisci nuova spesa--><g id="link_Utente_Inserisci nuova spesa"><path d="M47.1,268.91 C57.42,261.95 70.5,253.81 83,248 C102.25,239.05 124.17,231.41 143.93,225.37 " fill="none" id="Utente-Inserisci nuova spesa" style="stroke:#181818;stroke-width:1.0;"/></g><!--link Utente to Cancella spesa--><g id="link_Utente_Cancella spesa"><path d="M47.23,283 C66.9,283 98.33,283 127.79,283 " fill="none" id="Utente-Cancella spesa" style="stroke:#181818;stroke-width:1.0;"/></g><!--link Utente to Importa/Esporta dati--><g id="link_Utente_Importa/Esporta dati"><path d="M47.1,297.09 C57.42,304.05 70.5,312.19 83,318 C102.74,327.18 125.29,334.99 145.45,341.09 " fill="none" id="Utente-Importa/Esporta dati" style="stroke:#181818;stroke-width:1.0;"/></g><!--link Utente to Genera grafici a torta--><g id="link_Utente_Genera grafici a torta"><path d="M38.82,322.53 C47.42,346.01 61.51,374.69 83,393 C97.08,405 114.99,413.22 132.63,418.85 " fill="none" id="Utente-Genera grafici a torta" style="stroke:#181818;stroke-width:1.0;"/></g><!--link Utente to Genera grafico ad area--><g id="link_Utente_Genera grafico ad area"><path d="M29,322.64 C32.68,364.19 44.7,428.77 83,468 C95.04,480.34 111.03,488.77 127.39,494.54 " fill="none" id="Utente-Genera grafico ad area" style="stroke:#181818;stroke-width:1.0;"/></g><!--link Genera grafici a torta to Sistema--><g id="link_Genera grafici a torta_Sistema"><path d="M263.74,445.87 C283.35,451.7 305.01,459.14 324,468 C336.34,473.76 349.15,481.68 359.78,488.89 " fill="none" id="Genera grafici a torta-Sistema" style="stroke:#181818;stroke-width:1.0;"/></g><!--link Genera grafico ad area to Sistema--><g id="link_Genera grafico ad area_Sistema"><path d="M297.66,507 C320.65,507 343.37,507 359.8,507 " fill="none" id="Genera grafico ad area-Sistema" style="stroke:#181818;stroke-width:1.0;"/></g><!--link Salva dati in database to Sistema--><g id="link_Salva dati in database_Sistema"><path d="M263.73,568.55 C283.34,562.56 304.99,554.95 324,546 C336.32,540.2 349.12,532.26 359.75,525.07 " fill="none" id="Salva dati in database-Sistema" style="stroke:#181818;stroke-width:1.0;"/></g><!--SRC=[VT31IWCn40RWUvxYF-gX-0mY8WLlHUz_izDr89qioRI75T_TxDf2NTgUXYJVFnCcoSxX6KNxBqUdHQ9hjX0OFHTyk9ZBwR3Hwh9d21EYzKdmF0n98ySM4Nm7d09OhV3mddkrn_ztdreFJ3gEH6qjDMRKGQeisDgg5ArHOOTyv6ouC2-qA2bTVrplXroSJwzrhkZekY1lObA8ld2dRH3R5fgyXpBOWKLcT2i_nSwBmiq62xLXElvz4cfJvPPjAPVg9_m2]--></g></svg>