<svg xmlns="http://www.w3.org/2000/svg" xmlns:xlink="http://www.w3.org/1999/xlink" contentStyleType="text/css" height="703px" preserveAspectRatio="none" style="width:582px;height:703px;background:#FFFFFF;" version="1.1" viewBox="0 0 582 703" width="582px" zoomAndPan="magnify"><defs/><g><ellipse cx="223.4297" cy="20" fill="#222222" rx="10" ry="10" style="stroke:#222222;stroke-width:1.0;"/><rect fill="#F1F1F1" height="35.9609" rx="12.5" ry="12.5" style="stroke:#181818;stroke-width:0.5;" width="161.709" x="142.5752" y="50"/><text fill="#000000" font-family="sans-serif" font-size="12" lengthAdjust="spacing" textLength="141.709" x="152.5752" y="72.9492">Utente avvia l'applicazione</text><rect fill="#F1F1F1" height="35.9609" rx="12.5" ry="12.5" style="stroke:#181818;stroke-width:0.5;" width="136.0742" x="155.3926" y="105.9609"/><text fill="#000000" font-family="sans-serif" font-size="12" lengthAdjust="spacing" textLength="116.0742" x="165.3926" y="128.9102">Utente effettua il login</text><rect fill="#F1F1F1" height="35.9609" rx="12.5" ry="12.5" style="stroke:#181818;stroke-width:0.5;" width="217.4492" x="114.7051" y="161.9219"/><text fill="#000000" font-family="sans-serif" font-size="12" lengthAdjust="spacing" textLength="197.4492" x="124.7051" y="184.8711">Utente visualizza la pagina principale</text><rect fill="#F1F1F1" height="35.9609" rx="12.5" ry="12.5" style="stroke:#181818;stroke-width:0.5;" width="249.9863" x="98.4365" y="217.8828"/><text fill="#000000" font-family="sans-serif" font-size="12" lengthAdjust="spacing" textLength="229.9863" x="108.4365" y="240.832">Utente clicca sul pulsante "Aggiungi spesa"</text><rect fill="#F1F1F1" height="35.9609" rx="12.5" ry="12.5" style="stroke:#181818;stroke-width:0.5;" width="283.4492" x="81.7051" y="317.8438"/><text fill="#000000" font-family="sans-serif" font-size="12" lengthAdjust="spacing" textLength="263.4492" x="91.7051" y="340.793">Sistema visualizza il modulo di inserimento spesa</text><rect fill="#F1F1F1" height="35.9609" rx="12.5" ry="12.5" style="stroke:#181818;stroke-width:0.5;" width="424.8594" x="11" y="373.8047"/><text fill="#000000" font-family="sans-serif" font-size="12" lengthAdjust="spacing" textLength="404.8594" x="21" y="396.7539">Utente compila i campi del modulo (importo, data, tipo, metodo, descrizione)</text><rect fill="#F1F1F1" height="35.9609" rx="12.5" ry="12.5" style="stroke:#181818;stroke-width:0.5;" width="220.6133" x="113.123" y="444.7656"/><text fill="#000000" font-family="sans-serif" font-size="12" lengthAdjust="spacing" textLength="200.6133" x="123.123" y="467.7148">Utente clicca sul pulsante "Conferma"</text><polygon fill="#F1F1F1" points="223.4297,273.8438,235.4297,285.8438,223.4297,297.8438,211.4297,285.8438,223.4297,273.8438" style="stroke:#181818;stroke-width:0.5;"/><polygon fill="#F1F1F1" points="196.5286,500.7266,250.3308,500.7266,262.3308,512.7266,250.3308,524.7266,196.5286,524.7266,184.5286,512.7266,196.5286,500.7266" style="stroke:#181818;stroke-width:0.5;"/><text fill="#000000" font-family="sans-serif" font-size="11" lengthAdjust="spacing" textLength="10.3931" x="227.4297" y="536.5967">SI</text><text fill="#000000" font-family="sans-serif" font-size="11" lengthAdjust="spacing" textLength="53.8022" x="196.5286" y="517.2813">Dati validi?</text><text fill="#000000" font-family="sans-serif" font-size="11" lengthAdjust="spacing" textLength="16.5" x="262.3308" y="509.9658">NO</text><rect fill="#F1F1F1" height="51.9219" rx="12.5" ry="12.5" style="stroke:#181818;stroke-width:0.5;" width="126.0488" x="445.8594" y="365.8242"/><text fill="#000000" font-family="sans-serif" font-size="12" lengthAdjust="spacing" textLength="98.7012" x="455.8594" y="388.7734">Sistema visualizza</text><text fill="#000000" font-family="sans-serif" font-size="12" lengthAdjust="spacing" textLength="106.0488" x="455.8594" y="404.7344">messaggio di errore</text><rect fill="#F1F1F1" height="35.9609" rx="12.5" ry="12.5" style="stroke:#181818;stroke-width:0.5;" width="214.7832" x="116.0381" y="558.0967"/><text fill="#000000" font-family="sans-serif" font-size="12" lengthAdjust="spacing" textLength="194.7832" x="126.0381" y="581.0459">Sistema salva la spesa nel database</text><rect fill="#F1F1F1" height="35.9609" rx="12.5" ry="12.5" style="stroke:#181818;stroke-width:0.5;" width="228.7988" x="109.0303" y="614.0576"/><text fill="#000000" font-family="sans-serif" font-size="12" lengthAdjust="spacing" textLength="208.7988" x="119.0303" y="637.0068">Sistema aggiorna la tabella delle spese</text><ellipse cx="223.4297" cy="681.0186" fill="none" rx="11" ry="11" style="stroke:#222222;stroke-width:1.0;"/><ellipse cx="223.4297" cy="681.0186" fill="#222222" rx="6" ry="6" style="stroke:#222222;stroke-width:1.0;"/><line style="stroke:#181818;stroke-width:1.0;" x1="223.4297" x2="223.4297" y1="30" y2="50"/><polygon fill="#181818" points="219.4297,40,223.4297,50,227.4297,40,223.4297,44" style="stroke:#181818;stroke-width:1.0;"/><line style="stroke:#181818;stroke-width:1.0;" x1="223.4297" x2="223.4297" y1="85.9609" y2="105.9609"/><polygon fill="#181818" points="219.4297,95.9609,223.4297,105.9609,227.4297,95.9609,223.4297,99.9609" style="stroke:#181818;stroke-width:1.0;"/><line style="stroke:#181818;stroke-width:1.0;" x1="223.4297" x2="223.4297" y1="141.9219" y2="161.9219"/><polygon fill="#181818" points="219.4297,151.9219,223.4297,161.9219,227.4297,151.9219,223.4297,155.9219" style="stroke:#181818;stroke-width:1.0;"/><line style="stroke:#181818;stroke-width:1.0;" x1="223.4297" x2="223.4297" y1="197.8828" y2="217.8828"/><polygon fill="#181818" points="219.4297,207.8828,223.4297,217.8828,227.4297,207.8828,223.4297,211.8828" style="stroke:#181818;stroke-width:1.0;"/><line style="stroke:#181818;stroke-width:1.0;" x1="223.4297" x2="223.4297" y1="353.8047" y2="373.8047"/><polygon fill="#181818" points="219.4297,363.8047,223.4297,373.8047,227.4297,363.8047,223.4297,367.8047" style="stroke:#181818;stroke-width:1.0;"/><line style="stroke:#181818;stroke-width:1.0;" x1="223.4297" x2="223.4297" y1="409.7656" y2="444.7656"/><polygon fill="#181818" points="219.4297,434.7656,223.4297,444.7656,227.4297,434.7656,223.4297,438.7656" style="stroke:#181818;stroke-width:1.0;"/><line style="stroke:#181818;stroke-width:1.0;" x1="223.4297" x2="223.4297" y1="297.8438" y2="317.8438"/><polygon fill="#181818" points="219.4297,307.8438,223.4297,317.8438,227.4297,307.8438,223.4297,311.8438" style="stroke:#181818;stroke-width:1.0;"/><line style="stroke:#181818;stroke-width:1.0;" x1="262.3308" x2="508.8838" y1="512.7266" y2="512.7266"/><line style="stroke:#181818;stroke-width:1.0;" x1="508.8838" x2="508.8838" y1="417.7461" y2="512.7266"/><polygon fill="#181818" points="504.8838,427.7461,508.8838,417.7461,512.8838,427.7461,508.8838,423.7461" style="stroke:#181818;stroke-width:1.0;"/><line style="stroke:#181818;stroke-width:1.0;" x1="508.8838" x2="508.8838" y1="285.8438" y2="365.8242"/><line style="stroke:#181818;stroke-width:1.0;" x1="508.8838" x2="235.4297" y1="285.8438" y2="285.8438"/><polygon fill="#181818" points="245.4297,281.8438,235.4297,285.8438,245.4297,289.8438,241.4297,285.8438" style="stroke:#181818;stroke-width:1.0;"/><line style="stroke:#181818;stroke-width:1.0;" x1="223.4297" x2="223.4297" y1="480.7266" y2="500.7266"/><polygon fill="#181818" points="219.4297,490.7266,223.4297,500.7266,227.4297,490.7266,223.4297,494.7266" style="stroke:#181818;stroke-width:1.0;"/><line style="stroke:#181818;stroke-width:1.0;" x1="223.4297" x2="223.4297" y1="253.8438" y2="273.8438"/><polygon fill="#181818" points="219.4297,263.8438,223.4297,273.8438,227.4297,263.8438,223.4297,267.8438" style="stroke:#181818;stroke-width:1.0;"/><line style="stroke:#181818;stroke-width:1.0;" x1="223.4297" x2="223.4297" y1="524.7266" y2="558.0967"/><polygon fill="#181818" points="219.4297,548.0967,223.4297,558.0967,227.4297,548.0967,223.4297,552.0967" style="stroke:#181818;stroke-width:1.0;"/><line style="stroke:#181818;stroke-width:1.0;" x1="223.4297" x2="223.4297" y1="594.0576" y2="614.0576"/><polygon fill="#181818" points="219.4297,604.0576,223.4297,614.0576,227.4297,604.0576,223.4297,608.0576" style="stroke:#181818;stroke-width:1.0;"/><line style="stroke:#181818;stroke-width:1.0;" x1="223.4297" x2="223.4297" y1="650.0186" y2="670.0186"/><polygon fill="#181818" points="219.4297,660.0186,223.4297,670.0186,227.4297,660.0186,223.4297,664.0186" style="stroke:#181818;stroke-width:1.0;"/><!--SRC=[XL7DJiCm3BxtAQnTQ2MUO1mGWWiNE4myW9TunIA9ezZjf3qzRYTjFI1nYcNxy_SJDMpMTViles84EC-Ca1wmriG1Boo5dkvZEft8R4BW14b6BflPp3fXuil5yGWLVUfFunAuOjfU2Nuw8EYKe4v9SUdjNiQHfp8oQ2N5dQytgeJMxG-iHXct14wV9Kv9839mKMgS_RHSmLigoPLT3aD0ho3I3Tbphj9C7Y6YuICOLwypcSIbHneQh_w7_wI_IZbHoule8uQVCxO8VwZkCgcYsrnLKslIF9MhIpX_SoBetz0OPj-F_3m0A_GVdmCKCUWFxqDt3qCnpMlGgsCexcknSKJrcxUjbQsLTT67bFpr29nfWIr_eYRr5m00]--></g></svg>