<svg xmlns="http://www.w3.org/2000/svg" xmlns:xlink="http://www.w3.org/1999/xlink" contentStyleType="text/css" height="1235px" preserveAspectRatio="none" style="width:2098px;height:1235px;background:#FFFFFF;" version="1.1" viewBox="0 0 2098 1235" width="2098px" zoomAndPan="magnify"><defs/><g><!--class Application--><g id="elem_Application"><rect codeLine="1" fill="#F1F1F1" height="66.6211" id="Application" rx="2.5" ry="2.5" style="stroke:#181818;stroke-width:0.5;" width="231.4131" x="36" y="7"/><ellipse cx="113.2119" cy="23" fill="#A9DCDF" rx="11" ry="11" style="stroke:#181818;stroke-width:1.0;"/><path d="M115.3994,24.7656 L111.2588,24.7656 L110.8369,25.7969 L111.2588,25.7969 Q111.8682,25.7969 112.1338,26.0313 Q112.3994,26.2656 112.3994,26.6563 Q112.3994,27.0313 112.1338,27.2656 Q111.8682,27.5 111.2588,27.5 L108.9619,27.5 Q108.3525,27.5 108.1025,27.2656 Q107.8369,27.0313 107.8369,26.6406 Q107.8369,26.2656 108.1182,26.0313 Q108.3838,25.7813 109.0088,25.7969 L111.6807,19.1406 L110.5713,19.1406 Q109.9619,19.1406 109.6963,18.9063 Q109.4307,18.6719 109.4307,18.2813 Q109.4307,17.9063 109.6963,17.6719 Q109.9619,17.4375 110.5713,17.4375 L114.2432,17.4375 L117.6338,25.7969 Q118.2275,25.7969 118.415,25.9375 Q118.8057,26.2031 118.8057,26.6563 Q118.8057,27.0313 118.54,27.2656 Q118.29,27.5 117.6807,27.5 L115.3838,27.5 Q114.7744,27.5 114.5088,27.2656 Q114.2432,27.0313 114.2432,26.6406 Q114.2432,26.2656 114.5088,26.0313 Q114.7744,25.7969 115.3838,25.7969 L115.8057,25.7969 L115.3994,24.7656 Z M114.6807,23.0625 L113.3213,19.6875 L111.9463,23.0625 L114.6807,23.0625 Z " fill="#000000"/><text fill="#000000" font-family="sans-serif" font-size="14" font-style="italic" lengthAdjust="spacing" textLength="68.4893" x="133.7119" y="28.7969">Application</text><line style="stroke:#181818;stroke-width:0.5;" x1="37" x2="266.4131" y1="39" y2="39"/><line style="stroke:#181818;stroke-width:0.5;" x1="37" x2="266.4131" y1="47" y2="47"/><ellipse cx="47" cy="61.8105" fill="#84BE84" rx="3" ry="3" style="stroke:#038048;stroke-width:1.0;"/><text fill="#000000" font-family="sans-serif" font-size="14" lengthAdjust="spacing" textLength="205.4131" x="56" y="66.1074">start(primaryStage : Stage) : void</text></g><!--class App--><g id="elem_App"><rect codeLine="4" fill="#F1F1F1" height="141.1055" id="App" rx="2.5" ry="2.5" style="stroke:#181818;stroke-width:0.5;" width="269.5439" x="16.5" y="134"/><ellipse cx="134.5669" cy="150" fill="#ADD1B2" rx="11" ry="11" style="stroke:#181818;stroke-width:1.0;"/><path d="M137.3325,145.875 Q137.4888,145.6563 137.6763,145.5469 Q137.8638,145.4375 138.0825,145.4375 Q138.4575,145.4375 138.6919,145.7031 Q138.9263,145.9531 138.9263,146.5625 L138.9263,148.0156 Q138.9263,148.625 138.6919,148.8906 Q138.4575,149.1563 138.0825,149.1563 Q137.7388,149.1563 137.5356,148.9531 Q137.3325,148.7656 137.2231,148.25 Q137.1763,147.8906 136.9888,147.7031 Q136.6606,147.3281 136.0513,147.1094 Q135.4419,146.8906 134.8169,146.8906 Q134.0513,146.8906 133.4106,147.2188 Q132.7856,147.5469 132.2856,148.2969 Q131.8013,149.0469 131.8013,150.0781 L131.8013,151.1719 Q131.8013,152.4063 132.6919,153.2344 Q133.5825,154.0469 135.1763,154.0469 Q136.1138,154.0469 136.77,153.7969 Q137.1606,153.6406 137.5825,153.2031 Q137.8481,152.9375 137.9888,152.8594 Q138.145,152.7813 138.3481,152.7813 Q138.6763,152.7813 138.9263,153.0469 Q139.1919,153.2969 139.1919,153.6406 Q139.1919,153.9844 138.8481,154.3906 Q138.3481,154.9688 137.5513,155.2969 Q136.4731,155.75 135.1763,155.75 Q133.6606,155.75 132.4575,155.125 Q131.4731,154.625 130.7856,153.5625 Q130.0981,152.4844 130.0981,151.2031 L130.0981,150.0469 Q130.0981,148.7188 130.7075,147.5781 Q131.3325,146.4219 132.4263,145.8125 Q133.52,145.1875 134.7544,145.1875 Q135.4888,145.1875 136.1294,145.3594 Q136.7856,145.5156 137.3325,145.875 Z " fill="#000000"/><text fill="#000000" font-family="sans-serif" font-size="14" lengthAdjust="spacing" textLength="24.9102" x="155.0669" y="155.7969">App</text><line style="stroke:#181818;stroke-width:0.5;" x1="17.5" x2="285.0439" y1="166" y2="166"/><rect fill="none" height="6" style="stroke:#C82930;stroke-width:1.0;" width="6" x="24.5" y="177.8105"/><text fill="#000000" font-family="sans-serif" font-size="14" lengthAdjust="spacing" textLength="129.917" x="36.5" y="185.1074">JDBC_Driver : String</text><rect fill="none" height="6" style="stroke:#C82930;stroke-width:1.0;" width="6" x="24.5" y="196.4316"/><text fill="#000000" font-family="sans-serif" font-size="14" lengthAdjust="spacing" textLength="120.5928" x="36.5" y="203.7285">JDBC_URL : String</text><line style="stroke:#181818;stroke-width:0.5;" x1="17.5" x2="285.0439" y1="211.2422" y2="211.2422"/><rect fill="#F24D5C" height="6" style="stroke:#C82930;stroke-width:1.0;" width="6" x="24.5" y="223.0527"/><text fill="#000000" font-family="sans-serif" font-size="14" lengthAdjust="spacing" textLength="243.5439" x="36.5" y="230.3496">createDataSource() : HikariDataSource</text><ellipse cx="27.5" cy="244.6738" fill="#84BE84" rx="3" ry="3" style="stroke:#038048;stroke-width:1.0;"/><text fill="#000000" font-family="sans-serif" font-size="14" lengthAdjust="spacing" textLength="160.2754" x="36.5" y="248.9707">main(args : String[]) : void</text><ellipse cx="27.5" cy="263.2949" fill="#84BE84" rx="3" ry="3" style="stroke:#038048;stroke-width:1.0;"/><text fill="#000000" font-family="sans-serif" font-size="14" lengthAdjust="spacing" textLength="205.4131" x="36.5" y="267.5918">start(primaryStage : Stage) : void</text></g><!--class DataSource--><g id="elem_DataSource"><rect codeLine="13" fill="#F1F1F1" height="66.6211" id="DataSource" rx="2.5" ry="2.5" style="stroke:#181818;stroke-width:0.5;" width="393.2676" x="322" y="7"/><ellipse cx="477.4185" cy="23" fill="#B4A7E5" rx="11" ry="11" style="stroke:#181818;stroke-width:1.0;"/><path d="M478.3716,19.6406 L478.3716,26.2969 L480.0903,26.2969 Q480.6997,26.2969 480.9653,26.5313 Q481.231,26.7656 481.231,27.1563 Q481.231,27.5313 480.9653,27.7656 Q480.6997,28 480.0903,28 L474.9497,28 Q474.3403,28 474.0747,27.7656 Q473.8091,27.5313 473.8091,27.1406 Q473.8091,26.7656 474.0747,26.5313 Q474.3403,26.2969 474.9497,26.2969 L476.6685,26.2969 L476.6685,19.6406 L474.9497,19.6406 Q474.3403,19.6406 474.0747,19.4063 Q473.8091,19.1719 473.8091,18.7813 Q473.8091,18.4063 474.0747,18.1719 Q474.3403,17.9375 474.9497,17.9375 L480.0903,17.9375 Q480.6997,17.9375 480.9653,18.1719 Q481.231,18.4063 481.231,18.7813 Q481.231,19.1719 480.9653,19.4063 Q480.6997,19.6406 480.0903,19.6406 L478.3716,19.6406 Z " fill="#000000"/><text fill="#000000" font-family="sans-serif" font-size="14" font-style="italic" lengthAdjust="spacing" textLength="73.9307" x="497.9185" y="28.7969">DataSource</text><line style="stroke:#181818;stroke-width:0.5;" x1="323" x2="714.2676" y1="39" y2="39"/><line style="stroke:#181818;stroke-width:0.5;" x1="323" x2="714.2676" y1="47" y2="47"/><ellipse cx="333" cy="61.8105" fill="#84BE84" rx="3" ry="3" style="stroke:#038048;stroke-width:1.0;"/><text fill="#000000" font-family="sans-serif" font-size="14" lengthAdjust="spacing" textLength="367.2676" x="342" y="66.1074">initDataSource(hikariDataSource : HikariDataSource) : void</text></g><!--class Closeable--><g id="elem_Closeable"><rect codeLine="16" fill="#F1F1F1" height="66.6211" id="Closeable" rx="2.5" ry="2.5" style="stroke:#181818;stroke-width:0.5;" width="105.3584" x="1169" y="7"/><ellipse cx="1188.9935" cy="23" fill="#B4A7E5" rx="11" ry="11" style="stroke:#181818;stroke-width:1.0;"/><path d="M1189.9466,19.6406 L1189.9466,26.2969 L1191.6654,26.2969 Q1192.2748,26.2969 1192.5404,26.5313 Q1192.806,26.7656 1192.806,27.1563 Q1192.806,27.5313 1192.5404,27.7656 Q1192.2748,28 1191.6654,28 L1186.5248,28 Q1185.9154,28 1185.6498,27.7656 Q1185.3841,27.5313 1185.3841,27.1406 Q1185.3841,26.7656 1185.6498,26.5313 Q1185.9154,26.2969 1186.5248,26.2969 L1188.2435,26.2969 L1188.2435,19.6406 L1186.5248,19.6406 Q1185.9154,19.6406 1185.6498,19.4063 Q1185.3841,19.1719 1185.3841,18.7813 Q1185.3841,18.4063 1185.6498,18.1719 Q1185.9154,17.9375 1186.5248,17.9375 L1191.6654,17.9375 Q1192.2748,17.9375 1192.5404,18.1719 Q1192.806,18.4063 1192.806,18.7813 Q1192.806,19.1719 1192.5404,19.4063 Q1192.2748,19.6406 1191.6654,19.6406 L1189.9466,19.6406 Z " fill="#000000"/><text fill="#000000" font-family="sans-serif" font-size="14" font-style="italic" lengthAdjust="spacing" textLength="62.2617" x="1204.1032" y="28.7969">Closeable</text><line style="stroke:#181818;stroke-width:0.5;" x1="1170" x2="1273.3584" y1="39" y2="39"/><line style="stroke:#181818;stroke-width:0.5;" x1="1170" x2="1273.3584" y1="47" y2="47"/><ellipse cx="1180" cy="61.8105" fill="#84BE84" rx="3" ry="3" style="stroke:#038048;stroke-width:1.0;"/><text fill="#000000" font-family="sans-serif" font-size="14" lengthAdjust="spacing" textLength="79.3584" x="1189" y="66.1074">close() : void</text></g><!--class ViewController--><g id="elem_ViewController"><rect codeLine="19" fill="#F1F1F1" height="103.8633" id="ViewController" rx="2.5" ry="2.5" style="stroke:#181818;stroke-width:0.5;" width="393.2676" x="322" y="152.5"/><ellipse cx="468.8667" cy="168.5" fill="#B4A7E5" rx="11" ry="11" style="stroke:#181818;stroke-width:1.0;"/><path d="M469.8198,165.1406 L469.8198,171.7969 L471.5386,171.7969 Q472.1479,171.7969 472.4136,172.0313 Q472.6792,172.2656 472.6792,172.6563 Q472.6792,173.0313 472.4136,173.2656 Q472.1479,173.5 471.5386,173.5 L466.3979,173.5 Q465.7886,173.5 465.5229,173.2656 Q465.2573,173.0313 465.2573,172.6406 Q465.2573,172.2656 465.5229,172.0313 Q465.7886,171.7969 466.3979,171.7969 L468.1167,171.7969 L468.1167,165.1406 L466.3979,165.1406 Q465.7886,165.1406 465.5229,164.9063 Q465.2573,164.6719 465.2573,164.2813 Q465.2573,163.9063 465.5229,163.6719 Q465.7886,163.4375 466.3979,163.4375 L471.5386,163.4375 Q472.1479,163.4375 472.4136,163.6719 Q472.6792,163.9063 472.6792,164.2813 Q472.6792,164.6719 472.4136,164.9063 Q472.1479,165.1406 471.5386,165.1406 L469.8198,165.1406 Z " fill="#000000"/><text fill="#000000" font-family="sans-serif" font-size="14" font-style="italic" lengthAdjust="spacing" textLength="91.0342" x="489.3667" y="174.2969">ViewController</text><line style="stroke:#181818;stroke-width:0.5;" x1="323" x2="714.2676" y1="184.5" y2="184.5"/><line style="stroke:#181818;stroke-width:0.5;" x1="323" x2="714.2676" y1="192.5" y2="192.5"/><ellipse cx="333" cy="207.3105" fill="#84BE84" rx="3" ry="3" style="stroke:#038048;stroke-width:1.0;"/><text fill="#000000" font-family="sans-serif" font-size="14" lengthAdjust="spacing" textLength="79.3584" x="342" y="211.6074">close() : void</text><ellipse cx="333" cy="225.9316" fill="#84BE84" rx="3" ry="3" style="stroke:#038048;stroke-width:1.0;"/><text fill="#000000" font-family="sans-serif" font-size="14" lengthAdjust="spacing" textLength="367.2676" x="342" y="230.2285">initDataSource(hikariDataSource : HikariDataSource) : void</text><ellipse cx="333" cy="244.5527" fill="#84BE84" rx="3" ry="3" style="stroke:#038048;stroke-width:1.0;"/><text fill="#000000" font-family="sans-serif" font-size="14" lengthAdjust="spacing" textLength="272.3232" x="342" y="248.8496">setRepository(repository : Repository) : void</text></g><!--class Repository--><g id="elem_Repository"><rect codeLine="24" fill="#F1F1F1" height="141.1055" id="Repository" rx="2.5" ry="2.5" style="stroke:#181818;stroke-width:0.5;" width="211.1924" x="92" y="363"/><ellipse cx="144.8887" cy="379" fill="#B4A7E5" rx="11" ry="11" style="stroke:#181818;stroke-width:1.0;"/><path d="M145.8418,375.6406 L145.8418,382.2969 L147.5605,382.2969 Q148.1699,382.2969 148.4355,382.5313 Q148.7012,382.7656 148.7012,383.1563 Q148.7012,383.5313 148.4355,383.7656 Q148.1699,384 147.5605,384 L142.4199,384 Q141.8105,384 141.5449,383.7656 Q141.2793,383.5313 141.2793,383.1406 Q141.2793,382.7656 141.5449,382.5313 Q141.8105,382.2969 142.4199,382.2969 L144.1387,382.2969 L144.1387,375.6406 L142.4199,375.6406 Q141.8105,375.6406 141.5449,375.4063 Q141.2793,375.1719 141.2793,374.7813 Q141.2793,374.4063 141.5449,374.1719 Q141.8105,373.9375 142.4199,373.9375 L147.5605,373.9375 Q148.1699,373.9375 148.4355,374.1719 Q148.7012,374.4063 148.7012,374.7813 Q148.7012,375.1719 148.4355,375.4063 Q148.1699,375.6406 147.5605,375.6406 L145.8418,375.6406 Z " fill="#000000"/><text fill="#000000" font-family="sans-serif" font-size="14" font-style="italic" lengthAdjust="spacing" textLength="66.917" x="165.3887" y="384.7969">Repository</text><rect fill="#FFFFFF" height="17.9609" style="stroke:#181818;stroke-width:1.0;stroke-dasharray:2.0,2.0;" width="27.998" x="278.1943" y="360"/><text fill="#000000" font-family="sans-serif" font-size="12" font-style="italic" lengthAdjust="spacing" textLength="25.998" x="279.1943" y="373.9492">T, ID</text><line style="stroke:#181818;stroke-width:0.5;" x1="93" x2="302.1924" y1="395" y2="395"/><line style="stroke:#181818;stroke-width:0.5;" x1="93" x2="302.1924" y1="403" y2="403"/><ellipse cx="103" cy="417.8105" fill="#84BE84" rx="3" ry="3" style="stroke:#038048;stroke-width:1.0;"/><text fill="#000000" font-family="sans-serif" font-size="14" lengthAdjust="spacing" textLength="185.1924" x="112" y="422.1074">findById(id : ID) : Optional&lt;T&gt;</text><ellipse cx="103" cy="436.4316" fill="#84BE84" rx="3" ry="3" style="stroke:#038048;stroke-width:1.0;"/><text fill="#000000" font-family="sans-serif" font-size="14" lengthAdjust="spacing" textLength="130.7236" x="112" y="440.7285">findAll() : Iterable&lt;T&gt;</text><ellipse cx="103" cy="455.0527" fill="#84BE84" rx="3" ry="3" style="stroke:#038048;stroke-width:1.0;"/><text fill="#000000" font-family="sans-serif" font-size="14" lengthAdjust="spacing" textLength="112.7998" x="112" y="459.3496">save(entity : T) : T</text><ellipse cx="103" cy="473.6738" fill="#84BE84" rx="3" ry="3" style="stroke:#038048;stroke-width:1.0;"/><text fill="#000000" font-family="sans-serif" font-size="14" lengthAdjust="spacing" textLength="149.3994" x="112" y="477.9707">deleteById(id : ID) : void</text><ellipse cx="103" cy="492.2949" fill="#84BE84" rx="3" ry="3" style="stroke:#038048;stroke-width:1.0;"/><text fill="#000000" font-family="sans-serif" font-size="14" lengthAdjust="spacing" textLength="100.3789" x="112" y="496.5918">deleteAll() : void</text></g><!--class LoginViewController--><g id="elem_LoginViewController"><rect codeLine="32" fill="#F1F1F1" height="196.9688" id="LoginViewController" rx="2.5" ry="2.5" style="stroke:#181818;stroke-width:0.5;" width="393.2676" x="338" y="335"/><ellipse cx="467.7393" cy="351" fill="#ADD1B2" rx="11" ry="11" style="stroke:#181818;stroke-width:1.0;"/><path d="M470.5049,346.875 Q470.6611,346.6563 470.8486,346.5469 Q471.0361,346.4375 471.2549,346.4375 Q471.6299,346.4375 471.8643,346.7031 Q472.0986,346.9531 472.0986,347.5625 L472.0986,349.0156 Q472.0986,349.625 471.8643,349.8906 Q471.6299,350.1563 471.2549,350.1563 Q470.9111,350.1563 470.708,349.9531 Q470.5049,349.7656 470.3955,349.25 Q470.3486,348.8906 470.1611,348.7031 Q469.833,348.3281 469.2236,348.1094 Q468.6143,347.8906 467.9893,347.8906 Q467.2236,347.8906 466.583,348.2188 Q465.958,348.5469 465.458,349.2969 Q464.9736,350.0469 464.9736,351.0781 L464.9736,352.1719 Q464.9736,353.4063 465.8643,354.2344 Q466.7549,355.0469 468.3486,355.0469 Q469.2861,355.0469 469.9424,354.7969 Q470.333,354.6406 470.7549,354.2031 Q471.0205,353.9375 471.1611,353.8594 Q471.3174,353.7813 471.5205,353.7813 Q471.8486,353.7813 472.0986,354.0469 Q472.3643,354.2969 472.3643,354.6406 Q472.3643,354.9844 472.0205,355.3906 Q471.5205,355.9688 470.7236,356.2969 Q469.6455,356.75 468.3486,356.75 Q466.833,356.75 465.6299,356.125 Q464.6455,355.625 463.958,354.5625 Q463.2705,353.4844 463.2705,352.2031 L463.2705,351.0469 Q463.2705,349.7188 463.8799,348.5781 Q464.5049,347.4219 465.5986,346.8125 Q466.6924,346.1875 467.9268,346.1875 Q468.6611,346.1875 469.3018,346.3594 Q469.958,346.5156 470.5049,346.875 Z " fill="#000000"/><text fill="#000000" font-family="sans-serif" font-size="14" lengthAdjust="spacing" textLength="125.2891" x="488.2393" y="356.7969">LoginViewController</text><line style="stroke:#181818;stroke-width:0.5;" x1="339" x2="730.2676" y1="367" y2="367"/><rect fill="none" height="6" style="stroke:#C82930;stroke-width:1.0;" width="6" x="346" y="378.8105"/><text fill="#000000" font-family="sans-serif" font-size="14" lengthAdjust="spacing" textLength="172.7305" x="358" y="386.1074">tfPassword : PasswordField</text><rect fill="none" height="6" style="stroke:#C82930;stroke-width:1.0;" width="6" x="346" y="397.4316"/><text fill="#000000" font-family="sans-serif" font-size="14" lengthAdjust="spacing" textLength="141.5996" x="358" y="404.7285">tfUsername : TextField</text><rect fill="none" height="6" style="stroke:#C82930;stroke-width:1.0;" width="6" x="346" y="416.0527"/><text fill="#000000" font-family="sans-serif" font-size="14" lengthAdjust="spacing" textLength="228.7646" x="358" y="423.3496">hikariDataSource : HikariDataSource</text><line style="stroke:#181818;stroke-width:0.5;" x1="339" x2="730.2676" y1="430.8633" y2="430.8633"/><rect fill="#F24D5C" height="6" style="stroke:#C82930;stroke-width:1.0;" width="6" x="346" y="442.6738"/><text fill="#000000" font-family="sans-serif" font-size="14" lengthAdjust="spacing" textLength="151.7305" x="358" y="449.9707">onCancelClicked() : void</text><rect fill="#F24D5C" height="6" style="stroke:#C82930;stroke-width:1.0;" width="6" x="346" y="461.2949"/><text fill="#000000" font-family="sans-serif" font-size="14" lengthAdjust="spacing" textLength="128.3789" x="358" y="468.5918">onOKClicked() : void</text><rect fill="#F24D5C" height="6" style="stroke:#C82930;stroke-width:1.0;" width="6" x="346" y="479.916"/><text fill="#000000" font-family="sans-serif" font-size="14" lengthAdjust="spacing" textLength="156.4199" x="358" y="487.2129">launchApplication() : void</text><ellipse cx="349" cy="501.5371" fill="#84BE84" rx="3" ry="3" style="stroke:#038048;stroke-width:1.0;"/><text fill="#000000" font-family="sans-serif" font-size="14" lengthAdjust="spacing" textLength="79.3584" x="358" y="505.834">close() : void</text><ellipse cx="349" cy="520.1582" fill="#84BE84" rx="3" ry="3" style="stroke:#038048;stroke-width:1.0;"/><text fill="#000000" font-family="sans-serif" font-size="14" lengthAdjust="spacing" textLength="367.2676" x="358" y="524.4551">initDataSource(hikariDataSource : HikariDataSource) : void</text></g><!--class MainPageViewController--><g id="elem_MainPageViewController"><rect codeLine="43" fill="#F1F1F1" height="178.3477" id="MainPageViewController" rx="2.5" ry="2.5" style="stroke:#181818;stroke-width:0.5;" width="422.0811" x="776.5" y="344.5"/><ellipse cx="906.2529" cy="360.5" fill="#ADD1B2" rx="11" ry="11" style="stroke:#181818;stroke-width:1.0;"/><path d="M909.0186,356.375 Q909.1748,356.1563 909.3623,356.0469 Q909.5498,355.9375 909.7686,355.9375 Q910.1436,355.9375 910.3779,356.2031 Q910.6123,356.4531 910.6123,357.0625 L910.6123,358.5156 Q910.6123,359.125 910.3779,359.3906 Q910.1436,359.6563 909.7686,359.6563 Q909.4248,359.6563 909.2217,359.4531 Q909.0186,359.2656 908.9092,358.75 Q908.8623,358.3906 908.6748,358.2031 Q908.3467,357.8281 907.7373,357.6094 Q907.1279,357.3906 906.5029,357.3906 Q905.7373,357.3906 905.0967,357.7188 Q904.4717,358.0469 903.9717,358.7969 Q903.4873,359.5469 903.4873,360.5781 L903.4873,361.6719 Q903.4873,362.9063 904.3779,363.7344 Q905.2686,364.5469 906.8623,364.5469 Q907.7998,364.5469 908.4561,364.2969 Q908.8467,364.1406 909.2686,363.7031 Q909.5342,363.4375 909.6748,363.3594 Q909.8311,363.2813 910.0342,363.2813 Q910.3623,363.2813 910.6123,363.5469 Q910.8779,363.7969 910.8779,364.1406 Q910.8779,364.4844 910.5342,364.8906 Q910.0342,365.4688 909.2373,365.7969 Q908.1592,366.25 906.8623,366.25 Q905.3467,366.25 904.1436,365.625 Q903.1592,365.125 902.4717,364.0625 Q901.7842,362.9844 901.7842,361.7031 L901.7842,360.5469 Q901.7842,359.2188 902.3936,358.0781 Q903.0186,356.9219 904.1123,356.3125 Q905.2061,355.6875 906.4404,355.6875 Q907.1748,355.6875 907.8154,355.8594 Q908.4717,356.0156 909.0186,356.375 Z " fill="#000000"/><text fill="#000000" font-family="sans-serif" font-size="14" lengthAdjust="spacing" textLength="154.0752" x="926.7529" y="366.2969">MainPageViewController</text><line style="stroke:#181818;stroke-width:0.5;" x1="777.5" x2="1197.5811" y1="376.5" y2="376.5"/><rect fill="none" height="6" style="stroke:#C82930;stroke-width:1.0;" width="6" x="784.5" y="388.3105"/><text fill="#000000" font-family="sans-serif" font-size="14" lengthAdjust="spacing" textLength="228.7646" x="796.5" y="395.6074">hikariDataSource : HikariDataSource</text><line style="stroke:#181818;stroke-width:0.5;" x1="777.5" x2="1197.5811" y1="403.1211" y2="403.1211"/><ellipse cx="787.5" cy="417.9316" fill="#84BE84" rx="3" ry="3" style="stroke:#038048;stroke-width:1.0;"/><text fill="#000000" font-family="sans-serif" font-size="14" lengthAdjust="spacing" textLength="96.4756" x="796.5" y="422.2285">initialize() : void</text><ellipse cx="787.5" cy="436.5527" fill="#84BE84" rx="3" ry="3" style="stroke:#038048;stroke-width:1.0;"/><text fill="#000000" font-family="sans-serif" font-size="14" lengthAdjust="spacing" textLength="367.2676" x="796.5" y="440.8496">initDataSource(hikariDataSource : HikariDataSource) : void</text><ellipse cx="787.5" cy="455.1738" fill="#84BE84" rx="3" ry="3" style="stroke:#038048;stroke-width:1.0;"/><text fill="#000000" font-family="sans-serif" font-size="14" lengthAdjust="spacing" textLength="79.3584" x="796.5" y="459.4707">close() : void</text><ellipse cx="787.5" cy="473.7949" fill="#84BE84" rx="3" ry="3" style="stroke:#038048;stroke-width:1.0;"/><text fill="#000000" font-family="sans-serif" font-size="14" lengthAdjust="spacing" textLength="360.2813" x="796.5" y="478.0918">addObserver(observerExpense : ObserverExpense) : void</text><ellipse cx="787.5" cy="492.416" fill="#84BE84" rx="3" ry="3" style="stroke:#038048;stroke-width:1.0;"/><text fill="#000000" font-family="sans-serif" font-size="14" lengthAdjust="spacing" textLength="383.6055" x="796.5" y="496.7129">removeObserver(observerExpense : ObserverExpense) : void</text><ellipse cx="787.5" cy="511.0371" fill="#84BE84" rx="3" ry="3" style="stroke:#038048;stroke-width:1.0;"/><text fill="#000000" font-family="sans-serif" font-size="14" lengthAdjust="spacing" textLength="396.0811" x="796.5" y="515.334">notifyAllObservers(expenses : ObservableList&lt;Expense&gt;) : void</text></g><!--class ObservableExpense--><g id="elem_ObservableExpense"><rect codeLine="53" fill="#F1F1F1" height="103.8633" id="ObservableExpense" rx="2.5" ry="2.5" style="stroke:#181818;stroke-width:0.5;" width="422.0811" x="750.5" y="152.5"/><ellipse cx="894.2529" cy="168.5" fill="#B4A7E5" rx="11" ry="11" style="stroke:#181818;stroke-width:1.0;"/><path d="M895.2061,165.1406 L895.2061,171.7969 L896.9248,171.7969 Q897.5342,171.7969 897.7998,172.0313 Q898.0654,172.2656 898.0654,172.6563 Q898.0654,173.0313 897.7998,173.2656 Q897.5342,173.5 896.9248,173.5 L891.7842,173.5 Q891.1748,173.5 890.9092,173.2656 Q890.6436,173.0313 890.6436,172.6406 Q890.6436,172.2656 890.9092,172.0313 Q891.1748,171.7969 891.7842,171.7969 L893.5029,171.7969 L893.5029,165.1406 L891.7842,165.1406 Q891.1748,165.1406 890.9092,164.9063 Q890.6436,164.6719 890.6436,164.2813 Q890.6436,163.9063 890.9092,163.6719 Q891.1748,163.4375 891.7842,163.4375 L896.9248,163.4375 Q897.5342,163.4375 897.7998,163.6719 Q898.0654,163.9063 898.0654,164.2813 Q898.0654,164.6719 897.7998,164.9063 Q897.5342,165.1406 896.9248,165.1406 L895.2061,165.1406 Z " fill="#000000"/><text fill="#000000" font-family="sans-serif" font-size="14" font-style="italic" lengthAdjust="spacing" textLength="126.0752" x="914.7529" y="174.2969">ObservableExpense</text><line style="stroke:#181818;stroke-width:0.5;" x1="751.5" x2="1171.5811" y1="184.5" y2="184.5"/><line style="stroke:#181818;stroke-width:0.5;" x1="751.5" x2="1171.5811" y1="192.5" y2="192.5"/><ellipse cx="761.5" cy="207.3105" fill="#84BE84" rx="3" ry="3" style="stroke:#038048;stroke-width:1.0;"/><text fill="#000000" font-family="sans-serif" font-size="14" lengthAdjust="spacing" textLength="360.2813" x="770.5" y="211.6074">addObserver(observerExpense : ObserverExpense) : void</text><ellipse cx="761.5" cy="225.9316" fill="#84BE84" rx="3" ry="3" style="stroke:#038048;stroke-width:1.0;"/><text fill="#000000" font-family="sans-serif" font-size="14" lengthAdjust="spacing" textLength="383.6055" x="770.5" y="230.2285">removeObserver(observerExpense : ObserverExpense) : void</text><ellipse cx="761.5" cy="244.5527" fill="#84BE84" rx="3" ry="3" style="stroke:#038048;stroke-width:1.0;"/><text fill="#000000" font-family="sans-serif" font-size="14" lengthAdjust="spacing" textLength="396.0811" x="770.5" y="248.8496">notifyAllObservers(expenses : ObservableList&lt;Expense&gt;) : void</text></g><!--class ObserverExpense--><g id="elem_ObserverExpense"><rect codeLine="58" fill="#F1F1F1" height="66.6211" id="ObserverExpense" rx="2.5" ry="2.5" style="stroke:#181818;stroke-width:0.5;" width="378.543" x="1208" y="171"/><ellipse cx="1336.9941" cy="187" fill="#B4A7E5" rx="11" ry="11" style="stroke:#181818;stroke-width:1.0;"/><path d="M1337.9473,183.6406 L1337.9473,190.2969 L1339.666,190.2969 Q1340.2754,190.2969 1340.541,190.5313 Q1340.8066,190.7656 1340.8066,191.1563 Q1340.8066,191.5313 1340.541,191.7656 Q1340.2754,192 1339.666,192 L1334.5254,192 Q1333.916,192 1333.6504,191.7656 Q1333.3848,191.5313 1333.3848,191.1406 Q1333.3848,190.7656 1333.6504,190.5313 Q1333.916,190.2969 1334.5254,190.2969 L1336.2441,190.2969 L1336.2441,183.6406 L1334.5254,183.6406 Q1333.916,183.6406 1333.6504,183.4063 Q1333.3848,183.1719 1333.3848,182.7813 Q1333.3848,182.4063 1333.6504,182.1719 Q1333.916,181.9375 1334.5254,181.9375 L1339.666,181.9375 Q1340.2754,181.9375 1340.541,182.1719 Q1340.8066,182.4063 1340.8066,182.7813 Q1340.8066,183.1719 1340.541,183.4063 Q1340.2754,183.6406 1339.666,183.6406 L1337.9473,183.6406 Z " fill="#000000"/><text fill="#000000" font-family="sans-serif" font-size="14" font-style="italic" lengthAdjust="spacing" textLength="112.0547" x="1357.4941" y="192.7969">ObserverExpense</text><line style="stroke:#181818;stroke-width:0.5;" x1="1209" x2="1585.543" y1="203" y2="203"/><line style="stroke:#181818;stroke-width:0.5;" x1="1209" x2="1585.543" y1="211" y2="211"/><ellipse cx="1219" cy="225.8105" fill="#84BE84" rx="3" ry="3" style="stroke:#038048;stroke-width:1.0;"/><text fill="#000000" font-family="sans-serif" font-size="14" lengthAdjust="spacing" textLength="352.543" x="1228" y="230.1074">update(newExpenses : ObservableList&lt;Expense&gt;) : void</text></g><!--class DataToCharts--><g id="elem_DataToCharts"><rect codeLine="62" fill="#F1F1F1" height="66.6211" id="DataToCharts" rx="2.5" ry="2.5" style="stroke:#181818;stroke-width:0.5;" width="397.1914" x="1694" y="400"/><ellipse cx="1844.7734" cy="416" fill="#B4A7E5" rx="11" ry="11" style="stroke:#181818;stroke-width:1.0;"/><path d="M1845.7266,412.6406 L1845.7266,419.2969 L1847.4453,419.2969 Q1848.0547,419.2969 1848.3203,419.5313 Q1848.5859,419.7656 1848.5859,420.1563 Q1848.5859,420.5313 1848.3203,420.7656 Q1848.0547,421 1847.4453,421 L1842.3047,421 Q1841.6953,421 1841.4297,420.7656 Q1841.1641,420.5313 1841.1641,420.1406 Q1841.1641,419.7656 1841.4297,419.5313 Q1841.6953,419.2969 1842.3047,419.2969 L1844.0234,419.2969 L1844.0234,412.6406 L1842.3047,412.6406 Q1841.6953,412.6406 1841.4297,412.4063 Q1841.1641,412.1719 1841.1641,411.7813 Q1841.1641,411.4063 1841.4297,411.1719 Q1841.6953,410.9375 1842.3047,410.9375 L1847.4453,410.9375 Q1848.0547,410.9375 1848.3203,411.1719 Q1848.5859,411.4063 1848.5859,411.7813 Q1848.5859,412.1719 1848.3203,412.4063 Q1848.0547,412.6406 1847.4453,412.6406 L1845.7266,412.6406 Z " fill="#000000"/><text fill="#000000" font-family="sans-serif" font-size="14" font-style="italic" lengthAdjust="spacing" textLength="87.1445" x="1865.2734" y="421.7969">DataToCharts</text><line style="stroke:#181818;stroke-width:0.5;" x1="1695" x2="2090.1914" y1="432" y2="432"/><line style="stroke:#181818;stroke-width:0.5;" x1="1695" x2="2090.1914" y1="440" y2="440"/><ellipse cx="1705" cy="454.8105" fill="#84BE84" rx="3" ry="3" style="stroke:#038048;stroke-width:1.0;"/><text fill="#000000" font-family="sans-serif" font-size="14" lengthAdjust="spacing" textLength="371.1914" x="1714" y="459.1074">initCharts(expensesData : ObservableList&lt;Expense&gt;) : void</text></g><!--class ChartController--><g id="elem_ChartController"><rect codeLine="66" fill="#F1F1F1" height="122.4844" id="ChartController" rx="2.5" ry="2.5" style="stroke:#181818;stroke-width:0.5;" width="397.1914" x="1199" y="629.5"/><ellipse cx="1345.8838" cy="645.5" fill="#A9DCDF" rx="11" ry="11" style="stroke:#181818;stroke-width:1.0;"/><path d="M1348.0713,647.2656 L1343.9307,647.2656 L1343.5088,648.2969 L1343.9307,648.2969 Q1344.54,648.2969 1344.8057,648.5313 Q1345.0713,648.7656 1345.0713,649.1563 Q1345.0713,649.5313 1344.8057,649.7656 Q1344.54,650 1343.9307,650 L1341.6338,650 Q1341.0244,650 1340.7744,649.7656 Q1340.5088,649.5313 1340.5088,649.1406 Q1340.5088,648.7656 1340.79,648.5313 Q1341.0557,648.2813 1341.6807,648.2969 L1344.3525,641.6406 L1343.2432,641.6406 Q1342.6338,641.6406 1342.3682,641.4063 Q1342.1025,641.1719 1342.1025,640.7813 Q1342.1025,640.4063 1342.3682,640.1719 Q1342.6338,639.9375 1343.2432,639.9375 L1346.915,639.9375 L1350.3057,648.2969 Q1350.8994,648.2969 1351.0869,648.4375 Q1351.4775,648.7031 1351.4775,649.1563 Q1351.4775,649.5313 1351.2119,649.7656 Q1350.9619,650 1350.3525,650 L1348.0557,650 Q1347.4463,650 1347.1807,649.7656 Q1346.915,649.5313 1346.915,649.1406 Q1346.915,648.7656 1347.1807,648.5313 Q1347.4463,648.2969 1348.0557,648.2969 L1348.4775,648.2969 L1348.0713,647.2656 Z M1347.3525,645.5625 L1345.9932,642.1875 L1344.6182,645.5625 L1347.3525,645.5625 Z " fill="#000000"/><text fill="#000000" font-family="sans-serif" font-size="14" font-style="italic" lengthAdjust="spacing" textLength="94.9238" x="1366.3838" y="651.2969">ChartController</text><line style="stroke:#181818;stroke-width:0.5;" x1="1200" x2="1595.1914" y1="661.5" y2="661.5"/><line style="stroke:#181818;stroke-width:0.5;" x1="1200" x2="1595.1914" y1="669.5" y2="669.5"/><ellipse cx="1210" cy="684.3105" fill="#84BE84" rx="3" ry="3" style="stroke:#038048;stroke-width:1.0;"/><text fill="#000000" font-family="sans-serif" font-size="14" lengthAdjust="spacing" textLength="371.1914" x="1219" y="688.6074">initCharts(expensesData : ObservableList&lt;Expense&gt;) : void</text><ellipse cx="1210" cy="702.9316" fill="#84BE84" rx="3" ry="3" style="stroke:#038048;stroke-width:1.0;"/><text fill="#000000" font-family="sans-serif" font-size="14" lengthAdjust="spacing" textLength="354.8809" x="1219" y="707.2285">update(expensesData : ObservableList&lt;Expense&gt;) : void</text><ellipse cx="1210" cy="721.5527" fill="#84BE84" rx="3" ry="3" style="stroke:#038048;stroke-width:1.0;"/><text fill="#000000" font-family="sans-serif" font-size="14" lengthAdjust="spacing" textLength="273.9092" x="1219" y="725.8496">showAboutInformation(contentText : String )</text><ellipse cx="1210" cy="740.1738" fill="#84BE84" rx="3" ry="3" style="stroke:#038048;stroke-width:1.0;"/><text fill="#000000" font-family="sans-serif" font-size="14" lengthAdjust="spacing" textLength="79.3584" x="1219" y="744.4707">close() : void</text></g><!--class ExpenseAreaChartController--><g id="elem_ExpenseAreaChartController"><rect codeLine="72" fill="#F1F1F1" height="103.8633" id="ExpenseAreaChartController" rx="2.5" ry="2.5" style="stroke:#181818;stroke-width:0.5;" width="397.1914" x="1182" y="877"/><ellipse cx="1286.8564" cy="893" fill="#ADD1B2" rx="11" ry="11" style="stroke:#181818;stroke-width:1.0;"/><path d="M1289.6221,888.875 Q1289.7783,888.6563 1289.9658,888.5469 Q1290.1533,888.4375 1290.3721,888.4375 Q1290.7471,888.4375 1290.9814,888.7031 Q1291.2158,888.9531 1291.2158,889.5625 L1291.2158,891.0156 Q1291.2158,891.625 1290.9814,891.8906 Q1290.7471,892.1563 1290.3721,892.1563 Q1290.0283,892.1563 1289.8252,891.9531 Q1289.6221,891.7656 1289.5127,891.25 Q1289.4658,890.8906 1289.2783,890.7031 Q1288.9502,890.3281 1288.3408,890.1094 Q1287.7314,889.8906 1287.1064,889.8906 Q1286.3408,889.8906 1285.7002,890.2188 Q1285.0752,890.5469 1284.5752,891.2969 Q1284.0908,892.0469 1284.0908,893.0781 L1284.0908,894.1719 Q1284.0908,895.4063 1284.9814,896.2344 Q1285.8721,897.0469 1287.4658,897.0469 Q1288.4033,897.0469 1289.0596,896.7969 Q1289.4502,896.6406 1289.8721,896.2031 Q1290.1377,895.9375 1290.2783,895.8594 Q1290.4346,895.7813 1290.6377,895.7813 Q1290.9658,895.7813 1291.2158,896.0469 Q1291.4814,896.2969 1291.4814,896.6406 Q1291.4814,896.9844 1291.1377,897.3906 Q1290.6377,897.9688 1289.8408,898.2969 Q1288.7627,898.75 1287.4658,898.75 Q1285.9502,898.75 1284.7471,898.125 Q1283.7627,897.625 1283.0752,896.5625 Q1282.3877,895.4844 1282.3877,894.2031 L1282.3877,893.0469 Q1282.3877,891.7188 1282.9971,890.5781 Q1283.6221,889.4219 1284.7158,888.8125 Q1285.8096,888.1875 1287.0439,888.1875 Q1287.7783,888.1875 1288.4189,888.3594 Q1289.0752,888.5156 1289.6221,888.875 Z " fill="#000000"/><text fill="#000000" font-family="sans-serif" font-size="14" lengthAdjust="spacing" textLength="178.9785" x="1307.3564" y="898.7969">ExpenseAreaChartController</text><line style="stroke:#181818;stroke-width:0.5;" x1="1183" x2="1578.1914" y1="909" y2="909"/><line style="stroke:#181818;stroke-width:0.5;" x1="1183" x2="1578.1914" y1="917" y2="917"/><ellipse cx="1193" cy="931.8105" fill="#84BE84" rx="3" ry="3" style="stroke:#038048;stroke-width:1.0;"/><text fill="#000000" font-family="sans-serif" font-size="14" lengthAdjust="spacing" textLength="79.3584" x="1202" y="936.1074">close() : void</text><ellipse cx="1193" cy="950.4316" fill="#84BE84" rx="3" ry="3" style="stroke:#038048;stroke-width:1.0;"/><text fill="#000000" font-family="sans-serif" font-size="14" lengthAdjust="spacing" textLength="371.1914" x="1202" y="954.7285">initCharts(expensesData : ObservableList&lt;Expense&gt;) : void</text><ellipse cx="1193" cy="969.0527" fill="#84BE84" rx="3" ry="3" style="stroke:#038048;stroke-width:1.0;"/><text fill="#000000" font-family="sans-serif" font-size="14" lengthAdjust="spacing" textLength="354.8809" x="1202" y="973.3496">update(expensesData : ObservableList&lt;Expense&gt;) : void</text></g><!--class ExpensePieChartController--><g id="elem_ExpensePieChartController"><rect codeLine="77" fill="#F1F1F1" height="103.8633" id="ExpensePieChartController" rx="2.5" ry="2.5" style="stroke:#181818;stroke-width:0.5;" width="397.1914" x="1614" y="877"/><ellipse cx="1723.5254" cy="893" fill="#ADD1B2" rx="11" ry="11" style="stroke:#181818;stroke-width:1.0;"/><path d="M1726.291,888.875 Q1726.4473,888.6563 1726.6348,888.5469 Q1726.8223,888.4375 1727.041,888.4375 Q1727.416,888.4375 1727.6504,888.7031 Q1727.8848,888.9531 1727.8848,889.5625 L1727.8848,891.0156 Q1727.8848,891.625 1727.6504,891.8906 Q1727.416,892.1563 1727.041,892.1563 Q1726.6973,892.1563 1726.4941,891.9531 Q1726.291,891.7656 1726.1816,891.25 Q1726.1348,890.8906 1725.9473,890.7031 Q1725.6191,890.3281 1725.0098,890.1094 Q1724.4004,889.8906 1723.7754,889.8906 Q1723.0098,889.8906 1722.3691,890.2188 Q1721.7441,890.5469 1721.2441,891.2969 Q1720.7598,892.0469 1720.7598,893.0781 L1720.7598,894.1719 Q1720.7598,895.4063 1721.6504,896.2344 Q1722.541,897.0469 1724.1348,897.0469 Q1725.0723,897.0469 1725.7285,896.7969 Q1726.1191,896.6406 1726.541,896.2031 Q1726.8066,895.9375 1726.9473,895.8594 Q1727.1035,895.7813 1727.3066,895.7813 Q1727.6348,895.7813 1727.8848,896.0469 Q1728.1504,896.2969 1728.1504,896.6406 Q1728.1504,896.9844 1727.8066,897.3906 Q1727.3066,897.9688 1726.5098,898.2969 Q1725.4316,898.75 1724.1348,898.75 Q1722.6191,898.75 1721.416,898.125 Q1720.4316,897.625 1719.7441,896.5625 Q1719.0566,895.4844 1719.0566,894.2031 L1719.0566,893.0469 Q1719.0566,891.7188 1719.666,890.5781 Q1720.291,889.4219 1721.3848,888.8125 Q1722.4785,888.1875 1723.7129,888.1875 Q1724.4473,888.1875 1725.0879,888.3594 Q1725.7441,888.5156 1726.291,888.875 Z " fill="#000000"/><text fill="#000000" font-family="sans-serif" font-size="14" lengthAdjust="spacing" textLength="169.6406" x="1744.0254" y="898.7969">ExpensePieChartController</text><line style="stroke:#181818;stroke-width:0.5;" x1="1615" x2="2010.1914" y1="909" y2="909"/><line style="stroke:#181818;stroke-width:0.5;" x1="1615" x2="2010.1914" y1="917" y2="917"/><ellipse cx="1625" cy="931.8105" fill="#84BE84" rx="3" ry="3" style="stroke:#038048;stroke-width:1.0;"/><text fill="#000000" font-family="sans-serif" font-size="14" lengthAdjust="spacing" textLength="79.3584" x="1634" y="936.1074">close() : void</text><ellipse cx="1625" cy="950.4316" fill="#84BE84" rx="3" ry="3" style="stroke:#038048;stroke-width:1.0;"/><text fill="#000000" font-family="sans-serif" font-size="14" lengthAdjust="spacing" textLength="371.1914" x="1634" y="954.7285">initCharts(expensesData : ObservableList&lt;Expense&gt;) : void</text><ellipse cx="1625" cy="969.0527" fill="#84BE84" rx="3" ry="3" style="stroke:#038048;stroke-width:1.0;"/><text fill="#000000" font-family="sans-serif" font-size="14" lengthAdjust="spacing" textLength="354.8809" x="1634" y="973.3496">update(expensesData : ObservableList&lt;Expense&gt;) : void</text></g><!--class ExpenseRepository--><g id="elem_ExpenseRepository"><rect codeLine="83" fill="#F1F1F1" height="196.9688" id="ExpenseRepository" rx="2.5" ry="2.5" style="stroke:#181818;stroke-width:0.5;" width="385.4883" x="403" y="592"/><ellipse cx="530.7944" cy="608" fill="#ADD1B2" rx="11" ry="11" style="stroke:#181818;stroke-width:1.0;"/><path d="M533.5601,603.875 Q533.7163,603.6563 533.9038,603.5469 Q534.0913,603.4375 534.3101,603.4375 Q534.6851,603.4375 534.9194,603.7031 Q535.1538,603.9531 535.1538,604.5625 L535.1538,606.0156 Q535.1538,606.625 534.9194,606.8906 Q534.6851,607.1563 534.3101,607.1563 Q533.9663,607.1563 533.7632,606.9531 Q533.5601,606.7656 533.4507,606.25 Q533.4038,605.8906 533.2163,605.7031 Q532.8882,605.3281 532.2788,605.1094 Q531.6694,604.8906 531.0444,604.8906 Q530.2788,604.8906 529.6382,605.2188 Q529.0132,605.5469 528.5132,606.2969 Q528.0288,607.0469 528.0288,608.0781 L528.0288,609.1719 Q528.0288,610.4063 528.9194,611.2344 Q529.8101,612.0469 531.4038,612.0469 Q532.3413,612.0469 532.9976,611.7969 Q533.3882,611.6406 533.8101,611.2031 Q534.0757,610.9375 534.2163,610.8594 Q534.3726,610.7813 534.5757,610.7813 Q534.9038,610.7813 535.1538,611.0469 Q535.4194,611.2969 535.4194,611.6406 Q535.4194,611.9844 535.0757,612.3906 Q534.5757,612.9688 533.7788,613.2969 Q532.7007,613.75 531.4038,613.75 Q529.8882,613.75 528.6851,613.125 Q527.7007,612.625 527.0132,611.5625 Q526.3257,610.4844 526.3257,609.2031 L526.3257,608.0469 Q526.3257,606.7188 526.9351,605.5781 Q527.5601,604.4219 528.6538,603.8125 Q529.7476,603.1875 530.9819,603.1875 Q531.7163,603.1875 532.3569,603.3594 Q533.0132,603.5156 533.5601,603.875 Z " fill="#000000"/><text fill="#000000" font-family="sans-serif" font-size="14" lengthAdjust="spacing" textLength="121.3994" x="551.2944" y="613.7969">ExpenseRepository</text><line style="stroke:#181818;stroke-width:0.5;" x1="404" x2="787.4883" y1="624" y2="624"/><rect fill="none" height="6" style="stroke:#C82930;stroke-width:1.0;" width="6" x="411" y="635.8105"/><text fill="#000000" font-family="sans-serif" font-size="14" lengthAdjust="spacing" textLength="84.8271" x="423" y="643.1074">LOG : Logger</text><rect fill="none" height="6" style="stroke:#C82930;stroke-width:1.0;" width="6" x="411" y="654.4316"/><text fill="#000000" font-family="sans-serif" font-size="14" lengthAdjust="spacing" textLength="228.7646" x="423" y="661.7285">hikariDataSource : HikariDataSource</text><line style="stroke:#181818;stroke-width:0.5;" x1="404" x2="787.4883" y1="669.2422" y2="669.2422"/><ellipse cx="414" cy="684.0527" fill="#84BE84" rx="3" ry="3" style="stroke:#038048;stroke-width:1.0;"/><text fill="#000000" font-family="sans-serif" font-size="14" lengthAdjust="spacing" textLength="359.4883" x="423" y="688.3496">ExpenseRepository(hikariDataSource : HikariDataSource)</text><ellipse cx="414" cy="702.6738" fill="#84BE84" rx="3" ry="3" style="stroke:#038048;stroke-width:1.0;"/><text fill="#000000" font-family="sans-serif" font-size="14" lengthAdjust="spacing" textLength="248.2676" x="423" y="706.9707">findById(id : Long) : Optional&lt;Expense&gt;</text><ellipse cx="414" cy="721.2949" fill="#84BE84" rx="3" ry="3" style="stroke:#038048;stroke-width:1.0;"/><text fill="#000000" font-family="sans-serif" font-size="14" lengthAdjust="spacing" textLength="176.6543" x="423" y="725.5918">findAll() : Iterable&lt;Expense&gt;</text><ellipse cx="414" cy="739.916" fill="#84BE84" rx="3" ry="3" style="stroke:#038048;stroke-width:1.0;"/><text fill="#000000" font-family="sans-serif" font-size="14" lengthAdjust="spacing" textLength="204.6611" x="423" y="744.2129">save(entity : Expense) : Expense</text><ellipse cx="414" cy="758.5371" fill="#84BE84" rx="3" ry="3" style="stroke:#038048;stroke-width:1.0;"/><text fill="#000000" font-family="sans-serif" font-size="14" lengthAdjust="spacing" textLength="166.5439" x="423" y="762.834">deleteById(id : Long) : void</text><ellipse cx="414" cy="777.1582" fill="#84BE84" rx="3" ry="3" style="stroke:#038048;stroke-width:1.0;"/><text fill="#000000" font-family="sans-serif" font-size="14" lengthAdjust="spacing" textLength="100.3789" x="423" y="781.4551">deleteAll() : void</text></g><!--class Expense--><g id="elem_Expense"><rect codeLine="94" fill="#F1F1F1" height="159.7266" id="Expense" rx="2.5" ry="2.5" style="stroke:#181818;stroke-width:0.5;" width="215.0889" x="900" y="849"/><ellipse cx="976.0532" cy="865" fill="#ADD1B2" rx="11" ry="11" style="stroke:#181818;stroke-width:1.0;"/><path d="M978.8188,860.875 Q978.9751,860.6563 979.1626,860.5469 Q979.3501,860.4375 979.5688,860.4375 Q979.9438,860.4375 980.1782,860.7031 Q980.4126,860.9531 980.4126,861.5625 L980.4126,863.0156 Q980.4126,863.625 980.1782,863.8906 Q979.9438,864.1563 979.5688,864.1563 Q979.2251,864.1563 979.022,863.9531 Q978.8188,863.7656 978.7095,863.25 Q978.6626,862.8906 978.4751,862.7031 Q978.147,862.3281 977.5376,862.1094 Q976.9282,861.8906 976.3032,861.8906 Q975.5376,861.8906 974.897,862.2188 Q974.272,862.5469 973.772,863.2969 Q973.2876,864.0469 973.2876,865.0781 L973.2876,866.1719 Q973.2876,867.4063 974.1782,868.2344 Q975.0688,869.0469 976.6626,869.0469 Q977.6001,869.0469 978.2563,868.7969 Q978.647,868.6406 979.0688,868.2031 Q979.3345,867.9375 979.4751,867.8594 Q979.6313,867.7813 979.8345,867.7813 Q980.1626,867.7813 980.4126,868.0469 Q980.6782,868.2969 980.6782,868.6406 Q980.6782,868.9844 980.3345,869.3906 Q979.8345,869.9688 979.0376,870.2969 Q977.9595,870.75 976.6626,870.75 Q975.147,870.75 973.9438,870.125 Q972.9595,869.625 972.272,868.5625 Q971.5845,867.4844 971.5845,866.2031 L971.5845,865.0469 Q971.5845,863.7188 972.1938,862.5781 Q972.8188,861.4219 973.9126,860.8125 Q975.0063,860.1875 976.2407,860.1875 Q976.9751,860.1875 977.6157,860.3594 Q978.272,860.5156 978.8188,860.875 Z " fill="#000000"/><text fill="#000000" font-family="sans-serif" font-size="14" lengthAdjust="spacing" textLength="54.4824" x="996.5532" y="870.7969">Expense</text><line style="stroke:#181818;stroke-width:0.5;" x1="901" x2="1114.0889" y1="881" y2="881"/><rect fill="none" height="6" style="stroke:#C82930;stroke-width:1.0;" width="6" x="908" y="892.8105"/><text fill="#000000" font-family="sans-serif" font-size="14" lengthAdjust="spacing" textLength="53.71" x="920" y="900.1074">id : Long</text><rect fill="none" height="6" style="stroke:#C82930;stroke-width:1.0;" width="6" x="908" y="911.4316"/><text fill="#000000" font-family="sans-serif" font-size="14" lengthAdjust="spacing" textLength="102.7305" x="920" y="918.7285">amount : Double</text><rect fill="none" height="6" style="stroke:#C82930;stroke-width:1.0;" width="6" x="908" y="930.0527"/><text fill="#000000" font-family="sans-serif" font-size="14" lengthAdjust="spacing" textLength="101.958" x="920" y="937.3496">date : LocalDate</text><rect fill="none" height="6" style="stroke:#C82930;stroke-width:1.0;" width="6" x="908" y="948.6738"/><text fill="#000000" font-family="sans-serif" font-size="14" lengthAdjust="spacing" textLength="115.9443" x="920" y="955.9707">description : String</text><line style="stroke:#181818;stroke-width:0.5;" x1="901" x2="1114.0889" y1="963.4844" y2="963.4844"/><ellipse cx="911" cy="978.2949" fill="#84BE84" rx="3" ry="3" style="stroke:#038048;stroke-width:1.0;"/><text fill="#000000" font-family="sans-serif" font-size="14" lengthAdjust="spacing" textLength="185.1924" x="920" y="982.5918">getAllExpenseTypes() : String</text><ellipse cx="911" cy="996.916" fill="#84BE84" rx="3" ry="3" style="stroke:#038048;stroke-width:1.0;"/><text fill="#000000" font-family="sans-serif" font-size="14" lengthAdjust="spacing" textLength="189.0889" x="920" y="1001.2129">getAllPayingMethods() : String</text></g><!--class ExpenseType--><g id="elem_ExpenseType"><rect codeLine="103" fill="#F1F1F1" height="159.7266" id="ExpenseType" rx="2.5" ry="2.5" style="stroke:#181818;stroke-width:0.5;" width="117.6064" x="870.5" y="1069"/><ellipse cx="885.5" cy="1085" fill="#EB937F" rx="11" ry="11" style="stroke:#181818;stroke-width:1.0;"/><path d="M884.3594,1085.7969 L884.3594,1088.2969 L888.6875,1088.2969 L888.6875,1087.375 Q888.6875,1086.7656 888.9219,1086.5 Q889.1719,1086.2344 889.5469,1086.2344 Q889.9219,1086.2344 890.1563,1086.5 Q890.3906,1086.7656 890.3906,1087.375 L890.3906,1090 L882.3906,1090 Q881.7656,1090 881.5,1089.7656 Q881.25,1089.5313 881.25,1089.1406 Q881.25,1088.7656 881.5156,1088.5313 Q881.7813,1088.2969 882.3906,1088.2969 L882.6563,1088.2969 L882.6563,1081.6406 L882.3906,1081.6406 Q881.7656,1081.6406 881.5,1081.4063 Q881.25,1081.1719 881.25,1080.7813 Q881.25,1080.4063 881.5,1080.1719 Q881.7656,1079.9375 882.3906,1079.9375 L890.0156,1079.9375 L890.0156,1082.5313 Q890.0156,1083.1406 889.7813,1083.4063 Q889.5625,1083.6563 889.1719,1083.6563 Q888.7969,1083.6563 888.5625,1083.4063 Q888.3281,1083.1406 888.3281,1082.5313 L888.3281,1081.6406 L884.3594,1081.6406 L884.3594,1084.0938 L885.8438,1084.0938 Q885.8438,1083.4375 885.9688,1083.25 Q886.2344,1082.8438 886.7031,1082.8438 Q887.0781,1082.8438 887.3125,1083.1094 Q887.5469,1083.3594 887.5469,1083.9688 L887.5469,1085.9375 Q887.5469,1086.4844 887.4219,1086.6719 Q887.1563,1087.0625 886.7031,1087.0625 Q886.2344,1087.0625 885.9688,1086.6563 Q885.8438,1086.4688 885.8438,1085.7969 L884.3594,1085.7969 Z " fill="#000000"/><text fill="#000000" font-family="sans-serif" font-size="14" lengthAdjust="spacing" textLength="85.6064" x="899.5" y="1090.7969">ExpenseType</text><line style="stroke:#181818;stroke-width:0.5;" x1="871.5" x2="987.1064" y1="1101" y2="1101"/><text fill="#000000" font-family="sans-serif" font-size="14" lengthAdjust="spacing" textLength="88.71" x="876.5" y="1120.1074">Miscellaneous</text><text fill="#000000" font-family="sans-serif" font-size="14" lengthAdjust="spacing" textLength="77.041" x="876.5" y="1138.7285">Subscription</text><text fill="#000000" font-family="sans-serif" font-size="14" lengthAdjust="spacing" textLength="62.2617" x="876.5" y="1157.3496">EatingOut</text><text fill="#000000" font-family="sans-serif" font-size="14" lengthAdjust="spacing" textLength="60.6826" x="876.5" y="1175.9707">Groceries</text><text fill="#000000" font-family="sans-serif" font-size="14" lengthAdjust="spacing" textLength="29.5723" x="876.5" y="1194.5918">Debt</text><text fill="#000000" font-family="sans-serif" font-size="14" lengthAdjust="spacing" textLength="22.5586" x="876.5" y="1213.2129">Car</text><line style="stroke:#181818;stroke-width:0.5;" x1="871.5" x2="987.1064" y1="1220.7266" y2="1220.7266"/></g><!--class PayingMethod--><g id="elem_PayingMethod"><rect codeLine="111" fill="#F1F1F1" height="85.2422" id="PayingMethod" rx="2.5" ry="2.5" style="stroke:#181818;stroke-width:0.5;" width="121.5029" x="1023.5" y="1106.5"/><ellipse cx="1038.5" cy="1122.5" fill="#EB937F" rx="11" ry="11" style="stroke:#181818;stroke-width:1.0;"/><path d="M1037.3594,1123.2969 L1037.3594,1125.7969 L1041.6875,1125.7969 L1041.6875,1124.875 Q1041.6875,1124.2656 1041.9219,1124 Q1042.1719,1123.7344 1042.5469,1123.7344 Q1042.9219,1123.7344 1043.1563,1124 Q1043.3906,1124.2656 1043.3906,1124.875 L1043.3906,1127.5 L1035.3906,1127.5 Q1034.7656,1127.5 1034.5,1127.2656 Q1034.25,1127.0313 1034.25,1126.6406 Q1034.25,1126.2656 1034.5156,1126.0313 Q1034.7813,1125.7969 1035.3906,1125.7969 L1035.6563,1125.7969 L1035.6563,1119.1406 L1035.3906,1119.1406 Q1034.7656,1119.1406 1034.5,1118.9063 Q1034.25,1118.6719 1034.25,1118.2813 Q1034.25,1117.9063 1034.5,1117.6719 Q1034.7656,1117.4375 1035.3906,1117.4375 L1043.0156,1117.4375 L1043.0156,1120.0313 Q1043.0156,1120.6406 1042.7813,1120.9063 Q1042.5625,1121.1563 1042.1719,1121.1563 Q1041.7969,1121.1563 1041.5625,1120.9063 Q1041.3281,1120.6406 1041.3281,1120.0313 L1041.3281,1119.1406 L1037.3594,1119.1406 L1037.3594,1121.5938 L1038.8438,1121.5938 Q1038.8438,1120.9375 1038.9688,1120.75 Q1039.2344,1120.3438 1039.7031,1120.3438 Q1040.0781,1120.3438 1040.3125,1120.6094 Q1040.5469,1120.8594 1040.5469,1121.4688 L1040.5469,1123.4375 Q1040.5469,1123.9844 1040.4219,1124.1719 Q1040.1563,1124.5625 1039.7031,1124.5625 Q1039.2344,1124.5625 1038.9688,1124.1563 Q1038.8438,1123.9688 1038.8438,1123.2969 L1037.3594,1123.2969 Z " fill="#000000"/><text fill="#000000" font-family="sans-serif" font-size="14" lengthAdjust="spacing" textLength="89.5029" x="1052.5" y="1128.2969">PayingMethod</text><line style="stroke:#181818;stroke-width:0.5;" x1="1024.5" x2="1144.0029" y1="1138.5" y2="1138.5"/><text fill="#000000" font-family="sans-serif" font-size="14" lengthAdjust="spacing" textLength="30.3447" x="1029.5" y="1157.6074">Card</text><text fill="#000000" font-family="sans-serif" font-size="14" lengthAdjust="spacing" textLength="32.6826" x="1029.5" y="1176.2285">Cash</text><line style="stroke:#181818;stroke-width:0.5;" x1="1024.5" x2="1144.0029" y1="1183.7422" y2="1183.7422"/></g><!--class UserRepository--><g id="elem_UserRepository"><rect codeLine="116" fill="#F1F1F1" height="178.3477" id="UserRepository" rx="2.5" ry="2.5" style="stroke:#181818;stroke-width:0.5;" width="360.5645" x="7" y="601.5"/><ellipse cx="134.7944" cy="617.5" fill="#ADD1B2" rx="11" ry="11" style="stroke:#181818;stroke-width:1.0;"/><path d="M137.5601,613.375 Q137.7163,613.1563 137.9038,613.0469 Q138.0913,612.9375 138.3101,612.9375 Q138.6851,612.9375 138.9194,613.2031 Q139.1538,613.4531 139.1538,614.0625 L139.1538,615.5156 Q139.1538,616.125 138.9194,616.3906 Q138.6851,616.6563 138.3101,616.6563 Q137.9663,616.6563 137.7632,616.4531 Q137.5601,616.2656 137.4507,615.75 Q137.4038,615.3906 137.2163,615.2031 Q136.8882,614.8281 136.2788,614.6094 Q135.6694,614.3906 135.0444,614.3906 Q134.2788,614.3906 133.6382,614.7188 Q133.0132,615.0469 132.5132,615.7969 Q132.0288,616.5469 132.0288,617.5781 L132.0288,618.6719 Q132.0288,619.9063 132.9194,620.7344 Q133.8101,621.5469 135.4038,621.5469 Q136.3413,621.5469 136.9976,621.2969 Q137.3882,621.1406 137.8101,620.7031 Q138.0757,620.4375 138.2163,620.3594 Q138.3726,620.2813 138.5757,620.2813 Q138.9038,620.2813 139.1538,620.5469 Q139.4194,620.7969 139.4194,621.1406 Q139.4194,621.4844 139.0757,621.8906 Q138.5757,622.4688 137.7788,622.7969 Q136.7007,623.25 135.4038,623.25 Q133.8882,623.25 132.6851,622.625 Q131.7007,622.125 131.0132,621.0625 Q130.3257,619.9844 130.3257,618.7031 L130.3257,617.5469 Q130.3257,616.2188 130.9351,615.0781 Q131.5601,613.9219 132.6538,613.3125 Q133.7476,612.6875 134.9819,612.6875 Q135.7163,612.6875 136.3569,612.8594 Q137.0132,613.0156 137.5601,613.375 Z " fill="#000000"/><text fill="#000000" font-family="sans-serif" font-size="14" lengthAdjust="spacing" textLength="96.4756" x="155.2944" y="623.2969">UserRepository</text><line style="stroke:#181818;stroke-width:0.5;" x1="8" x2="366.5645" y1="633.5" y2="633.5"/><rect fill="none" height="6" style="stroke:#C82930;stroke-width:1.0;" width="6" x="15" y="645.3105"/><text fill="#000000" font-family="sans-serif" font-size="14" lengthAdjust="spacing" textLength="228.7646" x="27" y="652.6074">hikariDataSource : HikariDataSource</text><line style="stroke:#181818;stroke-width:0.5;" x1="8" x2="366.5645" y1="660.1211" y2="660.1211"/><ellipse cx="18" cy="674.9316" fill="#84BE84" rx="3" ry="3" style="stroke:#038048;stroke-width:1.0;"/><text fill="#000000" font-family="sans-serif" font-size="14" lengthAdjust="spacing" textLength="334.5645" x="27" y="679.2285">UserRepository(hikariDataSource : HikariDataSource)</text><ellipse cx="18" cy="693.5527" fill="#84BE84" rx="3" ry="3" style="stroke:#038048;stroke-width:1.0;"/><text fill="#000000" font-family="sans-serif" font-size="14" lengthAdjust="spacing" textLength="223.3438" x="27" y="697.8496">findById(id : Long) : Optional&lt;User&gt;</text><ellipse cx="18" cy="712.1738" fill="#84BE84" rx="3" ry="3" style="stroke:#038048;stroke-width:1.0;"/><text fill="#000000" font-family="sans-serif" font-size="14" lengthAdjust="spacing" textLength="151.7305" x="27" y="716.4707">findAll() : Iterable&lt;User&gt;</text><ellipse cx="18" cy="730.7949" fill="#84BE84" rx="3" ry="3" style="stroke:#038048;stroke-width:1.0;"/><text fill="#000000" font-family="sans-serif" font-size="14" lengthAdjust="spacing" textLength="154.8135" x="27" y="735.0918">save(entity : User) : User</text><ellipse cx="18" cy="749.416" fill="#84BE84" rx="3" ry="3" style="stroke:#038048;stroke-width:1.0;"/><text fill="#000000" font-family="sans-serif" font-size="14" lengthAdjust="spacing" textLength="166.5439" x="27" y="753.7129">deleteById(id : Long) : void</text><ellipse cx="18" cy="768.0371" fill="#84BE84" rx="3" ry="3" style="stroke:#038048;stroke-width:1.0;"/><text fill="#000000" font-family="sans-serif" font-size="14" lengthAdjust="spacing" textLength="100.3789" x="27" y="772.334">deleteAll() : void</text></g><!--class User--><g id="elem_User"><rect codeLine="125" fill="#F1F1F1" height="103.8633" id="User" rx="2.5" ry="2.5" style="stroke:#181818;stroke-width:0.5;" width="136.4961" x="119.5" y="877"/><ellipse cx="168.7188" cy="893" fill="#ADD1B2" rx="11" ry="11" style="stroke:#181818;stroke-width:1.0;"/><path d="M171.4844,888.875 Q171.6406,888.6563 171.8281,888.5469 Q172.0156,888.4375 172.2344,888.4375 Q172.6094,888.4375 172.8438,888.7031 Q173.0781,888.9531 173.0781,889.5625 L173.0781,891.0156 Q173.0781,891.625 172.8438,891.8906 Q172.6094,892.1563 172.2344,892.1563 Q171.8906,892.1563 171.6875,891.9531 Q171.4844,891.7656 171.375,891.25 Q171.3281,890.8906 171.1406,890.7031 Q170.8125,890.3281 170.2031,890.1094 Q169.5938,889.8906 168.9688,889.8906 Q168.2031,889.8906 167.5625,890.2188 Q166.9375,890.5469 166.4375,891.2969 Q165.9531,892.0469 165.9531,893.0781 L165.9531,894.1719 Q165.9531,895.4063 166.8438,896.2344 Q167.7344,897.0469 169.3281,897.0469 Q170.2656,897.0469 170.9219,896.7969 Q171.3125,896.6406 171.7344,896.2031 Q172,895.9375 172.1406,895.8594 Q172.2969,895.7813 172.5,895.7813 Q172.8281,895.7813 173.0781,896.0469 Q173.3438,896.2969 173.3438,896.6406 Q173.3438,896.9844 173,897.3906 Q172.5,897.9688 171.7031,898.2969 Q170.625,898.75 169.3281,898.75 Q167.8125,898.75 166.6094,898.125 Q165.625,897.625 164.9375,896.5625 Q164.25,895.4844 164.25,894.2031 L164.25,893.0469 Q164.25,891.7188 164.8594,890.5781 Q165.4844,889.4219 166.5781,888.8125 Q167.6719,888.1875 168.9063,888.1875 Q169.6406,888.1875 170.2813,888.3594 Q170.9375,888.5156 171.4844,888.875 Z " fill="#000000"/><text fill="#000000" font-family="sans-serif" font-size="14" lengthAdjust="spacing" textLength="29.5586" x="189.2188" y="898.7969">User</text><line style="stroke:#181818;stroke-width:0.5;" x1="120.5" x2="254.9961" y1="909" y2="909"/><rect fill="none" height="6" style="stroke:#C82930;stroke-width:1.0;" width="6" x="127.5" y="920.8105"/><text fill="#000000" font-family="sans-serif" font-size="14" lengthAdjust="spacing" textLength="53.71" x="139.5" y="928.1074">id : Long</text><rect fill="none" height="6" style="stroke:#C82930;stroke-width:1.0;" width="6" x="127.5" y="939.4316"/><text fill="#000000" font-family="sans-serif" font-size="14" lengthAdjust="spacing" textLength="110.4961" x="139.5" y="946.7285">username : String</text><rect fill="none" height="6" style="stroke:#C82930;stroke-width:1.0;" width="6" x="127.5" y="958.0527"/><text fill="#000000" font-family="sans-serif" font-size="14" lengthAdjust="spacing" textLength="108.1582" x="139.5" y="965.3496">password : String</text><line style="stroke:#181818;stroke-width:0.5;" x1="120.5" x2="254.9961" y1="972.8633" y2="972.8633"/></g><!--class AddExpenseDialog--><g id="elem_AddExpenseDialog"><rect codeLine="131" fill="#F1F1F1" height="85.2422" id="AddExpenseDialog" rx="2.5" ry="2.5" style="stroke:#181818;stroke-width:0.5;" width="154.4063" x="930.5" y="648"/><ellipse cx="946.9959" cy="664" fill="#ADD1B2" rx="11" ry="11" style="stroke:#181818;stroke-width:1.0;"/><path d="M949.7615,659.875 Q949.9178,659.6563 950.1053,659.5469 Q950.2928,659.4375 950.5115,659.4375 Q950.8865,659.4375 951.1209,659.7031 Q951.3553,659.9531 951.3553,660.5625 L951.3553,662.0156 Q951.3553,662.625 951.1209,662.8906 Q950.8865,663.1563 950.5115,663.1563 Q950.1678,663.1563 949.9646,662.9531 Q949.7615,662.7656 949.6521,662.25 Q949.6053,661.8906 949.4178,661.7031 Q949.0896,661.3281 948.4803,661.1094 Q947.8709,660.8906 947.2459,660.8906 Q946.4803,660.8906 945.8396,661.2188 Q945.2146,661.5469 944.7146,662.2969 Q944.2303,663.0469 944.2303,664.0781 L944.2303,665.1719 Q944.2303,666.4063 945.1209,667.2344 Q946.0115,668.0469 947.6053,668.0469 Q948.5428,668.0469 949.199,667.7969 Q949.5896,667.6406 950.0115,667.2031 Q950.2771,666.9375 950.4178,666.8594 Q950.574,666.7813 950.7771,666.7813 Q951.1053,666.7813 951.3553,667.0469 Q951.6209,667.2969 951.6209,667.6406 Q951.6209,667.9844 951.2771,668.3906 Q950.7771,668.9688 949.9803,669.2969 Q948.9021,669.75 947.6053,669.75 Q946.0896,669.75 944.8865,669.125 Q943.9021,668.625 943.2146,667.5625 Q942.5271,666.4844 942.5271,665.2031 L942.5271,664.0469 Q942.5271,662.7188 943.1365,661.5781 Q943.7615,660.4219 944.8553,659.8125 Q945.949,659.1875 947.1834,659.1875 Q947.9178,659.1875 948.5584,659.3594 Q949.2146,659.5156 949.7615,659.875 Z " fill="#000000"/><text fill="#000000" font-family="sans-serif" font-size="14" lengthAdjust="spacing" textLength="119.082" x="961.3283" y="669.7969">AddExpenseDialog</text><line style="stroke:#181818;stroke-width:0.5;" x1="931.5" x2="1083.9063" y1="680" y2="680"/><line style="stroke:#181818;stroke-width:0.5;" x1="931.5" x2="1083.9063" y1="688" y2="688"/><ellipse cx="941.5" cy="702.8105" fill="#84BE84" rx="3" ry="3" style="stroke:#038048;stroke-width:1.0;"/><text fill="#000000" font-family="sans-serif" font-size="14" lengthAdjust="spacing" textLength="96.4756" x="950.5" y="707.1074">initialize() : void</text><ellipse cx="941.5" cy="721.4316" fill="#84BE84" rx="3" ry="3" style="stroke:#038048;stroke-width:1.0;"/><text fill="#000000" font-family="sans-serif" font-size="14" lengthAdjust="spacing" textLength="128.4063" x="950.5" y="725.7285">AddExpenseDialog()</text></g><!--class Dialog--><g id="elem_Dialog"><rect fill="#F1F1F1" height="48" id="Dialog" rx="2.5" ry="2.5" style="stroke:#181818;stroke-width:0.5;" width="71.6895" x="823.5" y="666.5"/><ellipse cx="838.5" cy="682.5" fill="#ADD1B2" rx="11" ry="11" style="stroke:#181818;stroke-width:1.0;"/><path d="M841.2656,678.375 Q841.4219,678.1563 841.6094,678.0469 Q841.7969,677.9375 842.0156,677.9375 Q842.3906,677.9375 842.625,678.2031 Q842.8594,678.4531 842.8594,679.0625 L842.8594,680.5156 Q842.8594,681.125 842.625,681.3906 Q842.3906,681.6563 842.0156,681.6563 Q841.6719,681.6563 841.4688,681.4531 Q841.2656,681.2656 841.1563,680.75 Q841.1094,680.3906 840.9219,680.2031 Q840.5938,679.8281 839.9844,679.6094 Q839.375,679.3906 838.75,679.3906 Q837.9844,679.3906 837.3438,679.7188 Q836.7188,680.0469 836.2188,680.7969 Q835.7344,681.5469 835.7344,682.5781 L835.7344,683.6719 Q835.7344,684.9063 836.625,685.7344 Q837.5156,686.5469 839.1094,686.5469 Q840.0469,686.5469 840.7031,686.2969 Q841.0938,686.1406 841.5156,685.7031 Q841.7813,685.4375 841.9219,685.3594 Q842.0781,685.2813 842.2813,685.2813 Q842.6094,685.2813 842.8594,685.5469 Q843.125,685.7969 843.125,686.1406 Q843.125,686.4844 842.7813,686.8906 Q842.2813,687.4688 841.4844,687.7969 Q840.4063,688.25 839.1094,688.25 Q837.5938,688.25 836.3906,687.625 Q835.4063,687.125 834.7188,686.0625 Q834.0313,684.9844 834.0313,683.7031 L834.0313,682.5469 Q834.0313,681.2188 834.6406,680.0781 Q835.2656,678.9219 836.3594,678.3125 Q837.4531,677.6875 838.6875,677.6875 Q839.4219,677.6875 840.0625,677.8594 Q840.7188,678.0156 841.2656,678.375 Z " fill="#000000"/><text fill="#000000" font-family="sans-serif" font-size="14" lengthAdjust="spacing" textLength="39.6895" x="852.5" y="688.2969">Dialog</text><line style="stroke:#181818;stroke-width:0.5;" x1="824.5" x2="894.1895" y1="698.5" y2="698.5"/><line style="stroke:#181818;stroke-width:0.5;" x1="824.5" x2="894.1895" y1="706.5" y2="706.5"/></g><!--reverse link Application to App--><g id="link_Application_App"><path codeLine="137" d="M151.5,92.28 C151.5,109.48 151.5,113.24 151.5,133.97 " fill="none" id="Application-backto-App" style="stroke:#181818;stroke-width:1.0;"/><polygon fill="none" points="151.5,74.28,145.5,92.28,157.5,92.28,151.5,74.28" style="stroke:#181818;stroke-width:1.0;"/></g><!--link App to ViewController--><g id="link_App_ViewController"><path codeLine="138" d="M286.62,204.5 C298.39,204.5 304.17,204.5 315.94,204.5 " fill="none" id="App-to-ViewController" style="stroke:#181818;stroke-width:1.0;"/><polygon fill="#181818" points="321.94,204.5,312.94,200.5,316.94,204.5,312.94,208.5,321.94,204.5" style="stroke:#181818;stroke-width:1.0;"/></g><!--reverse link DataSource to ViewController--><g id="link_DataSource_ViewController"><path codeLine="140" d="M518.5,92.28 C518.5,114.66 518.5,126.75 518.5,152.26 " fill="none" id="DataSource-backto-ViewController" style="stroke:#181818;stroke-width:1.0;"/><polygon fill="none" points="518.5,74.28,512.5,92.28,524.5,92.28,518.5,74.28" style="stroke:#181818;stroke-width:1.0;"/></g><!--reverse link Closeable to ViewController--><g id="link_Closeable_ViewController"><path codeLine="141" d="M1150.8768,52.0108 C1060.8268,65.7808 889.95,94.05 733.5,134 C712.22,139.43 689.95,145.82 668.16,152.47 " fill="none" id="Closeable-backto-ViewController" style="stroke:#181818;stroke-width:1.0;"/><polygon fill="none" points="1168.67,49.29,1149.9699,46.0798,1151.7838,57.9419,1168.67,49.29" style="stroke:#181818;stroke-width:1.0;"/></g><!--link ViewController to Repository--><g id="link_ViewController_Repository"><path codeLine="143" d="M436.45,256.79 C400.38,279.94 357.81,308.09 320.5,335 C308.34,343.77 300.4767,349.6 288.1767,359.11 " fill="none" id="ViewController-to-Repository" style="stroke:#181818;stroke-width:1.0;"/><polygon fill="#181818" points="283.43,362.78,292.9967,360.4395,287.3856,359.7217,288.1034,354.1105,283.43,362.78" style="stroke:#181818;stroke-width:1.0;"/></g><!--reverse link ViewController to LoginViewController--><g id="link_ViewController_LoginViewController"><path codeLine="145" d="M523.3748,274.6855 C525.0048,297.8255 525.73,308.02 527.62,334.95 " fill="none" id="ViewController-backto-LoginViewController" style="stroke:#181818;stroke-width:1.0;stroke-dasharray:7.0,7.0;"/><polygon fill="none" points="522.11,256.73,517.3896,275.1071,529.36,274.2639,522.11,256.73" style="stroke:#181818;stroke-width:1.0;"/></g><!--reverse link ViewController to MainPageViewController--><g id="link_ViewController_MainPageViewController"><path codeLine="147" d="M640.2514,264.4232 C693.7314,290.3132 744,314.64 805.42,344.37 " fill="none" id="ViewController-backto-MainPageViewController" style="stroke:#181818;stroke-width:1.0;stroke-dasharray:7.0,7.0;"/><polygon fill="none" points="624.05,256.58,637.637,269.8236,642.8658,259.0227,624.05,256.58" style="stroke:#181818;stroke-width:1.0;"/></g><!--reverse link ObservableExpense to MainPageViewController--><g id="link_ObservableExpense_MainPageViewController"><path codeLine="148" d="M969.4146,274.6135 C972.3746,300.5035 974.02,314.77 977.42,344.47 " fill="none" id="ObservableExpense-backto-MainPageViewController" style="stroke:#181818;stroke-width:1.0;stroke-dasharray:7.0,7.0;"/><polygon fill="none" points="967.37,256.73,963.4535,275.295,975.3758,273.932,967.37,256.73" style="stroke:#181818;stroke-width:1.0;"/></g><!--link MainPageViewController to ChartController--><g id="link_MainPageViewController_ChartController"><path codeLine="149" d="M1129.17,522.61 C1185.88,557.88 1244.6653,594.4407 1295.8653,626.2907 " fill="none" id="MainPageViewController-to-ChartController" style="stroke:#181818;stroke-width:1.0;"/><polygon fill="#181818" points="1300.96,629.46,1295.4308,621.3097,1296.7144,626.819,1291.2051,628.1026,1300.96,629.46" style="stroke:#181818;stroke-width:1.0;"/></g><!--link MainPageViewController to AddExpenseDialog--><g id="link_MainPageViewController_AddExpenseDialog"><path codeLine="150" d="M994.41,522.61 C997.74,565.08 1001.1117,608.0283 1003.7617,641.8783 " fill="none" id="MainPageViewController-to-AddExpenseDialog" style="stroke:#181818;stroke-width:1.0;"/><polygon fill="#181818" points="1004.23,647.86,1007.5154,638.5753,1003.8398,642.8753,999.5398,639.1996,1004.23,647.86" style="stroke:#181818;stroke-width:1.0;"/></g><!--link ObservableExpense to ObserverExpense--><g id="link_ObservableExpense_ObserverExpense"><path codeLine="152" d="M1172.69,204.5 C1184.4,204.5 1190.11,204.5 1201.81,204.5 " fill="none" id="ObservableExpense-to-ObserverExpense" style="stroke:#181818;stroke-width:1.0;"/><polygon fill="#181818" points="1207.81,204.5,1198.81,200.5,1202.81,204.5,1198.81,208.5,1207.81,204.5" style="stroke:#181818;stroke-width:1.0;"/></g><!--reverse link Closeable to ChartController--><g id="link_Closeable_ChartController"><path codeLine="154" d="M1292.003,48.1863 C1387.163,58.1063 1563.93,82.47 1604.5,134 C1725.78,288.05 1551.93,520.44 1455.04,629.27 " fill="none" id="Closeable-backto-ChartController" style="stroke:#181818;stroke-width:1.0;stroke-dasharray:7.0,7.0;"/><polygon fill="none" points="1274.1,46.32,1291.3809,54.154,1292.6251,42.2186,1274.1,46.32" style="stroke:#181818;stroke-width:1.0;"/></g><!--reverse link DataToCharts to ChartController--><g id="link_DataToCharts_ChartController"><path codeLine="155" d="M1813.3084,475.2931 C1734.0684,516.1131 1612.7,578.64 1514.16,629.4 " fill="none" id="DataToCharts-backto-ChartController" style="stroke:#181818;stroke-width:1.0;stroke-dasharray:7.0,7.0;"/><polygon fill="none" points="1829.31,467.05,1810.5607,469.9593,1816.0561,480.627,1829.31,467.05" style="stroke:#181818;stroke-width:1.0;"/></g><!--reverse link ObserverExpense to ChartController--><g id="link_ObserverExpense_ChartController"><path codeLine="157" d="M1397.5,256.01 C1397.5,336.13 1397.5,526.03 1397.5,629.37 " fill="none" id="ObserverExpense-backto-ChartController" style="stroke:#181818;stroke-width:1.0;stroke-dasharray:7.0,7.0;"/><polygon fill="none" points="1397.5,238.01,1391.5,256.01,1403.5,256.01,1397.5,238.01" style="stroke:#181818;stroke-width:1.0;"/></g><!--reverse link ChartController to ExpenseAreaChartController--><g id="link_ChartController_ExpenseAreaChartController"><path codeLine="158" d="M1391.8766,769.7435 C1389.0966,808.3335 1386.83,839.92 1384.19,876.64 " fill="none" id="ChartController-backto-ExpenseAreaChartController" style="stroke:#181818;stroke-width:1.0;"/><polygon fill="none" points="1393.17,751.79,1385.8922,769.3124,1397.8611,770.1746,1393.17,751.79" style="stroke:#181818;stroke-width:1.0;"/></g><!--reverse link ChartController to ExpensePieChartController--><g id="link_ChartController_ExpensePieChartController"><path codeLine="159" d="M1518.6687,760.5524 C1586.6287,799.2824 1658.37,840.16 1722.94,876.96 " fill="none" id="ChartController-backto-ExpensePieChartController" style="stroke:#181818;stroke-width:1.0;"/><polygon fill="none" points="1503.03,751.64,1515.6979,765.7653,1521.6395,755.3395,1503.03,751.64" style="stroke:#181818;stroke-width:1.0;"/></g><!--link ChartController to Expense--><g id="link_ChartController_Expense"><path codeLine="160" d="M1298.33,751.64 C1242.36,785.58 1177.5104,824.909 1120.2204,859.649 " fill="none" id="ChartController-to-Expense" style="stroke:#181818;stroke-width:1.0;"/><polygon fill="#181818" points="1115.09,862.76,1124.8597,861.5137,1119.3654,860.1675,1120.7116,854.6731,1115.09,862.76" style="stroke:#181818;stroke-width:1.0;"/></g><!--reverse link Repository to ExpenseRepository--><g id="link_Repository_ExpenseRepository"><path codeLine="162" d="M296.2557,515.0315 C308.9557,524.7115 307.75,523.37 320.5,532 C350.68,552.44 383.66,572.84 415.96,591.87 " fill="none" id="Repository-backto-ExpenseRepository" style="stroke:#181818;stroke-width:1.0;stroke-dasharray:7.0,7.0;"/><polygon fill="none" points="281.94,504.12,292.6185,519.8034,299.8929,510.2596,281.94,504.12" style="stroke:#181818;stroke-width:1.0;"/></g><!--link ExpenseRepository to Expense--><g id="link_ExpenseRepository_Expense"><path codeLine="163" d="M765.45,789.06 C810.9,815.14 853.5467,839.6224 894.5967,863.1924 " fill="none" id="ExpenseRepository-to-Expense" style="stroke:#181818;stroke-width:1.0;"/><polygon fill="#181818" points="899.8,866.18,893.9868,858.2297,895.4639,863.6903,890.0033,865.1674,899.8,866.18" style="stroke:#181818;stroke-width:1.0;"/></g><!--reverse link Repository to UserRepository--><g id="link_Repository_UserRepository"><path codeLine="165" d="M194.0609,522.166 C192.8809,552.096 192.21,569.44 190.96,601.19 " fill="none" id="Repository-backto-UserRepository" style="stroke:#181818;stroke-width:1.0;stroke-dasharray:7.0,7.0;"/><polygon fill="none" points="194.77,504.18,188.0656,521.9297,200.0562,522.4024,194.77,504.18" style="stroke:#181818;stroke-width:1.0;"/></g><!--link UserRepository to User--><g id="link_UserRepository_User"><path codeLine="166" d="M187.5,779.56 C187.5,812.4 187.5,842.56 187.5,870.97 " fill="none" id="UserRepository-to-User" style="stroke:#181818;stroke-width:1.0;"/><polygon fill="#181818" points="187.5,876.97,191.5,867.97,187.5,871.97,183.5,867.97,187.5,876.97" style="stroke:#181818;stroke-width:1.0;"/></g><!--link Expense to ExpenseType--><g id="link_Expense_ExpenseType"><path codeLine="168" d="M979.23,1009.01 C972.25,1028.51 966.8021,1043.741 959.8221,1063.241 " fill="none" id="Expense-to-ExpenseType" style="stroke:#181818;stroke-width:1.0;"/><polygon fill="#181818" points="957.8,1068.89,964.5991,1061.7645,959.485,1064.1825,957.0671,1059.0685,957.8,1068.89" style="stroke:#181818;stroke-width:1.0;"/></g><!--link Expense to PayingMethod--><g id="link_Expense_PayingMethod"><path codeLine="169" d="M1035.41,1009.01 C1047.03,1041.91 1058.0417,1073.1026 1067.7517,1100.5926 " fill="none" id="Expense-to-PayingMethod" style="stroke:#181818;stroke-width:1.0;"/><polygon fill="#181818" points="1069.75,1106.25,1070.5242,1096.4316,1068.0847,1101.5355,1062.9809,1099.096,1069.75,1106.25" style="stroke:#181818;stroke-width:1.0;"/></g><!--reverse link Dialog to AddExpenseDialog--><g id="link_Dialog_AddExpenseDialog"><path codeLine="171" d="M913.63,690.5 C925.14,690.5 918.65,690.5 930.15,690.5 " fill="none" id="Dialog-backto-AddExpenseDialog" style="stroke:#181818;stroke-width:1.0;"/><polygon fill="none" points="895.63,690.5,913.63,696.5,913.63,684.5,895.63,690.5" style="stroke:#181818;stroke-width:1.0;"/></g><!--link AddExpenseDialog to Expense--><g id="link_AddExpenseDialog_Expense"><path codeLine="172" d="M1007.5,733.24 C1007.5,765.2 1007.5,804.22 1007.5,842.93 " fill="none" id="AddExpenseDialog-to-Expense" style="stroke:#181818;stroke-width:1.0;"/><polygon fill="#181818" points="1007.5,848.93,1011.5,839.93,1007.5,843.93,1003.5,839.93,1007.5,848.93" style="stroke:#181818;stroke-width:1.0;"/></g><!--SRC=[rLVTRjiw3BxNK_ZInPOzm10Kw99kovOYnPhjvk1WK6p64UP8XYItotxUVP8iwyzEaBN3WFMc3lM9_4XH98KtGd9SoAoeiH3PLTFKfC2IC9fzHvdwUvO9YRdC6qxsc1_k9AuWUvcP_nVguvwH4lr4RhlTDidUpL_DFiyvkGTky9pGAbpw-66PoWiEMC8SItp7Mbv0hWsy9Lym9rveMUqneJdcbN1A_llVyVaDuWWHAe5lSG6PD-AS9vJ8WD0k8JF2Bz3jDSzg9W1lQg-uq99y5Fo9mCECKSbPNGCt6mRufvBh0WJo0pHC4Cdu8UVkKu6yV9IYNvwkdsUB-MNdbjAv9RHyTLYKEIdLniLSRryrEg5mFLrVXh2hkZOEBPHM7PjWMU1xo85A8ZMPjKQj-xKIQf2Gsd3dxX2z-lwWknHTiehGEC8kPUNsLa4U6DTg-y_N1EhI0JuAu1JlTMpNy5M6YsU4to8PdM5QG3rJT-qBbD6fckNL-oDBDMvfiGjkQPxa_31Ddfh4DcutwhxTggjp97JdEj-H8RWct_uapHFEux9SRTIfgJgKC_jn_RK1AhJ6LIn9zdBOitjuz7RA9DaUL1xsC9531nHkhqxy9H5oQbLSXg7t5yw3U-FV_tt_KlUyvTwvjYbLHyWfF5m_Cd0wMTPijbEjG4HLlHCvmXftdcuSjqoZPt0Zdc8ZSlrHUyMEFLnjM2iNTClulgiKXUAeIgekMwvdPXV7sb7ddDL_fHhpCJ-FLfo_xtp2-fR0Fq4wPkrRgokkozKRXLQTgmB-s_LseFQimeh6klcIqIhgvxqpw4HJJp1nPm_gYlr4uqs-Dns4-rINZ-l897Cwx6-yPotLrs3EMaNIIlNn6Lo1QnKB9mPHS69yzXEh9L61L0oikVMX0M7O16DjZxd51oMw0RbZPGJwYO2s-opGOMdV4A66X1fJOAqmahjsuwWOmRMwshHQjTByUiDP0Pn01vx3fXFFCE-DX2Ii5RLQsW-nyn7KWyv8AfwVTx62FvXqMl79Z0i1SRhfbGlx_uc9vgDqDCbQFoj6pvp63vak1Ve7L5dQF9Yh6ObLKJSPdvhIBVc5UTM4BxdfZyb4lysqC9jS9WyCX89JCT1atJzUnbPHCX5Eb05_xeFbwOyNByQ6y77W-DI9XjFGAVIHqLKJJVh3AMWQPpJ2Gi6IIGP5qLCSKulHV3AAGEbmD8fAEvqvgkFj-oH-s3W7S1qHvs9G9motGSj1mzvsKa5SEr1IY_HMSuEHYxjNfkjd90zBdahrxbefRuS7EhXy0SLV]--></g></svg>