<svg xmlns="http://www.w3.org/2000/svg" xmlns:xlink="http://www.w3.org/1999/xlink" contentStyleType="text/css" height="1436px" preserveAspectRatio="none" style="width:2006px;height:1436px;background:#FFFFFF;" version="1.1" viewBox="0 0 2006 1436" width="2006px" zoomAndPan="magnify"><defs/><g><!--class Application--><g id="elem_Application"><rect codeLine="1" fill="#F1F1F1" height="66.6211" id="Application" rx="2.5" ry="2.5" style="stroke:#181818;stroke-width:0.5;" width="231.4131" x="465" y="7"/><ellipse cx="542.2119" cy="23" fill="#A9DCDF" rx="11" ry="11" style="stroke:#181818;stroke-width:1.0;"/><path d="M544.3994,24.7656 L540.2588,24.7656 L539.8369,25.7969 L540.2588,25.7969 Q540.8682,25.7969 541.1338,26.0313 Q541.3994,26.2656 541.3994,26.6563 Q541.3994,27.0313 541.1338,27.2656 Q540.8682,27.5 540.2588,27.5 L537.9619,27.5 Q537.3525,27.5 537.1025,27.2656 Q536.8369,27.0313 536.8369,26.6406 Q536.8369,26.2656 537.1182,26.0313 Q537.3838,25.7813 538.0088,25.7969 L540.6807,19.1406 L539.5713,19.1406 Q538.9619,19.1406 538.6963,18.9063 Q538.4307,18.6719 538.4307,18.2813 Q538.4307,17.9063 538.6963,17.6719 Q538.9619,17.4375 539.5713,17.4375 L543.2432,17.4375 L546.6338,25.7969 Q547.2275,25.7969 547.415,25.9375 Q547.8057,26.2031 547.8057,26.6563 Q547.8057,27.0313 547.54,27.2656 Q547.29,27.5 546.6807,27.5 L544.3838,27.5 Q543.7744,27.5 543.5088,27.2656 Q543.2432,27.0313 543.2432,26.6406 Q543.2432,26.2656 543.5088,26.0313 Q543.7744,25.7969 544.3838,25.7969 L544.8057,25.7969 L544.3994,24.7656 Z M543.6807,23.0625 L542.3213,19.6875 L540.9463,23.0625 L543.6807,23.0625 Z " fill="#000000"/><text fill="#000000" font-family="sans-serif" font-size="14" font-style="italic" lengthAdjust="spacing" textLength="68.4893" x="562.7119" y="28.7969">Application</text><line style="stroke:#181818;stroke-width:0.5;" x1="466" x2="695.4131" y1="39" y2="39"/><line style="stroke:#181818;stroke-width:0.5;" x1="466" x2="695.4131" y1="47" y2="47"/><ellipse cx="476" cy="61.8105" fill="#84BE84" rx="3" ry="3" style="stroke:#038048;stroke-width:1.0;"/><text fill="#000000" font-family="sans-serif" font-size="14" lengthAdjust="spacing" textLength="205.4131" x="485" y="66.1074">start(primaryStage : Stage) : void</text></g><!--class App--><g id="elem_App"><rect codeLine="4" fill="#F1F1F1" height="141.1055" id="App" rx="2.5" ry="2.5" style="stroke:#181818;stroke-width:0.5;" width="269.5439" x="445.5" y="134"/><ellipse cx="563.5669" cy="150" fill="#ADD1B2" rx="11" ry="11" style="stroke:#181818;stroke-width:1.0;"/><path d="M566.3325,145.875 Q566.4888,145.6563 566.6763,145.5469 Q566.8638,145.4375 567.0825,145.4375 Q567.4575,145.4375 567.6919,145.7031 Q567.9263,145.9531 567.9263,146.5625 L567.9263,148.0156 Q567.9263,148.625 567.6919,148.8906 Q567.4575,149.1563 567.0825,149.1563 Q566.7388,149.1563 566.5356,148.9531 Q566.3325,148.7656 566.2231,148.25 Q566.1763,147.8906 565.9888,147.7031 Q565.6606,147.3281 565.0513,147.1094 Q564.4419,146.8906 563.8169,146.8906 Q563.0513,146.8906 562.4106,147.2188 Q561.7856,147.5469 561.2856,148.2969 Q560.8013,149.0469 560.8013,150.0781 L560.8013,151.1719 Q560.8013,152.4063 561.6919,153.2344 Q562.5825,154.0469 564.1763,154.0469 Q565.1138,154.0469 565.77,153.7969 Q566.1606,153.6406 566.5825,153.2031 Q566.8481,152.9375 566.9888,152.8594 Q567.145,152.7813 567.3481,152.7813 Q567.6763,152.7813 567.9263,153.0469 Q568.1919,153.2969 568.1919,153.6406 Q568.1919,153.9844 567.8481,154.3906 Q567.3481,154.9688 566.5513,155.2969 Q565.4731,155.75 564.1763,155.75 Q562.6606,155.75 561.4575,155.125 Q560.4731,154.625 559.7856,153.5625 Q559.0981,152.4844 559.0981,151.2031 L559.0981,150.0469 Q559.0981,148.7188 559.7075,147.5781 Q560.3325,146.4219 561.4263,145.8125 Q562.52,145.1875 563.7544,145.1875 Q564.4888,145.1875 565.1294,145.3594 Q565.7856,145.5156 566.3325,145.875 Z " fill="#000000"/><text fill="#000000" font-family="sans-serif" font-size="14" lengthAdjust="spacing" textLength="24.9102" x="584.0669" y="155.7969">App</text><line style="stroke:#181818;stroke-width:0.5;" x1="446.5" x2="714.0439" y1="166" y2="166"/><rect fill="none" height="6" style="stroke:#C82930;stroke-width:1.0;" width="6" x="453.5" y="177.8105"/><text fill="#000000" font-family="sans-serif" font-size="14" lengthAdjust="spacing" textLength="129.917" x="465.5" y="185.1074">JDBC_Driver : String</text><rect fill="none" height="6" style="stroke:#C82930;stroke-width:1.0;" width="6" x="453.5" y="196.4316"/><text fill="#000000" font-family="sans-serif" font-size="14" lengthAdjust="spacing" textLength="120.5928" x="465.5" y="203.7285">JDBC_URL : String</text><line style="stroke:#181818;stroke-width:0.5;" x1="446.5" x2="714.0439" y1="211.2422" y2="211.2422"/><rect fill="#F24D5C" height="6" style="stroke:#C82930;stroke-width:1.0;" width="6" x="453.5" y="223.0527"/><text fill="#000000" font-family="sans-serif" font-size="14" lengthAdjust="spacing" textLength="243.5439" x="465.5" y="230.3496">createDataSource() : HikariDataSource</text><ellipse cx="456.5" cy="244.6738" fill="#84BE84" rx="3" ry="3" style="stroke:#038048;stroke-width:1.0;"/><text fill="#000000" font-family="sans-serif" font-size="14" lengthAdjust="spacing" textLength="160.2754" x="465.5" y="248.9707">main(args : String[]) : void</text><ellipse cx="456.5" cy="263.2949" fill="#84BE84" rx="3" ry="3" style="stroke:#038048;stroke-width:1.0;"/><text fill="#000000" font-family="sans-serif" font-size="14" lengthAdjust="spacing" textLength="205.4131" x="465.5" y="267.5918">start(primaryStage : Stage) : void</text></g><!--class DataSource--><g id="elem_DataSource"><rect codeLine="13" fill="#F1F1F1" height="66.6211" id="DataSource" rx="2.5" ry="2.5" style="stroke:#181818;stroke-width:0.5;" width="393.2676" x="741" y="7"/><ellipse cx="896.4185" cy="23" fill="#B4A7E5" rx="11" ry="11" style="stroke:#181818;stroke-width:1.0;"/><path d="M897.3716,19.6406 L897.3716,26.2969 L899.0903,26.2969 Q899.6997,26.2969 899.9653,26.5313 Q900.231,26.7656 900.231,27.1563 Q900.231,27.5313 899.9653,27.7656 Q899.6997,28 899.0903,28 L893.9497,28 Q893.3403,28 893.0747,27.7656 Q892.8091,27.5313 892.8091,27.1406 Q892.8091,26.7656 893.0747,26.5313 Q893.3403,26.2969 893.9497,26.2969 L895.6685,26.2969 L895.6685,19.6406 L893.9497,19.6406 Q893.3403,19.6406 893.0747,19.4063 Q892.8091,19.1719 892.8091,18.7813 Q892.8091,18.4063 893.0747,18.1719 Q893.3403,17.9375 893.9497,17.9375 L899.0903,17.9375 Q899.6997,17.9375 899.9653,18.1719 Q900.231,18.4063 900.231,18.7813 Q900.231,19.1719 899.9653,19.4063 Q899.6997,19.6406 899.0903,19.6406 L897.3716,19.6406 Z " fill="#000000"/><text fill="#000000" font-family="sans-serif" font-size="14" font-style="italic" lengthAdjust="spacing" textLength="73.9307" x="916.9185" y="28.7969">DataSource</text><line style="stroke:#181818;stroke-width:0.5;" x1="742" x2="1133.2676" y1="39" y2="39"/><line style="stroke:#181818;stroke-width:0.5;" x1="742" x2="1133.2676" y1="47" y2="47"/><ellipse cx="752" cy="61.8105" fill="#84BE84" rx="3" ry="3" style="stroke:#038048;stroke-width:1.0;"/><text fill="#000000" font-family="sans-serif" font-size="14" lengthAdjust="spacing" textLength="367.2676" x="761" y="66.1074">initDataSource(hikariDataSource : HikariDataSource) : void</text></g><!--class Closeable--><g id="elem_Closeable"><rect codeLine="16" fill="#F1F1F1" height="66.6211" id="Closeable" rx="2.5" ry="2.5" style="stroke:#181818;stroke-width:0.5;" width="105.3584" x="1169" y="7"/><ellipse cx="1188.9935" cy="23" fill="#B4A7E5" rx="11" ry="11" style="stroke:#181818;stroke-width:1.0;"/><path d="M1189.9466,19.6406 L1189.9466,26.2969 L1191.6654,26.2969 Q1192.2748,26.2969 1192.5404,26.5313 Q1192.806,26.7656 1192.806,27.1563 Q1192.806,27.5313 1192.5404,27.7656 Q1192.2748,28 1191.6654,28 L1186.5248,28 Q1185.9154,28 1185.6498,27.7656 Q1185.3841,27.5313 1185.3841,27.1406 Q1185.3841,26.7656 1185.6498,26.5313 Q1185.9154,26.2969 1186.5248,26.2969 L1188.2435,26.2969 L1188.2435,19.6406 L1186.5248,19.6406 Q1185.9154,19.6406 1185.6498,19.4063 Q1185.3841,19.1719 1185.3841,18.7813 Q1185.3841,18.4063 1185.6498,18.1719 Q1185.9154,17.9375 1186.5248,17.9375 L1191.6654,17.9375 Q1192.2748,17.9375 1192.5404,18.1719 Q1192.806,18.4063 1192.806,18.7813 Q1192.806,19.1719 1192.5404,19.4063 Q1192.2748,19.6406 1191.6654,19.6406 L1189.9466,19.6406 Z " fill="#000000"/><text fill="#000000" font-family="sans-serif" font-size="14" font-style="italic" lengthAdjust="spacing" textLength="62.2617" x="1204.1032" y="28.7969">Closeable</text><line style="stroke:#181818;stroke-width:0.5;" x1="1170" x2="1273.3584" y1="39" y2="39"/><line style="stroke:#181818;stroke-width:0.5;" x1="1170" x2="1273.3584" y1="47" y2="47"/><ellipse cx="1180" cy="61.8105" fill="#84BE84" rx="3" ry="3" style="stroke:#038048;stroke-width:1.0;"/><text fill="#000000" font-family="sans-serif" font-size="14" lengthAdjust="spacing" textLength="79.3584" x="1189" y="66.1074">close() : void</text></g><!--class ViewController--><g id="elem_ViewController"><rect codeLine="19" fill="#F1F1F1" height="85.2422" id="ViewController" rx="2.5" ry="2.5" style="stroke:#181818;stroke-width:0.5;" width="393.2676" x="751" y="162"/><ellipse cx="897.8667" cy="178" fill="#B4A7E5" rx="11" ry="11" style="stroke:#181818;stroke-width:1.0;"/><path d="M898.8198,174.6406 L898.8198,181.2969 L900.5386,181.2969 Q901.1479,181.2969 901.4136,181.5313 Q901.6792,181.7656 901.6792,182.1563 Q901.6792,182.5313 901.4136,182.7656 Q901.1479,183 900.5386,183 L895.3979,183 Q894.7886,183 894.5229,182.7656 Q894.2573,182.5313 894.2573,182.1406 Q894.2573,181.7656 894.5229,181.5313 Q894.7886,181.2969 895.3979,181.2969 L897.1167,181.2969 L897.1167,174.6406 L895.3979,174.6406 Q894.7886,174.6406 894.5229,174.4063 Q894.2573,174.1719 894.2573,173.7813 Q894.2573,173.4063 894.5229,173.1719 Q894.7886,172.9375 895.3979,172.9375 L900.5386,172.9375 Q901.1479,172.9375 901.4136,173.1719 Q901.6792,173.4063 901.6792,173.7813 Q901.6792,174.1719 901.4136,174.4063 Q901.1479,174.6406 900.5386,174.6406 L898.8198,174.6406 Z " fill="#000000"/><text fill="#000000" font-family="sans-serif" font-size="14" font-style="italic" lengthAdjust="spacing" textLength="91.0342" x="918.3667" y="183.7969">ViewController</text><line style="stroke:#181818;stroke-width:0.5;" x1="752" x2="1143.2676" y1="194" y2="194"/><line style="stroke:#181818;stroke-width:0.5;" x1="752" x2="1143.2676" y1="202" y2="202"/><ellipse cx="762" cy="216.8105" fill="#84BE84" rx="3" ry="3" style="stroke:#038048;stroke-width:1.0;"/><text fill="#000000" font-family="sans-serif" font-size="14" lengthAdjust="spacing" textLength="79.3584" x="771" y="221.1074">close() : void</text><ellipse cx="762" cy="235.4316" fill="#84BE84" rx="3" ry="3" style="stroke:#038048;stroke-width:1.0;"/><text fill="#000000" font-family="sans-serif" font-size="14" lengthAdjust="spacing" textLength="367.2676" x="771" y="239.7285">initDataSource(hikariDataSource : HikariDataSource) : void</text></g><!--class Repository--><g id="elem_Repository"><rect codeLine="24" fill="#F1F1F1" height="141.1055" id="Repository" rx="2.5" ry="2.5" style="stroke:#181818;stroke-width:0.5;" width="211.1924" x="411" y="592"/><ellipse cx="463.8887" cy="608" fill="#B4A7E5" rx="11" ry="11" style="stroke:#181818;stroke-width:1.0;"/><path d="M464.8418,604.6406 L464.8418,611.2969 L466.5605,611.2969 Q467.1699,611.2969 467.4355,611.5313 Q467.7012,611.7656 467.7012,612.1563 Q467.7012,612.5313 467.4355,612.7656 Q467.1699,613 466.5605,613 L461.4199,613 Q460.8105,613 460.5449,612.7656 Q460.2793,612.5313 460.2793,612.1406 Q460.2793,611.7656 460.5449,611.5313 Q460.8105,611.2969 461.4199,611.2969 L463.1387,611.2969 L463.1387,604.6406 L461.4199,604.6406 Q460.8105,604.6406 460.5449,604.4063 Q460.2793,604.1719 460.2793,603.7813 Q460.2793,603.4063 460.5449,603.1719 Q460.8105,602.9375 461.4199,602.9375 L466.5605,602.9375 Q467.1699,602.9375 467.4355,603.1719 Q467.7012,603.4063 467.7012,603.7813 Q467.7012,604.1719 467.4355,604.4063 Q467.1699,604.6406 466.5605,604.6406 L464.8418,604.6406 Z " fill="#000000"/><text fill="#000000" font-family="sans-serif" font-size="14" font-style="italic" lengthAdjust="spacing" textLength="66.917" x="484.3887" y="613.7969">Repository</text><rect fill="#FFFFFF" height="17.9609" style="stroke:#181818;stroke-width:1.0;stroke-dasharray:2.0,2.0;" width="27.998" x="597.1943" y="589"/><text fill="#000000" font-family="sans-serif" font-size="12" font-style="italic" lengthAdjust="spacing" textLength="25.998" x="598.1943" y="602.9492">T, ID</text><line style="stroke:#181818;stroke-width:0.5;" x1="412" x2="621.1924" y1="624" y2="624"/><line style="stroke:#181818;stroke-width:0.5;" x1="412" x2="621.1924" y1="632" y2="632"/><ellipse cx="422" cy="646.8105" fill="#84BE84" rx="3" ry="3" style="stroke:#038048;stroke-width:1.0;"/><text fill="#000000" font-family="sans-serif" font-size="14" lengthAdjust="spacing" textLength="185.1924" x="431" y="651.1074">findById(id : ID) : Optional&lt;T&gt;</text><ellipse cx="422" cy="665.4316" fill="#84BE84" rx="3" ry="3" style="stroke:#038048;stroke-width:1.0;"/><text fill="#000000" font-family="sans-serif" font-size="14" lengthAdjust="spacing" textLength="130.7236" x="431" y="669.7285">findAll() : Iterable&lt;T&gt;</text><ellipse cx="422" cy="684.0527" fill="#84BE84" rx="3" ry="3" style="stroke:#038048;stroke-width:1.0;"/><text fill="#000000" font-family="sans-serif" font-size="14" lengthAdjust="spacing" textLength="112.7998" x="431" y="688.3496">save(entity : T) : T</text><ellipse cx="422" cy="702.6738" fill="#84BE84" rx="3" ry="3" style="stroke:#038048;stroke-width:1.0;"/><text fill="#000000" font-family="sans-serif" font-size="14" lengthAdjust="spacing" textLength="149.3994" x="431" y="706.9707">deleteById(id : ID) : void</text><ellipse cx="422" cy="721.2949" fill="#84BE84" rx="3" ry="3" style="stroke:#038048;stroke-width:1.0;"/><text fill="#000000" font-family="sans-serif" font-size="14" lengthAdjust="spacing" textLength="100.3789" x="431" y="725.5918">deleteAll() : void</text></g><!--class LoginViewController--><g id="elem_LoginViewController"><rect codeLine="32" fill="#F1F1F1" height="196.9688" id="LoginViewController" rx="2.5" ry="2.5" style="stroke:#181818;stroke-width:0.5;" width="393.2676" x="333" y="335"/><ellipse cx="462.7393" cy="351" fill="#ADD1B2" rx="11" ry="11" style="stroke:#181818;stroke-width:1.0;"/><path d="M465.5049,346.875 Q465.6611,346.6563 465.8486,346.5469 Q466.0361,346.4375 466.2549,346.4375 Q466.6299,346.4375 466.8643,346.7031 Q467.0986,346.9531 467.0986,347.5625 L467.0986,349.0156 Q467.0986,349.625 466.8643,349.8906 Q466.6299,350.1563 466.2549,350.1563 Q465.9111,350.1563 465.708,349.9531 Q465.5049,349.7656 465.3955,349.25 Q465.3486,348.8906 465.1611,348.7031 Q464.833,348.3281 464.2236,348.1094 Q463.6143,347.8906 462.9893,347.8906 Q462.2236,347.8906 461.583,348.2188 Q460.958,348.5469 460.458,349.2969 Q459.9736,350.0469 459.9736,351.0781 L459.9736,352.1719 Q459.9736,353.4063 460.8643,354.2344 Q461.7549,355.0469 463.3486,355.0469 Q464.2861,355.0469 464.9424,354.7969 Q465.333,354.6406 465.7549,354.2031 Q466.0205,353.9375 466.1611,353.8594 Q466.3174,353.7813 466.5205,353.7813 Q466.8486,353.7813 467.0986,354.0469 Q467.3643,354.2969 467.3643,354.6406 Q467.3643,354.9844 467.0205,355.3906 Q466.5205,355.9688 465.7236,356.2969 Q464.6455,356.75 463.3486,356.75 Q461.833,356.75 460.6299,356.125 Q459.6455,355.625 458.958,354.5625 Q458.2705,353.4844 458.2705,352.2031 L458.2705,351.0469 Q458.2705,349.7188 458.8799,348.5781 Q459.5049,347.4219 460.5986,346.8125 Q461.6924,346.1875 462.9268,346.1875 Q463.6611,346.1875 464.3018,346.3594 Q464.958,346.5156 465.5049,346.875 Z " fill="#000000"/><text fill="#000000" font-family="sans-serif" font-size="14" lengthAdjust="spacing" textLength="125.2891" x="483.2393" y="356.7969">LoginViewController</text><line style="stroke:#181818;stroke-width:0.5;" x1="334" x2="725.2676" y1="367" y2="367"/><rect fill="none" height="6" style="stroke:#C82930;stroke-width:1.0;" width="6" x="341" y="378.8105"/><text fill="#000000" font-family="sans-serif" font-size="14" lengthAdjust="spacing" textLength="172.7305" x="353" y="386.1074">tfPassword : PasswordField</text><rect fill="none" height="6" style="stroke:#C82930;stroke-width:1.0;" width="6" x="341" y="397.4316"/><text fill="#000000" font-family="sans-serif" font-size="14" lengthAdjust="spacing" textLength="141.5996" x="353" y="404.7285">tfUsername : TextField</text><rect fill="none" height="6" style="stroke:#C82930;stroke-width:1.0;" width="6" x="341" y="416.0527"/><text fill="#000000" font-family="sans-serif" font-size="14" lengthAdjust="spacing" textLength="228.7646" x="353" y="423.3496">hikariDataSource : HikariDataSource</text><line style="stroke:#181818;stroke-width:0.5;" x1="334" x2="725.2676" y1="430.8633" y2="430.8633"/><rect fill="#F24D5C" height="6" style="stroke:#C82930;stroke-width:1.0;" width="6" x="341" y="442.6738"/><text fill="#000000" font-family="sans-serif" font-size="14" lengthAdjust="spacing" textLength="151.7305" x="353" y="449.9707">onCancelClicked() : void</text><rect fill="#F24D5C" height="6" style="stroke:#C82930;stroke-width:1.0;" width="6" x="341" y="461.2949"/><text fill="#000000" font-family="sans-serif" font-size="14" lengthAdjust="spacing" textLength="128.3789" x="353" y="468.5918">onOKClicked() : void</text><rect fill="#F24D5C" height="6" style="stroke:#C82930;stroke-width:1.0;" width="6" x="341" y="479.916"/><text fill="#000000" font-family="sans-serif" font-size="14" lengthAdjust="spacing" textLength="156.4199" x="353" y="487.2129">launchApplication() : void</text><ellipse cx="344" cy="501.5371" fill="#84BE84" rx="3" ry="3" style="stroke:#038048;stroke-width:1.0;"/><text fill="#000000" font-family="sans-serif" font-size="14" lengthAdjust="spacing" textLength="79.3584" x="353" y="505.834">close() : void</text><ellipse cx="344" cy="520.1582" fill="#84BE84" rx="3" ry="3" style="stroke:#038048;stroke-width:1.0;"/><text fill="#000000" font-family="sans-serif" font-size="14" lengthAdjust="spacing" textLength="367.2676" x="353" y="524.4551">initDataSource(hikariDataSource : HikariDataSource) : void</text></g><!--class MainPageViewController--><g id="elem_MainPageViewController"><rect codeLine="43" fill="#F1F1F1" height="122.4844" id="MainPageViewController" rx="2.5" ry="2.5" style="stroke:#181818;stroke-width:0.5;" width="393.2676" x="768" y="372.5"/><ellipse cx="883.3462" cy="388.5" fill="#ADD1B2" rx="11" ry="11" style="stroke:#181818;stroke-width:1.0;"/><path d="M886.1118,384.375 Q886.2681,384.1563 886.4556,384.0469 Q886.6431,383.9375 886.8618,383.9375 Q887.2368,383.9375 887.4712,384.2031 Q887.7056,384.4531 887.7056,385.0625 L887.7056,386.5156 Q887.7056,387.125 887.4712,387.3906 Q887.2368,387.6563 886.8618,387.6563 Q886.5181,387.6563 886.3149,387.4531 Q886.1118,387.2656 886.0024,386.75 Q885.9556,386.3906 885.7681,386.2031 Q885.4399,385.8281 884.8306,385.6094 Q884.2212,385.3906 883.5962,385.3906 Q882.8306,385.3906 882.1899,385.7188 Q881.5649,386.0469 881.0649,386.7969 Q880.5806,387.5469 880.5806,388.5781 L880.5806,389.6719 Q880.5806,390.9063 881.4712,391.7344 Q882.3618,392.5469 883.9556,392.5469 Q884.8931,392.5469 885.5493,392.2969 Q885.9399,392.1406 886.3618,391.7031 Q886.6274,391.4375 886.7681,391.3594 Q886.9243,391.2813 887.1274,391.2813 Q887.4556,391.2813 887.7056,391.5469 Q887.9712,391.7969 887.9712,392.1406 Q887.9712,392.4844 887.6274,392.8906 Q887.1274,393.4688 886.3306,393.7969 Q885.2524,394.25 883.9556,394.25 Q882.4399,394.25 881.2368,393.625 Q880.2524,393.125 879.5649,392.0625 Q878.8774,390.9844 878.8774,389.7031 L878.8774,388.5469 Q878.8774,387.2188 879.4868,386.0781 Q880.1118,384.9219 881.2056,384.3125 Q882.2993,383.6875 883.5337,383.6875 Q884.2681,383.6875 884.9087,383.8594 Q885.5649,384.0156 886.1118,384.375 Z " fill="#000000"/><text fill="#000000" font-family="sans-serif" font-size="14" lengthAdjust="spacing" textLength="154.0752" x="903.8462" y="394.2969">MainPageViewController</text><line style="stroke:#181818;stroke-width:0.5;" x1="769" x2="1160.2676" y1="404.5" y2="404.5"/><rect fill="none" height="6" style="stroke:#C82930;stroke-width:1.0;" width="6" x="776" y="416.3105"/><text fill="#000000" font-family="sans-serif" font-size="14" lengthAdjust="spacing" textLength="228.7646" x="788" y="423.6074">hikariDataSource : HikariDataSource</text><line style="stroke:#181818;stroke-width:0.5;" x1="769" x2="1160.2676" y1="431.1211" y2="431.1211"/><ellipse cx="779" cy="445.9316" fill="#84BE84" rx="3" ry="3" style="stroke:#038048;stroke-width:1.0;"/><text fill="#000000" font-family="sans-serif" font-size="14" lengthAdjust="spacing" textLength="96.4756" x="788" y="450.2285">initialize() : void</text><ellipse cx="779" cy="464.5527" fill="#84BE84" rx="3" ry="3" style="stroke:#038048;stroke-width:1.0;"/><text fill="#000000" font-family="sans-serif" font-size="14" lengthAdjust="spacing" textLength="367.2676" x="788" y="468.8496">initDataSource(hikariDataSource : HikariDataSource) : void</text><ellipse cx="779" cy="483.1738" fill="#84BE84" rx="3" ry="3" style="stroke:#038048;stroke-width:1.0;"/><text fill="#000000" font-family="sans-serif" font-size="14" lengthAdjust="spacing" textLength="79.3584" x="788" y="487.4707">close() : void</text></g><!--class DataToCharts--><g id="elem_DataToCharts"><rect codeLine="50" fill="#F1F1F1" height="85.2422" id="DataToCharts" rx="2.5" ry="2.5" style="stroke:#181818;stroke-width:0.5;" width="724.79" x="1275" y="391"/><ellipse cx="1589.5728" cy="407" fill="#B4A7E5" rx="11" ry="11" style="stroke:#181818;stroke-width:1.0;"/><path d="M1590.5259,403.6406 L1590.5259,410.2969 L1592.2446,410.2969 Q1592.854,410.2969 1593.1196,410.5313 Q1593.3853,410.7656 1593.3853,411.1563 Q1593.3853,411.5313 1593.1196,411.7656 Q1592.854,412 1592.2446,412 L1587.104,412 Q1586.4946,412 1586.229,411.7656 Q1585.9634,411.5313 1585.9634,411.1406 Q1585.9634,410.7656 1586.229,410.5313 Q1586.4946,410.2969 1587.104,410.2969 L1588.8228,410.2969 L1588.8228,403.6406 L1587.104,403.6406 Q1586.4946,403.6406 1586.229,403.4063 Q1585.9634,403.1719 1585.9634,402.7813 Q1585.9634,402.4063 1586.229,402.1719 Q1586.4946,401.9375 1587.104,401.9375 L1592.2446,401.9375 Q1592.854,401.9375 1593.1196,402.1719 Q1593.3853,402.4063 1593.3853,402.7813 Q1593.3853,403.1719 1593.1196,403.4063 Q1592.854,403.6406 1592.2446,403.6406 L1590.5259,403.6406 Z " fill="#000000"/><text fill="#000000" font-family="sans-serif" font-size="14" font-style="italic" lengthAdjust="spacing" textLength="87.1445" x="1610.0728" y="412.7969">DataToCharts</text><line style="stroke:#181818;stroke-width:0.5;" x1="1276" x2="1998.79" y1="423" y2="423"/><line style="stroke:#181818;stroke-width:0.5;" x1="1276" x2="1998.79" y1="431" y2="431"/><ellipse cx="1286" cy="445.8105" fill="#84BE84" rx="3" ry="3" style="stroke:#038048;stroke-width:1.0;"/><text fill="#000000" font-family="sans-serif" font-size="14" lengthAdjust="spacing" textLength="698.79" x="1295" y="450.1074">initCharts(expensesData : ObservableList&lt;Expense&gt;, mainPageViewController : MainPageViewController) : void</text><ellipse cx="1286" cy="464.4316" fill="#84BE84" rx="3" ry="3" style="stroke:#038048;stroke-width:1.0;"/><text fill="#000000" font-family="sans-serif" font-size="14" lengthAdjust="spacing" textLength="396.1152" x="1295" y="468.7285">updateCharts(expensesData : ObservableList&lt;Expense&gt;) : void</text></g><!--class ChartController--><g id="elem_ChartController"><rect codeLine="55" fill="#F1F1F1" height="122.4844" id="ChartController" rx="2.5" ry="2.5" style="stroke:#181818;stroke-width:0.5;" width="724.79" x="1096" y="601.5"/><ellipse cx="1406.6831" cy="617.5" fill="#A9DCDF" rx="11" ry="11" style="stroke:#181818;stroke-width:1.0;"/><path d="M1408.8706,619.2656 L1404.73,619.2656 L1404.3081,620.2969 L1404.73,620.2969 Q1405.3394,620.2969 1405.605,620.5313 Q1405.8706,620.7656 1405.8706,621.1563 Q1405.8706,621.5313 1405.605,621.7656 Q1405.3394,622 1404.73,622 L1402.4331,622 Q1401.8237,622 1401.5737,621.7656 Q1401.3081,621.5313 1401.3081,621.1406 Q1401.3081,620.7656 1401.5894,620.5313 Q1401.855,620.2813 1402.48,620.2969 L1405.1519,613.6406 L1404.0425,613.6406 Q1403.4331,613.6406 1403.1675,613.4063 Q1402.9019,613.1719 1402.9019,612.7813 Q1402.9019,612.4063 1403.1675,612.1719 Q1403.4331,611.9375 1404.0425,611.9375 L1407.7144,611.9375 L1411.105,620.2969 Q1411.6987,620.2969 1411.8862,620.4375 Q1412.2769,620.7031 1412.2769,621.1563 Q1412.2769,621.5313 1412.0112,621.7656 Q1411.7612,622 1411.1519,622 L1408.855,622 Q1408.2456,622 1407.98,621.7656 Q1407.7144,621.5313 1407.7144,621.1406 Q1407.7144,620.7656 1407.98,620.5313 Q1408.2456,620.2969 1408.855,620.2969 L1409.2769,620.2969 L1408.8706,619.2656 Z M1408.1519,617.5625 L1406.7925,614.1875 L1405.4175,617.5625 L1408.1519,617.5625 Z " fill="#000000"/><text fill="#000000" font-family="sans-serif" font-size="14" font-style="italic" lengthAdjust="spacing" textLength="94.9238" x="1427.1831" y="623.2969">ChartController</text><line style="stroke:#181818;stroke-width:0.5;" x1="1097" x2="1819.79" y1="633.5" y2="633.5"/><line style="stroke:#181818;stroke-width:0.5;" x1="1097" x2="1819.79" y1="641.5" y2="641.5"/><ellipse cx="1107" cy="656.3105" fill="#84BE84" rx="3" ry="3" style="stroke:#038048;stroke-width:1.0;"/><text fill="#000000" font-family="sans-serif" font-size="14" lengthAdjust="spacing" textLength="698.79" x="1116" y="660.6074">initCharts(expensesData : ObservableList&lt;Expense&gt;, mainPageViewController : MainPageViewController) : void</text><ellipse cx="1107" cy="674.9316" fill="#84BE84" rx="3" ry="3" style="stroke:#038048;stroke-width:1.0;"/><text fill="#000000" font-family="sans-serif" font-size="14" lengthAdjust="spacing" textLength="396.1152" x="1116" y="679.2285">updateCharts(expensesData : ObservableList&lt;Expense&gt;) : void</text><ellipse cx="1107" cy="693.5527" fill="#84BE84" rx="3" ry="3" style="stroke:#038048;stroke-width:1.0;"/><text fill="#000000" font-family="sans-serif" font-size="14" lengthAdjust="spacing" textLength="273.9092" x="1116" y="697.8496">showAboutInformation(contentText : String )</text><ellipse cx="1107" cy="712.1738" fill="#84BE84" rx="3" ry="3" style="stroke:#038048;stroke-width:1.0;"/><text fill="#000000" font-family="sans-serif" font-size="14" lengthAdjust="spacing" textLength="79.3584" x="1116" y="716.4707">close() : void</text></g><!--class ExpenseAreaChartController--><g id="elem_ExpenseAreaChartController"><rect codeLine="62" fill="#F1F1F1" height="103.8633" id="ExpenseAreaChartController" rx="2.5" ry="2.5" style="stroke:#181818;stroke-width:0.5;" width="724.79" x="1212" y="1078"/><ellipse cx="1480.6558" cy="1094" fill="#ADD1B2" rx="11" ry="11" style="stroke:#181818;stroke-width:1.0;"/><path d="M1483.4214,1089.875 Q1483.5776,1089.6563 1483.7651,1089.5469 Q1483.9526,1089.4375 1484.1714,1089.4375 Q1484.5464,1089.4375 1484.7808,1089.7031 Q1485.0151,1089.9531 1485.0151,1090.5625 L1485.0151,1092.0156 Q1485.0151,1092.625 1484.7808,1092.8906 Q1484.5464,1093.1563 1484.1714,1093.1563 Q1483.8276,1093.1563 1483.6245,1092.9531 Q1483.4214,1092.7656 1483.312,1092.25 Q1483.2651,1091.8906 1483.0776,1091.7031 Q1482.7495,1091.3281 1482.1401,1091.1094 Q1481.5308,1090.8906 1480.9058,1090.8906 Q1480.1401,1090.8906 1479.4995,1091.2188 Q1478.8745,1091.5469 1478.3745,1092.2969 Q1477.8901,1093.0469 1477.8901,1094.0781 L1477.8901,1095.1719 Q1477.8901,1096.4063 1478.7808,1097.2344 Q1479.6714,1098.0469 1481.2651,1098.0469 Q1482.2026,1098.0469 1482.8589,1097.7969 Q1483.2495,1097.6406 1483.6714,1097.2031 Q1483.937,1096.9375 1484.0776,1096.8594 Q1484.2339,1096.7813 1484.437,1096.7813 Q1484.7651,1096.7813 1485.0151,1097.0469 Q1485.2808,1097.2969 1485.2808,1097.6406 Q1485.2808,1097.9844 1484.937,1098.3906 Q1484.437,1098.9688 1483.6401,1099.2969 Q1482.562,1099.75 1481.2651,1099.75 Q1479.7495,1099.75 1478.5464,1099.125 Q1477.562,1098.625 1476.8745,1097.5625 Q1476.187,1096.4844 1476.187,1095.2031 L1476.187,1094.0469 Q1476.187,1092.7188 1476.7964,1091.5781 Q1477.4214,1090.4219 1478.5151,1089.8125 Q1479.6089,1089.1875 1480.8433,1089.1875 Q1481.5776,1089.1875 1482.2183,1089.3594 Q1482.8745,1089.5156 1483.4214,1089.875 Z " fill="#000000"/><text fill="#000000" font-family="sans-serif" font-size="14" lengthAdjust="spacing" textLength="178.9785" x="1501.1558" y="1099.7969">ExpenseAreaChartController</text><line style="stroke:#181818;stroke-width:0.5;" x1="1213" x2="1935.79" y1="1110" y2="1110"/><line style="stroke:#181818;stroke-width:0.5;" x1="1213" x2="1935.79" y1="1118" y2="1118"/><ellipse cx="1223" cy="1132.8105" fill="#84BE84" rx="3" ry="3" style="stroke:#038048;stroke-width:1.0;"/><text fill="#000000" font-family="sans-serif" font-size="14" lengthAdjust="spacing" textLength="79.3584" x="1232" y="1137.1074">close() : void</text><ellipse cx="1223" cy="1151.4316" fill="#84BE84" rx="3" ry="3" style="stroke:#038048;stroke-width:1.0;"/><text fill="#000000" font-family="sans-serif" font-size="14" lengthAdjust="spacing" textLength="698.79" x="1232" y="1155.7285">initCharts(expensesData : ObservableList&lt;Expense&gt;, mainPageViewController : MainPageViewController) : void</text><ellipse cx="1223" cy="1170.0527" fill="#84BE84" rx="3" ry="3" style="stroke:#038048;stroke-width:1.0;"/><text fill="#000000" font-family="sans-serif" font-size="14" lengthAdjust="spacing" textLength="396.1152" x="1232" y="1174.3496">updateCharts(expensesData : ObservableList&lt;Expense&gt;) : void</text></g><!--class ExpensePieChartController--><g id="elem_ExpensePieChartController"><rect codeLine="68" fill="#F1F1F1" height="103.8633" id="ExpensePieChartController" rx="2.5" ry="2.5" style="stroke:#181818;stroke-width:0.5;" width="724.79" x="1025" y="839.5"/><ellipse cx="1298.3247" cy="855.5" fill="#ADD1B2" rx="11" ry="11" style="stroke:#181818;stroke-width:1.0;"/><path d="M1301.0903,851.375 Q1301.2466,851.1563 1301.4341,851.0469 Q1301.6216,850.9375 1301.8403,850.9375 Q1302.2153,850.9375 1302.4497,851.2031 Q1302.6841,851.4531 1302.6841,852.0625 L1302.6841,853.5156 Q1302.6841,854.125 1302.4497,854.3906 Q1302.2153,854.6563 1301.8403,854.6563 Q1301.4966,854.6563 1301.2935,854.4531 Q1301.0903,854.2656 1300.981,853.75 Q1300.9341,853.3906 1300.7466,853.2031 Q1300.4185,852.8281 1299.8091,852.6094 Q1299.1997,852.3906 1298.5747,852.3906 Q1297.8091,852.3906 1297.1685,852.7188 Q1296.5435,853.0469 1296.0435,853.7969 Q1295.5591,854.5469 1295.5591,855.5781 L1295.5591,856.6719 Q1295.5591,857.9063 1296.4497,858.7344 Q1297.3403,859.5469 1298.9341,859.5469 Q1299.8716,859.5469 1300.5278,859.2969 Q1300.9185,859.1406 1301.3403,858.7031 Q1301.606,858.4375 1301.7466,858.3594 Q1301.9028,858.2813 1302.106,858.2813 Q1302.4341,858.2813 1302.6841,858.5469 Q1302.9497,858.7969 1302.9497,859.1406 Q1302.9497,859.4844 1302.606,859.8906 Q1302.106,860.4688 1301.3091,860.7969 Q1300.231,861.25 1298.9341,861.25 Q1297.4185,861.25 1296.2153,860.625 Q1295.231,860.125 1294.5435,859.0625 Q1293.856,857.9844 1293.856,856.7031 L1293.856,855.5469 Q1293.856,854.2188 1294.4653,853.0781 Q1295.0903,851.9219 1296.1841,851.3125 Q1297.2778,850.6875 1298.5122,850.6875 Q1299.2466,850.6875 1299.8872,850.8594 Q1300.5435,851.0156 1301.0903,851.375 Z " fill="#000000"/><text fill="#000000" font-family="sans-serif" font-size="14" lengthAdjust="spacing" textLength="169.6406" x="1318.8247" y="861.2969">ExpensePieChartController</text><line style="stroke:#181818;stroke-width:0.5;" x1="1026" x2="1748.79" y1="871.5" y2="871.5"/><line style="stroke:#181818;stroke-width:0.5;" x1="1026" x2="1748.79" y1="879.5" y2="879.5"/><ellipse cx="1036" cy="894.3105" fill="#84BE84" rx="3" ry="3" style="stroke:#038048;stroke-width:1.0;"/><text fill="#000000" font-family="sans-serif" font-size="14" lengthAdjust="spacing" textLength="79.3584" x="1045" y="898.6074">close() : void</text><ellipse cx="1036" cy="912.9316" fill="#84BE84" rx="3" ry="3" style="stroke:#038048;stroke-width:1.0;"/><text fill="#000000" font-family="sans-serif" font-size="14" lengthAdjust="spacing" textLength="698.79" x="1045" y="917.2285">initCharts(expensesData : ObservableList&lt;Expense&gt;, mainPageViewController : MainPageViewController) : void</text><ellipse cx="1036" cy="931.5527" fill="#84BE84" rx="3" ry="3" style="stroke:#038048;stroke-width:1.0;"/><text fill="#000000" font-family="sans-serif" font-size="14" lengthAdjust="spacing" textLength="396.1152" x="1045" y="935.8496">updateCharts(expensesData : ObservableList&lt;Expense&gt;) : void</text></g><!--class ExpenseRepository--><g id="elem_ExpenseRepository"><rect codeLine="74" fill="#F1F1F1" height="196.9688" id="ExpenseRepository" rx="2.5" ry="2.5" style="stroke:#181818;stroke-width:0.5;" width="385.4883" x="403" y="793"/><ellipse cx="530.7944" cy="809" fill="#ADD1B2" rx="11" ry="11" style="stroke:#181818;stroke-width:1.0;"/><path d="M533.5601,804.875 Q533.7163,804.6563 533.9038,804.5469 Q534.0913,804.4375 534.3101,804.4375 Q534.6851,804.4375 534.9194,804.7031 Q535.1538,804.9531 535.1538,805.5625 L535.1538,807.0156 Q535.1538,807.625 534.9194,807.8906 Q534.6851,808.1563 534.3101,808.1563 Q533.9663,808.1563 533.7632,807.9531 Q533.5601,807.7656 533.4507,807.25 Q533.4038,806.8906 533.2163,806.7031 Q532.8882,806.3281 532.2788,806.1094 Q531.6694,805.8906 531.0444,805.8906 Q530.2788,805.8906 529.6382,806.2188 Q529.0132,806.5469 528.5132,807.2969 Q528.0288,808.0469 528.0288,809.0781 L528.0288,810.1719 Q528.0288,811.4063 528.9194,812.2344 Q529.8101,813.0469 531.4038,813.0469 Q532.3413,813.0469 532.9976,812.7969 Q533.3882,812.6406 533.8101,812.2031 Q534.0757,811.9375 534.2163,811.8594 Q534.3726,811.7813 534.5757,811.7813 Q534.9038,811.7813 535.1538,812.0469 Q535.4194,812.2969 535.4194,812.6406 Q535.4194,812.9844 535.0757,813.3906 Q534.5757,813.9688 533.7788,814.2969 Q532.7007,814.75 531.4038,814.75 Q529.8882,814.75 528.6851,814.125 Q527.7007,813.625 527.0132,812.5625 Q526.3257,811.4844 526.3257,810.2031 L526.3257,809.0469 Q526.3257,807.7188 526.9351,806.5781 Q527.5601,805.4219 528.6538,804.8125 Q529.7476,804.1875 530.9819,804.1875 Q531.7163,804.1875 532.3569,804.3594 Q533.0132,804.5156 533.5601,804.875 Z " fill="#000000"/><text fill="#000000" font-family="sans-serif" font-size="14" lengthAdjust="spacing" textLength="121.3994" x="551.2944" y="814.7969">ExpenseRepository</text><line style="stroke:#181818;stroke-width:0.5;" x1="404" x2="787.4883" y1="825" y2="825"/><rect fill="none" height="6" style="stroke:#C82930;stroke-width:1.0;" width="6" x="411" y="836.8105"/><text fill="#000000" font-family="sans-serif" font-size="14" lengthAdjust="spacing" textLength="84.8271" x="423" y="844.1074">LOG : Logger</text><rect fill="none" height="6" style="stroke:#C82930;stroke-width:1.0;" width="6" x="411" y="855.4316"/><text fill="#000000" font-family="sans-serif" font-size="14" lengthAdjust="spacing" textLength="228.7646" x="423" y="862.7285">hikariDataSource : HikariDataSource</text><line style="stroke:#181818;stroke-width:0.5;" x1="404" x2="787.4883" y1="870.2422" y2="870.2422"/><ellipse cx="414" cy="885.0527" fill="#84BE84" rx="3" ry="3" style="stroke:#038048;stroke-width:1.0;"/><text fill="#000000" font-family="sans-serif" font-size="14" lengthAdjust="spacing" textLength="359.4883" x="423" y="889.3496">ExpenseRepository(hikariDataSource : HikariDataSource)</text><ellipse cx="414" cy="903.6738" fill="#84BE84" rx="3" ry="3" style="stroke:#038048;stroke-width:1.0;"/><text fill="#000000" font-family="sans-serif" font-size="14" lengthAdjust="spacing" textLength="248.2676" x="423" y="907.9707">findById(id : Long) : Optional&lt;Expense&gt;</text><ellipse cx="414" cy="922.2949" fill="#84BE84" rx="3" ry="3" style="stroke:#038048;stroke-width:1.0;"/><text fill="#000000" font-family="sans-serif" font-size="14" lengthAdjust="spacing" textLength="176.6543" x="423" y="926.5918">findAll() : Iterable&lt;Expense&gt;</text><ellipse cx="414" cy="940.916" fill="#84BE84" rx="3" ry="3" style="stroke:#038048;stroke-width:1.0;"/><text fill="#000000" font-family="sans-serif" font-size="14" lengthAdjust="spacing" textLength="204.6611" x="423" y="945.2129">save(entity : Expense) : Expense</text><ellipse cx="414" cy="959.5371" fill="#84BE84" rx="3" ry="3" style="stroke:#038048;stroke-width:1.0;"/><text fill="#000000" font-family="sans-serif" font-size="14" lengthAdjust="spacing" textLength="166.5439" x="423" y="963.834">deleteById(id : Long) : void</text><ellipse cx="414" cy="978.1582" fill="#84BE84" rx="3" ry="3" style="stroke:#038048;stroke-width:1.0;"/><text fill="#000000" font-family="sans-serif" font-size="14" lengthAdjust="spacing" textLength="100.3789" x="423" y="982.4551">deleteAll() : void</text></g><!--class Expense--><g id="elem_Expense"><rect codeLine="85" fill="#F1F1F1" height="159.7266" id="Expense" rx="2.5" ry="2.5" style="stroke:#181818;stroke-width:0.5;" width="215.0889" x="611" y="1050"/><ellipse cx="687.0532" cy="1066" fill="#ADD1B2" rx="11" ry="11" style="stroke:#181818;stroke-width:1.0;"/><path d="M689.8188,1061.875 Q689.9751,1061.6563 690.1626,1061.5469 Q690.3501,1061.4375 690.5688,1061.4375 Q690.9438,1061.4375 691.1782,1061.7031 Q691.4126,1061.9531 691.4126,1062.5625 L691.4126,1064.0156 Q691.4126,1064.625 691.1782,1064.8906 Q690.9438,1065.1563 690.5688,1065.1563 Q690.2251,1065.1563 690.022,1064.9531 Q689.8188,1064.7656 689.7095,1064.25 Q689.6626,1063.8906 689.4751,1063.7031 Q689.147,1063.3281 688.5376,1063.1094 Q687.9282,1062.8906 687.3032,1062.8906 Q686.5376,1062.8906 685.897,1063.2188 Q685.272,1063.5469 684.772,1064.2969 Q684.2876,1065.0469 684.2876,1066.0781 L684.2876,1067.1719 Q684.2876,1068.4063 685.1782,1069.2344 Q686.0688,1070.0469 687.6626,1070.0469 Q688.6001,1070.0469 689.2563,1069.7969 Q689.647,1069.6406 690.0688,1069.2031 Q690.3345,1068.9375 690.4751,1068.8594 Q690.6313,1068.7813 690.8345,1068.7813 Q691.1626,1068.7813 691.4126,1069.0469 Q691.6782,1069.2969 691.6782,1069.6406 Q691.6782,1069.9844 691.3345,1070.3906 Q690.8345,1070.9688 690.0376,1071.2969 Q688.9595,1071.75 687.6626,1071.75 Q686.147,1071.75 684.9438,1071.125 Q683.9595,1070.625 683.272,1069.5625 Q682.5845,1068.4844 682.5845,1067.2031 L682.5845,1066.0469 Q682.5845,1064.7188 683.1938,1063.5781 Q683.8188,1062.4219 684.9126,1061.8125 Q686.0063,1061.1875 687.2407,1061.1875 Q687.9751,1061.1875 688.6157,1061.3594 Q689.272,1061.5156 689.8188,1061.875 Z " fill="#000000"/><text fill="#000000" font-family="sans-serif" font-size="14" lengthAdjust="spacing" textLength="54.4824" x="707.5532" y="1071.7969">Expense</text><line style="stroke:#181818;stroke-width:0.5;" x1="612" x2="825.0889" y1="1082" y2="1082"/><rect fill="none" height="6" style="stroke:#C82930;stroke-width:1.0;" width="6" x="619" y="1093.8105"/><text fill="#000000" font-family="sans-serif" font-size="14" lengthAdjust="spacing" textLength="53.71" x="631" y="1101.1074">id : Long</text><rect fill="none" height="6" style="stroke:#C82930;stroke-width:1.0;" width="6" x="619" y="1112.4316"/><text fill="#000000" font-family="sans-serif" font-size="14" lengthAdjust="spacing" textLength="102.7305" x="631" y="1119.7285">amount : Double</text><rect fill="none" height="6" style="stroke:#C82930;stroke-width:1.0;" width="6" x="619" y="1131.0527"/><text fill="#000000" font-family="sans-serif" font-size="14" lengthAdjust="spacing" textLength="101.958" x="631" y="1138.3496">date : LocalDate</text><rect fill="none" height="6" style="stroke:#C82930;stroke-width:1.0;" width="6" x="619" y="1149.6738"/><text fill="#000000" font-family="sans-serif" font-size="14" lengthAdjust="spacing" textLength="115.9443" x="631" y="1156.9707">description : String</text><line style="stroke:#181818;stroke-width:0.5;" x1="612" x2="825.0889" y1="1164.4844" y2="1164.4844"/><ellipse cx="622" cy="1179.2949" fill="#84BE84" rx="3" ry="3" style="stroke:#038048;stroke-width:1.0;"/><text fill="#000000" font-family="sans-serif" font-size="14" lengthAdjust="spacing" textLength="185.1924" x="631" y="1183.5918">getAllExpenseTypes() : String</text><ellipse cx="622" cy="1197.916" fill="#84BE84" rx="3" ry="3" style="stroke:#038048;stroke-width:1.0;"/><text fill="#000000" font-family="sans-serif" font-size="14" lengthAdjust="spacing" textLength="189.0889" x="631" y="1202.2129">getAllPayingMethods() : String</text></g><!--class ExpenseType--><g id="elem_ExpenseType"><rect codeLine="94" fill="#F1F1F1" height="159.7266" id="ExpenseType" rx="2.5" ry="2.5" style="stroke:#181818;stroke-width:0.5;" width="117.6064" x="581.5" y="1270"/><ellipse cx="596.5" cy="1286" fill="#EB937F" rx="11" ry="11" style="stroke:#181818;stroke-width:1.0;"/><path d="M595.3594,1286.7969 L595.3594,1289.2969 L599.6875,1289.2969 L599.6875,1288.375 Q599.6875,1287.7656 599.9219,1287.5 Q600.1719,1287.2344 600.5469,1287.2344 Q600.9219,1287.2344 601.1563,1287.5 Q601.3906,1287.7656 601.3906,1288.375 L601.3906,1291 L593.3906,1291 Q592.7656,1291 592.5,1290.7656 Q592.25,1290.5313 592.25,1290.1406 Q592.25,1289.7656 592.5156,1289.5313 Q592.7813,1289.2969 593.3906,1289.2969 L593.6563,1289.2969 L593.6563,1282.6406 L593.3906,1282.6406 Q592.7656,1282.6406 592.5,1282.4063 Q592.25,1282.1719 592.25,1281.7813 Q592.25,1281.4063 592.5,1281.1719 Q592.7656,1280.9375 593.3906,1280.9375 L601.0156,1280.9375 L601.0156,1283.5313 Q601.0156,1284.1406 600.7813,1284.4063 Q600.5625,1284.6563 600.1719,1284.6563 Q599.7969,1284.6563 599.5625,1284.4063 Q599.3281,1284.1406 599.3281,1283.5313 L599.3281,1282.6406 L595.3594,1282.6406 L595.3594,1285.0938 L596.8438,1285.0938 Q596.8438,1284.4375 596.9688,1284.25 Q597.2344,1283.8438 597.7031,1283.8438 Q598.0781,1283.8438 598.3125,1284.1094 Q598.5469,1284.3594 598.5469,1284.9688 L598.5469,1286.9375 Q598.5469,1287.4844 598.4219,1287.6719 Q598.1563,1288.0625 597.7031,1288.0625 Q597.2344,1288.0625 596.9688,1287.6563 Q596.8438,1287.4688 596.8438,1286.7969 L595.3594,1286.7969 Z " fill="#000000"/><text fill="#000000" font-family="sans-serif" font-size="14" lengthAdjust="spacing" textLength="85.6064" x="610.5" y="1291.7969">ExpenseType</text><line style="stroke:#181818;stroke-width:0.5;" x1="582.5" x2="698.1064" y1="1302" y2="1302"/><text fill="#000000" font-family="sans-serif" font-size="14" lengthAdjust="spacing" textLength="88.71" x="587.5" y="1321.1074">Miscellaneous</text><text fill="#000000" font-family="sans-serif" font-size="14" lengthAdjust="spacing" textLength="77.041" x="587.5" y="1339.7285">Subscription</text><text fill="#000000" font-family="sans-serif" font-size="14" lengthAdjust="spacing" textLength="62.2617" x="587.5" y="1358.3496">EatingOut</text><text fill="#000000" font-family="sans-serif" font-size="14" lengthAdjust="spacing" textLength="60.6826" x="587.5" y="1376.9707">Groceries</text><text fill="#000000" font-family="sans-serif" font-size="14" lengthAdjust="spacing" textLength="29.5723" x="587.5" y="1395.5918">Debt</text><text fill="#000000" font-family="sans-serif" font-size="14" lengthAdjust="spacing" textLength="22.5586" x="587.5" y="1414.2129">Car</text><line style="stroke:#181818;stroke-width:0.5;" x1="582.5" x2="698.1064" y1="1421.7266" y2="1421.7266"/></g><!--class PayingMethod--><g id="elem_PayingMethod"><rect codeLine="102" fill="#F1F1F1" height="85.2422" id="PayingMethod" rx="2.5" ry="2.5" style="stroke:#181818;stroke-width:0.5;" width="121.5029" x="734.5" y="1307.5"/><ellipse cx="749.5" cy="1323.5" fill="#EB937F" rx="11" ry="11" style="stroke:#181818;stroke-width:1.0;"/><path d="M748.3594,1324.2969 L748.3594,1326.7969 L752.6875,1326.7969 L752.6875,1325.875 Q752.6875,1325.2656 752.9219,1325 Q753.1719,1324.7344 753.5469,1324.7344 Q753.9219,1324.7344 754.1563,1325 Q754.3906,1325.2656 754.3906,1325.875 L754.3906,1328.5 L746.3906,1328.5 Q745.7656,1328.5 745.5,1328.2656 Q745.25,1328.0313 745.25,1327.6406 Q745.25,1327.2656 745.5156,1327.0313 Q745.7813,1326.7969 746.3906,1326.7969 L746.6563,1326.7969 L746.6563,1320.1406 L746.3906,1320.1406 Q745.7656,1320.1406 745.5,1319.9063 Q745.25,1319.6719 745.25,1319.2813 Q745.25,1318.9063 745.5,1318.6719 Q745.7656,1318.4375 746.3906,1318.4375 L754.0156,1318.4375 L754.0156,1321.0313 Q754.0156,1321.6406 753.7813,1321.9063 Q753.5625,1322.1563 753.1719,1322.1563 Q752.7969,1322.1563 752.5625,1321.9063 Q752.3281,1321.6406 752.3281,1321.0313 L752.3281,1320.1406 L748.3594,1320.1406 L748.3594,1322.5938 L749.8438,1322.5938 Q749.8438,1321.9375 749.9688,1321.75 Q750.2344,1321.3438 750.7031,1321.3438 Q751.0781,1321.3438 751.3125,1321.6094 Q751.5469,1321.8594 751.5469,1322.4688 L751.5469,1324.4375 Q751.5469,1324.9844 751.4219,1325.1719 Q751.1563,1325.5625 750.7031,1325.5625 Q750.2344,1325.5625 749.9688,1325.1563 Q749.8438,1324.9688 749.8438,1324.2969 L748.3594,1324.2969 Z " fill="#000000"/><text fill="#000000" font-family="sans-serif" font-size="14" lengthAdjust="spacing" textLength="89.5029" x="763.5" y="1329.2969">PayingMethod</text><line style="stroke:#181818;stroke-width:0.5;" x1="735.5" x2="855.0029" y1="1339.5" y2="1339.5"/><text fill="#000000" font-family="sans-serif" font-size="14" lengthAdjust="spacing" textLength="30.3447" x="740.5" y="1358.6074">Card</text><text fill="#000000" font-family="sans-serif" font-size="14" lengthAdjust="spacing" textLength="32.6826" x="740.5" y="1377.2285">Cash</text><line style="stroke:#181818;stroke-width:0.5;" x1="735.5" x2="855.0029" y1="1384.7422" y2="1384.7422"/></g><!--class UserRepository--><g id="elem_UserRepository"><rect codeLine="107" fill="#F1F1F1" height="178.3477" id="UserRepository" rx="2.5" ry="2.5" style="stroke:#181818;stroke-width:0.5;" width="360.5645" x="7" y="802.5"/><ellipse cx="134.7944" cy="818.5" fill="#ADD1B2" rx="11" ry="11" style="stroke:#181818;stroke-width:1.0;"/><path d="M137.5601,814.375 Q137.7163,814.1563 137.9038,814.0469 Q138.0913,813.9375 138.3101,813.9375 Q138.6851,813.9375 138.9194,814.2031 Q139.1538,814.4531 139.1538,815.0625 L139.1538,816.5156 Q139.1538,817.125 138.9194,817.3906 Q138.6851,817.6563 138.3101,817.6563 Q137.9663,817.6563 137.7632,817.4531 Q137.5601,817.2656 137.4507,816.75 Q137.4038,816.3906 137.2163,816.2031 Q136.8882,815.8281 136.2788,815.6094 Q135.6694,815.3906 135.0444,815.3906 Q134.2788,815.3906 133.6382,815.7188 Q133.0132,816.0469 132.5132,816.7969 Q132.0288,817.5469 132.0288,818.5781 L132.0288,819.6719 Q132.0288,820.9063 132.9194,821.7344 Q133.8101,822.5469 135.4038,822.5469 Q136.3413,822.5469 136.9976,822.2969 Q137.3882,822.1406 137.8101,821.7031 Q138.0757,821.4375 138.2163,821.3594 Q138.3726,821.2813 138.5757,821.2813 Q138.9038,821.2813 139.1538,821.5469 Q139.4194,821.7969 139.4194,822.1406 Q139.4194,822.4844 139.0757,822.8906 Q138.5757,823.4688 137.7788,823.7969 Q136.7007,824.25 135.4038,824.25 Q133.8882,824.25 132.6851,823.625 Q131.7007,823.125 131.0132,822.0625 Q130.3257,820.9844 130.3257,819.7031 L130.3257,818.5469 Q130.3257,817.2188 130.9351,816.0781 Q131.5601,814.9219 132.6538,814.3125 Q133.7476,813.6875 134.9819,813.6875 Q135.7163,813.6875 136.3569,813.8594 Q137.0132,814.0156 137.5601,814.375 Z " fill="#000000"/><text fill="#000000" font-family="sans-serif" font-size="14" lengthAdjust="spacing" textLength="96.4756" x="155.2944" y="824.2969">UserRepository</text><line style="stroke:#181818;stroke-width:0.5;" x1="8" x2="366.5645" y1="834.5" y2="834.5"/><rect fill="none" height="6" style="stroke:#C82930;stroke-width:1.0;" width="6" x="15" y="846.3105"/><text fill="#000000" font-family="sans-serif" font-size="14" lengthAdjust="spacing" textLength="228.7646" x="27" y="853.6074">hikariDataSource : HikariDataSource</text><line style="stroke:#181818;stroke-width:0.5;" x1="8" x2="366.5645" y1="861.1211" y2="861.1211"/><ellipse cx="18" cy="875.9316" fill="#84BE84" rx="3" ry="3" style="stroke:#038048;stroke-width:1.0;"/><text fill="#000000" font-family="sans-serif" font-size="14" lengthAdjust="spacing" textLength="334.5645" x="27" y="880.2285">UserRepository(hikariDataSource : HikariDataSource)</text><ellipse cx="18" cy="894.5527" fill="#84BE84" rx="3" ry="3" style="stroke:#038048;stroke-width:1.0;"/><text fill="#000000" font-family="sans-serif" font-size="14" lengthAdjust="spacing" textLength="223.3438" x="27" y="898.8496">findById(id : Long) : Optional&lt;User&gt;</text><ellipse cx="18" cy="913.1738" fill="#84BE84" rx="3" ry="3" style="stroke:#038048;stroke-width:1.0;"/><text fill="#000000" font-family="sans-serif" font-size="14" lengthAdjust="spacing" textLength="151.7305" x="27" y="917.4707">findAll() : Iterable&lt;User&gt;</text><ellipse cx="18" cy="931.7949" fill="#84BE84" rx="3" ry="3" style="stroke:#038048;stroke-width:1.0;"/><text fill="#000000" font-family="sans-serif" font-size="14" lengthAdjust="spacing" textLength="154.8135" x="27" y="936.0918">save(entity : User) : User</text><ellipse cx="18" cy="950.416" fill="#84BE84" rx="3" ry="3" style="stroke:#038048;stroke-width:1.0;"/><text fill="#000000" font-family="sans-serif" font-size="14" lengthAdjust="spacing" textLength="166.5439" x="27" y="954.7129">deleteById(id : Long) : void</text><ellipse cx="18" cy="969.0371" fill="#84BE84" rx="3" ry="3" style="stroke:#038048;stroke-width:1.0;"/><text fill="#000000" font-family="sans-serif" font-size="14" lengthAdjust="spacing" textLength="100.3789" x="27" y="973.334">deleteAll() : void</text></g><!--class User--><g id="elem_User"><rect codeLine="116" fill="#F1F1F1" height="103.8633" id="User" rx="2.5" ry="2.5" style="stroke:#181818;stroke-width:0.5;" width="136.4961" x="119.5" y="1078"/><ellipse cx="168.7188" cy="1094" fill="#ADD1B2" rx="11" ry="11" style="stroke:#181818;stroke-width:1.0;"/><path d="M171.4844,1089.875 Q171.6406,1089.6563 171.8281,1089.5469 Q172.0156,1089.4375 172.2344,1089.4375 Q172.6094,1089.4375 172.8438,1089.7031 Q173.0781,1089.9531 173.0781,1090.5625 L173.0781,1092.0156 Q173.0781,1092.625 172.8438,1092.8906 Q172.6094,1093.1563 172.2344,1093.1563 Q171.8906,1093.1563 171.6875,1092.9531 Q171.4844,1092.7656 171.375,1092.25 Q171.3281,1091.8906 171.1406,1091.7031 Q170.8125,1091.3281 170.2031,1091.1094 Q169.5938,1090.8906 168.9688,1090.8906 Q168.2031,1090.8906 167.5625,1091.2188 Q166.9375,1091.5469 166.4375,1092.2969 Q165.9531,1093.0469 165.9531,1094.0781 L165.9531,1095.1719 Q165.9531,1096.4063 166.8438,1097.2344 Q167.7344,1098.0469 169.3281,1098.0469 Q170.2656,1098.0469 170.9219,1097.7969 Q171.3125,1097.6406 171.7344,1097.2031 Q172,1096.9375 172.1406,1096.8594 Q172.2969,1096.7813 172.5,1096.7813 Q172.8281,1096.7813 173.0781,1097.0469 Q173.3438,1097.2969 173.3438,1097.6406 Q173.3438,1097.9844 173,1098.3906 Q172.5,1098.9688 171.7031,1099.2969 Q170.625,1099.75 169.3281,1099.75 Q167.8125,1099.75 166.6094,1099.125 Q165.625,1098.625 164.9375,1097.5625 Q164.25,1096.4844 164.25,1095.2031 L164.25,1094.0469 Q164.25,1092.7188 164.8594,1091.5781 Q165.4844,1090.4219 166.5781,1089.8125 Q167.6719,1089.1875 168.9063,1089.1875 Q169.6406,1089.1875 170.2813,1089.3594 Q170.9375,1089.5156 171.4844,1089.875 Z " fill="#000000"/><text fill="#000000" font-family="sans-serif" font-size="14" lengthAdjust="spacing" textLength="29.5586" x="189.2188" y="1099.7969">User</text><line style="stroke:#181818;stroke-width:0.5;" x1="120.5" x2="254.9961" y1="1110" y2="1110"/><rect fill="none" height="6" style="stroke:#C82930;stroke-width:1.0;" width="6" x="127.5" y="1121.8105"/><text fill="#000000" font-family="sans-serif" font-size="14" lengthAdjust="spacing" textLength="53.71" x="139.5" y="1129.1074">id : Long</text><rect fill="none" height="6" style="stroke:#C82930;stroke-width:1.0;" width="6" x="127.5" y="1140.4316"/><text fill="#000000" font-family="sans-serif" font-size="14" lengthAdjust="spacing" textLength="110.4961" x="139.5" y="1147.7285">username : String</text><rect fill="none" height="6" style="stroke:#C82930;stroke-width:1.0;" width="6" x="127.5" y="1159.0527"/><text fill="#000000" font-family="sans-serif" font-size="14" lengthAdjust="spacing" textLength="108.1582" x="139.5" y="1166.3496">password : String</text><line style="stroke:#181818;stroke-width:0.5;" x1="120.5" x2="254.9961" y1="1173.8633" y2="1173.8633"/></g><!--class AddExpenseDialog--><g id="elem_AddExpenseDialog"><rect codeLine="122" fill="#F1F1F1" height="85.2422" id="AddExpenseDialog" rx="2.5" ry="2.5" style="stroke:#181818;stroke-width:0.5;" width="154.4063" x="764.5" y="620"/><ellipse cx="780.9959" cy="636" fill="#ADD1B2" rx="11" ry="11" style="stroke:#181818;stroke-width:1.0;"/><path d="M783.7615,631.875 Q783.9178,631.6563 784.1053,631.5469 Q784.2928,631.4375 784.5115,631.4375 Q784.8865,631.4375 785.1209,631.7031 Q785.3553,631.9531 785.3553,632.5625 L785.3553,634.0156 Q785.3553,634.625 785.1209,634.8906 Q784.8865,635.1563 784.5115,635.1563 Q784.1678,635.1563 783.9646,634.9531 Q783.7615,634.7656 783.6521,634.25 Q783.6053,633.8906 783.4178,633.7031 Q783.0896,633.3281 782.4803,633.1094 Q781.8709,632.8906 781.2459,632.8906 Q780.4803,632.8906 779.8396,633.2188 Q779.2146,633.5469 778.7146,634.2969 Q778.2303,635.0469 778.2303,636.0781 L778.2303,637.1719 Q778.2303,638.4063 779.1209,639.2344 Q780.0115,640.0469 781.6053,640.0469 Q782.5428,640.0469 783.199,639.7969 Q783.5896,639.6406 784.0115,639.2031 Q784.2771,638.9375 784.4178,638.8594 Q784.574,638.7813 784.7771,638.7813 Q785.1053,638.7813 785.3553,639.0469 Q785.6209,639.2969 785.6209,639.6406 Q785.6209,639.9844 785.2771,640.3906 Q784.7771,640.9688 783.9803,641.2969 Q782.9021,641.75 781.6053,641.75 Q780.0896,641.75 778.8865,641.125 Q777.9021,640.625 777.2146,639.5625 Q776.5271,638.4844 776.5271,637.2031 L776.5271,636.0469 Q776.5271,634.7188 777.1365,633.5781 Q777.7615,632.4219 778.8553,631.8125 Q779.949,631.1875 781.1834,631.1875 Q781.9178,631.1875 782.5584,631.3594 Q783.2146,631.5156 783.7615,631.875 Z " fill="#000000"/><text fill="#000000" font-family="sans-serif" font-size="14" lengthAdjust="spacing" textLength="119.082" x="795.3283" y="641.7969">AddExpenseDialog</text><line style="stroke:#181818;stroke-width:0.5;" x1="765.5" x2="917.9063" y1="652" y2="652"/><line style="stroke:#181818;stroke-width:0.5;" x1="765.5" x2="917.9063" y1="660" y2="660"/><ellipse cx="775.5" cy="674.8105" fill="#84BE84" rx="3" ry="3" style="stroke:#038048;stroke-width:1.0;"/><text fill="#000000" font-family="sans-serif" font-size="14" lengthAdjust="spacing" textLength="96.4756" x="784.5" y="679.1074">initialize() : void</text><ellipse cx="775.5" cy="693.4316" fill="#84BE84" rx="3" ry="3" style="stroke:#038048;stroke-width:1.0;"/><text fill="#000000" font-family="sans-serif" font-size="14" lengthAdjust="spacing" textLength="128.4063" x="784.5" y="697.7285">AddExpenseDialog()</text></g><!--class Dialog--><g id="elem_Dialog"><rect fill="#F1F1F1" height="48" id="Dialog" rx="2.5" ry="2.5" style="stroke:#181818;stroke-width:0.5;" width="71.6895" x="657.5" y="638.5"/><ellipse cx="672.5" cy="654.5" fill="#ADD1B2" rx="11" ry="11" style="stroke:#181818;stroke-width:1.0;"/><path d="M675.2656,650.375 Q675.4219,650.1563 675.6094,650.0469 Q675.7969,649.9375 676.0156,649.9375 Q676.3906,649.9375 676.625,650.2031 Q676.8594,650.4531 676.8594,651.0625 L676.8594,652.5156 Q676.8594,653.125 676.625,653.3906 Q676.3906,653.6563 676.0156,653.6563 Q675.6719,653.6563 675.4688,653.4531 Q675.2656,653.2656 675.1563,652.75 Q675.1094,652.3906 674.9219,652.2031 Q674.5938,651.8281 673.9844,651.6094 Q673.375,651.3906 672.75,651.3906 Q671.9844,651.3906 671.3438,651.7188 Q670.7188,652.0469 670.2188,652.7969 Q669.7344,653.5469 669.7344,654.5781 L669.7344,655.6719 Q669.7344,656.9063 670.625,657.7344 Q671.5156,658.5469 673.1094,658.5469 Q674.0469,658.5469 674.7031,658.2969 Q675.0938,658.1406 675.5156,657.7031 Q675.7813,657.4375 675.9219,657.3594 Q676.0781,657.2813 676.2813,657.2813 Q676.6094,657.2813 676.8594,657.5469 Q677.125,657.7969 677.125,658.1406 Q677.125,658.4844 676.7813,658.8906 Q676.2813,659.4688 675.4844,659.7969 Q674.4063,660.25 673.1094,660.25 Q671.5938,660.25 670.3906,659.625 Q669.4063,659.125 668.7188,658.0625 Q668.0313,656.9844 668.0313,655.7031 L668.0313,654.5469 Q668.0313,653.2188 668.6406,652.0781 Q669.2656,650.9219 670.3594,650.3125 Q671.4531,649.6875 672.6875,649.6875 Q673.4219,649.6875 674.0625,649.8594 Q674.7188,650.0156 675.2656,650.375 Z " fill="#000000"/><text fill="#000000" font-family="sans-serif" font-size="14" lengthAdjust="spacing" textLength="39.6895" x="686.5" y="660.2969">Dialog</text><line style="stroke:#181818;stroke-width:0.5;" x1="658.5" x2="728.1895" y1="670.5" y2="670.5"/><line style="stroke:#181818;stroke-width:0.5;" x1="658.5" x2="728.1895" y1="678.5" y2="678.5"/></g><!--reverse link Application to App--><g id="link_Application_App"><path codeLine="129" d="M580.5,92.28 C580.5,109.48 580.5,113.24 580.5,133.97 " fill="none" id="Application-backto-App" style="stroke:#181818;stroke-width:1.0;"/><polygon fill="none" points="580.5,74.28,574.5,92.28,586.5,92.28,580.5,74.28" style="stroke:#181818;stroke-width:1.0;"/></g><!--link App to ViewController--><g id="link_App_ViewController"><path codeLine="130" d="M715.62,204.5 C727.39,204.5 733.17,204.5 744.94,204.5 " fill="none" id="App-to-ViewController" style="stroke:#181818;stroke-width:1.0;"/><polygon fill="#181818" points="750.94,204.5,741.94,200.5,745.94,204.5,741.94,208.5,750.94,204.5" style="stroke:#181818;stroke-width:1.0;"/></g><!--reverse link DataSource to ViewController--><g id="link_DataSource_ViewController"><path codeLine="132" d="M940.6304,92.2457 C942.1904,117.4857 943.25,134.58 944.93,161.82 " fill="none" id="DataSource-backto-ViewController" style="stroke:#181818;stroke-width:1.0;"/><polygon fill="none" points="939.52,74.28,934.6418,92.6159,946.619,91.8756,939.52,74.28" style="stroke:#181818;stroke-width:1.0;"/></g><!--reverse link Closeable to ViewController--><g id="link_Closeable_ViewController"><path codeLine="133" d="M1153.4972,81.7037 C1110.5372,107.1137 1064.87,134.1 1017.7,161.99 " fill="none" id="Closeable-backto-ViewController" style="stroke:#181818;stroke-width:1.0;"/><polygon fill="none" points="1168.99,72.54,1150.4426,76.5394,1156.5518,86.868,1168.99,72.54" style="stroke:#181818;stroke-width:1.0;"/></g><!--reverse link ViewController to LoginViewController--><g id="link_ViewController_LoginViewController"><path codeLine="135" d="M855.0107,255.7278 C809.6407,280.3578 765.96,304.09 709.36,334.82 " fill="none" id="ViewController-backto-LoginViewController" style="stroke:#181818;stroke-width:1.0;stroke-dasharray:7.0,7.0;"/><polygon fill="none" points="870.83,247.14,852.1481,250.4547,857.8733,261.0009,870.83,247.14" style="stroke:#181818;stroke-width:1.0;"/></g><!--link LoginViewController to Repository--><g id="link_LoginViewController_Repository"><path codeLine="136" d="M523.91,532.09 C522.76,552.15 521.9134,566.9098 520.8334,585.7498 " fill="none" id="LoginViewController-to-Repository" style="stroke:#181818;stroke-width:1.0;"/><polygon fill="#181818" points="520.49,591.74,524.9985,582.9837,520.7762,586.7482,517.0116,582.5258,520.49,591.74" style="stroke:#181818;stroke-width:1.0;"/></g><!--reverse link ViewController to MainPageViewController--><g id="link_ViewController_MainPageViewController"><path codeLine="138" d="M951.961,265.09 C954.581,300.16 957.04,332.83 959.99,372.31 " fill="none" id="ViewController-backto-MainPageViewController" style="stroke:#181818;stroke-width:1.0;stroke-dasharray:7.0,7.0;"/><polygon fill="none" points="950.62,247.14,945.9777,265.537,957.9443,264.643,950.62,247.14" style="stroke:#181818;stroke-width:1.0;"/></g><!--link MainPageViewController to Repository--><g id="link_MainPageViewController_Repository"><path codeLine="139" d="M836.7,494.51 C776.72,523.21 704.52,558.54 640.5,592 C634.49,595.14 633.6104,595.5608 627.4204,598.9008 " fill="none" id="MainPageViewController-to-Repository" style="stroke:#181818;stroke-width:1.0;"/><polygon fill="#181818" points="622.14,601.75,631.96,600.9965,626.5403,599.3757,628.1611,593.956,622.14,601.75" style="stroke:#181818;stroke-width:1.0;"/></g><!--link MainPageViewController to ChartController--><g id="link_MainPageViewController_ChartController"><path codeLine="140" d="M1095.26,494.59 C1167.15,527.62 1250.608,565.9748 1322.468,598.9948 " fill="none" id="MainPageViewController-to-ChartController" style="stroke:#181818;stroke-width:1.0;"/><polygon fill="#181818" points="1327.92,601.5,1321.4122,594.1075,1323.3767,599.4123,1318.0719,601.3768,1327.92,601.5" style="stroke:#181818;stroke-width:1.0;"/></g><!--link MainPageViewController to AddExpenseDialog--><g id="link_MainPageViewController_AddExpenseDialog"><path codeLine="141" d="M931.86,494.74 C910.51,534.14 886.0182,579.3445 867.0282,614.3945 " fill="none" id="MainPageViewController-to-AddExpenseDialog" style="stroke:#181818;stroke-width:1.0;"/><polygon fill="#181818" points="864.17,619.67,871.9743,613.6623,866.5519,615.2738,864.9404,609.8513,864.17,619.67" style="stroke:#181818;stroke-width:1.0;"/></g><!--reverse link Closeable to ChartController--><g id="link_Closeable_ChartController"><path codeLine="143" d="M1211.231,91.9057 C1195.461,175.1857 1168.13,381.5 1257.5,532 C1274.14,560.02 1299.47,583.03 1326.6,601.47 " fill="none" id="Closeable-backto-ChartController" style="stroke:#181818;stroke-width:1.0;"/><polygon fill="none" points="1214.58,74.22,1205.3358,90.7894,1217.1262,93.022,1214.58,74.22" style="stroke:#181818;stroke-width:1.0;"/></g><!--reverse link DataToCharts to ChartController--><g id="link_DataToCharts_ChartController"><path codeLine="144" d="M1593.5231,490.2731 C1565.8631,525.3431 1537.1,561.83 1505.96,601.31 " fill="none" id="DataToCharts-backto-ChartController" style="stroke:#181818;stroke-width:1.0;"/><polygon fill="none" points="1604.67,476.14,1588.812,486.5575,1598.2341,493.9888,1604.67,476.14" style="stroke:#181818;stroke-width:1.0;"/></g><!--reverse link ChartController to ExpenseAreaChartController--><g id="link_ChartController_ExpenseAreaChartController"><path codeLine="146" d="M1705.771,732.6308 C1736.311,750.1608 1748.09,763.82 1767.5,793 C1815.99,865.9 1807.41,912.07 1767.5,990 C1748.72,1026.66 1715.28,1055.86 1681.44,1077.84 " fill="none" id="ChartController-backto-ExpenseAreaChartController" style="stroke:#181818;stroke-width:1.0;stroke-dasharray:7.0,7.0;"/><polygon fill="none" points="1690.16,723.67,1702.7841,737.8344,1708.758,727.4271,1690.16,723.67" style="stroke:#181818;stroke-width:1.0;"/></g><!--link ExpenseAreaChartController to MainPageViewController--><g id="link_ExpenseAreaChartController_MainPageViewController"><path codeLine="147" d="M1226.08,1077.95 C1127.96,1056.36 1039.23,1027.38 1007.5,990 C945.37,916.81 953.4181,629.1314 960.3081,500.9014 " fill="none" id="ExpenseAreaChartController-to-MainPageViewController" style="stroke:#181818;stroke-width:1.0;"/><polygon fill="#181818" points="960.63,494.91,956.1529,503.6824,960.3617,499.9028,964.1414,504.1117,960.63,494.91" style="stroke:#181818;stroke-width:1.0;"/></g><!--reverse link ChartController to ExpensePieChartController--><g id="link_ChartController_ExpensePieChartController"><path codeLine="149" d="M1434.2853,740.9189 C1423.0253,776.9089 1414.26,804.95 1403.54,839.23 " fill="none" id="ChartController-backto-ExpensePieChartController" style="stroke:#181818;stroke-width:1.0;stroke-dasharray:7.0,7.0;"/><polygon fill="none" points="1439.66,723.74,1428.5591,739.1273,1440.0116,742.7104,1439.66,723.74" style="stroke:#181818;stroke-width:1.0;"/></g><!--link ExpensePieChartController to MainPageViewController--><g id="link_ExpensePieChartController_MainPageViewController"><path codeLine="150" d="M1235.12,839.48 C1179.77,814.64 1120.56,779.8 1078.5,733 C1017.22,664.82 988.7457,566.1597 975.4157,500.6097 " fill="none" id="ExpensePieChartController-to-MainPageViewController" style="stroke:#181818;stroke-width:1.0;"/><polygon fill="#181818" points="974.22,494.73,972.0937,504.3466,975.2164,499.6297,979.9333,502.7524,974.22,494.73" style="stroke:#181818;stroke-width:1.0;"/></g><!--reverse link Repository to ExpenseRepository--><g id="link_Repository_ExpenseRepository"><path codeLine="152" d="M546.6583,750.1492 C553.2383,769.0492 554.56,772.86 561.57,792.99 " fill="none" id="Repository-backto-ExpenseRepository" style="stroke:#181818;stroke-width:1.0;stroke-dasharray:7.0,7.0;"/><polygon fill="none" points="540.74,733.15,540.9918,752.122,552.3247,748.1765,540.74,733.15" style="stroke:#181818;stroke-width:1.0;"/></g><!--link ExpenseRepository to Expense--><g id="link_ExpenseRepository_Expense"><path codeLine="153" d="M646.24,990.06 C656.56,1009.91 664.5302,1025.2376 674.4802,1044.3576 " fill="none" id="ExpenseRepository-to-Expense" style="stroke:#181818;stroke-width:1.0;"/><polygon fill="#181818" points="677.25,1049.68,676.6436,1039.8498,674.9418,1045.2446,669.547,1043.5429,677.25,1049.68" style="stroke:#181818;stroke-width:1.0;"/></g><!--reverse link Repository to UserRepository--><g id="link_Repository_UserRepository"><path codeLine="155" d="M400.7342,743.3721 C369.0942,765.2021 348.57,779.37 315.33,802.3 " fill="none" id="Repository-backto-UserRepository" style="stroke:#181818;stroke-width:1.0;stroke-dasharray:7.0,7.0;"/><polygon fill="none" points="415.55,733.15,397.3268,738.4336,404.1416,748.3107,415.55,733.15" style="stroke:#181818;stroke-width:1.0;"/></g><!--link UserRepository to User--><g id="link_UserRepository_User"><path codeLine="156" d="M187.5,980.56 C187.5,1013.4 187.5,1043.56 187.5,1071.97 " fill="none" id="UserRepository-to-User" style="stroke:#181818;stroke-width:1.0;"/><polygon fill="#181818" points="187.5,1077.97,191.5,1068.97,187.5,1072.97,183.5,1068.97,187.5,1077.97" style="stroke:#181818;stroke-width:1.0;"/></g><!--link Expense to ExpenseType--><g id="link_Expense_ExpenseType"><path codeLine="158" d="M690.23,1210.01 C683.25,1229.51 677.8021,1244.741 670.8221,1264.241 " fill="none" id="Expense-to-ExpenseType" style="stroke:#181818;stroke-width:1.0;"/><polygon fill="#181818" points="668.8,1269.89,675.5991,1262.7645,670.485,1265.1825,668.0671,1260.0685,668.8,1269.89" style="stroke:#181818;stroke-width:1.0;"/></g><!--link Expense to PayingMethod--><g id="link_Expense_PayingMethod"><path codeLine="159" d="M746.41,1210.01 C758.03,1242.91 769.0417,1274.1026 778.7517,1301.5926 " fill="none" id="Expense-to-PayingMethod" style="stroke:#181818;stroke-width:1.0;"/><polygon fill="#181818" points="780.75,1307.25,781.5242,1297.4316,779.0847,1302.5355,773.9809,1300.096,780.75,1307.25" style="stroke:#181818;stroke-width:1.0;"/></g><!--reverse link Dialog to AddExpenseDialog--><g id="link_Dialog_AddExpenseDialog"><path codeLine="161" d="M747.63,662.5 C759.14,662.5 752.65,662.5 764.15,662.5 " fill="none" id="Dialog-backto-AddExpenseDialog" style="stroke:#181818;stroke-width:1.0;"/><polygon fill="none" points="729.63,662.5,747.63,668.5,747.63,656.5,729.63,662.5" style="stroke:#181818;stroke-width:1.0;"/></g><!--link AddExpenseDialog to Expense--><g id="link_AddExpenseDialog_Expense"><path codeLine="162" d="M842.76,705.26 C843.39,768.64 839.53,892.1 805.5,990 C798.4,1010.44 790.937,1025.8511 779.607,1044.6511 " fill="none" id="AddExpenseDialog-to-Expense" style="stroke:#181818;stroke-width:1.0;"/><polygon fill="#181818" points="776.51,1049.79,784.5815,1044.1463,779.0908,1045.5076,777.7296,1040.0169,776.51,1049.79" style="stroke:#181818;stroke-width:1.0;"/></g><!--SRC=[vLV9Rjim4BtpAtIKqJWV41W672jDtJgmaRYz54L1IsEPY4mA99N4RVBl9QcDeXOuI2v1VR4qCvnvd5ruAoJ7eVJ210lXpT8q8I6MX57lB_BKxvCd9ERIJpavO7wyapW6xy8p_oFryC18X5vGTRmuDlQ-1fVptm4d3y2DF2SqjbdVRvSkFUI09GHOuZkMyH1yRU0BkSUSrCG2rG4JwcCUYqh9pryLdbS0HuXG2No7G_1g8zNb2INI0hHtm7JWitJNckS94u2tIQqur1I_K_W7WSSvevAp905k3hJatmxECdWBAHD4CdwSRCwyHJ3DGIeBEqAZo-CYyacaJYu2VNwLwlJ0oMGpjSLcIMBWBPHMVLEBBV03-40baKSbiD5Icv8NGG8IN1jL52k9Kds9Fa-u9Oi9RVghIa2vMokHHyQrslBnCu4agWI-2-0K7xIdDl0aRUO9pYma6PrZ6a8oLvLp3r4ZHeQz-jR3Id16mxrLSxwJmUsWlpdgkTzkLFMiLI7qkExKo-TW24x8d_U4sLCXJgLks7ol2bmqQZKd-V2K0XKWj9nEsQqAz8FEoYKHSdALSwTdfejq-E6Ynq4EmYoDLBzwbKdxEhZPUusULZ0-sBMAWj-pnzcMPN91TumVyjmEbJtL17IXLJtR6_K6EtTAOM2c9aEVVtgBv2FbGkEsQmB_psNhuLErd-NgMachtXu3VtL7QgazgVMWhdctP3HkJBpoCcXWx3aopTbNC4Vr8-eUWwLfo-b3Sx1GLdcmqb6yumFBg2wxW6KAP47LGJHo8KwKBoeoY90JS-TwGoj0n20LWiBSvfY2C6YiDQwKMUEZ8js0tBEe8VI2W6O7pz9HmBuXGetH15DWcJ2KksnRGJ64AzLAQBpAf7cxvYm4JY0N3c2Ra-UObqPi48KLnOsA1x6lFQXNWOvKF3tlcWhUCUcqui6CimMQwQOve-B_ZObMUwatoR9wcsgizMczXbKfK7umH56H1u7Q8bZS67hTUuLxn1-PBHxPdowJv_5OVuneeZUUEXirGbPOZAZ3hxVrBYvoUkRa-VoyQn55NSlfMA6fiwHRLtSBHZqxcwDnGCgPAKEYhfEHwnDNLsCXwvH0xaZJTpqV6F1eOFPhZ3rkwhJJFrbH_ymTCcAr2bk_5OZsUDFwogxVKj1i7yXfH_geAU9IhQrCjz06tUvwAjdpob91QOUrLNyMn7y0]--></g></svg>