<svg xmlns="http://www.w3.org/2000/svg" xmlns:xlink="http://www.w3.org/1999/xlink" contentStyleType="text/css" height="432px" preserveAspectRatio="none" style="width:828px;height:432px;background:#FFFFFF;" version="1.1" viewBox="0 0 828 432" width="828px" zoomAndPan="magnify"><defs/><g><ellipse cx="263.9" cy="32" fill="#222222" rx="10" ry="10" style="stroke:#222222;stroke-width:1.0;"/><g id="NonAutenticato"><rect fill="#F1F1F1" height="50" rx="12.5" ry="12.5" style="stroke:#181818;stroke-width:0.5;" width="115.7305" x="308.9" y="7"/><line style="stroke:#181818;stroke-width:0.5;" x1="308.9" x2="424.6305" y1="35.6211" y2="35.6211"/><text fill="#000000" font-family="sans-serif" font-size="14" lengthAdjust="spacing" textLength="95.7305" x="318.9" y="27.1074">NonAutenticato</text></g><g id="Autenticato"><rect fill="#F1F1F1" height="50" rx="12.5" ry="12.5" style="stroke:#181818;stroke-width:0.5;" width="90.0479" x="492.9" y="7"/><line style="stroke:#181818;stroke-width:0.5;" x1="492.9" x2="582.9479" y1="35.6211" y2="35.6211"/><text fill="#000000" font-family="sans-serif" font-size="14" lengthAdjust="spacing" textLength="70.0479" x="502.9" y="27.1074">Autenticato</text></g><g id="VisualizzazioneSpese"><rect fill="#F1F1F1" height="50" rx="12.5" ry="12.5" style="stroke:#181818;stroke-width:0.5;" width="156.1924" x="346.9" y="247"/><line style="stroke:#181818;stroke-width:0.5;" x1="346.9" x2="503.0924" y1="275.6211" y2="275.6211"/><text fill="#000000" font-family="sans-serif" font-size="14" lengthAdjust="spacing" textLength="136.1924" x="356.9" y="267.1074">VisualizzazioneSpese</text></g><g id="InserimentoSpesa"><rect fill="#F1F1F1" height="50" rx="12.5" ry="12.5" style="stroke:#181818;stroke-width:0.5;" width="132.8408" x="42.4" y="376"/><line style="stroke:#181818;stroke-width:0.5;" x1="42.4" x2="175.2408" y1="404.6211" y2="404.6211"/><text fill="#000000" font-family="sans-serif" font-size="14" lengthAdjust="spacing" textLength="112.8408" x="52.4" y="396.1074">InserimentoSpesa</text></g><g id="ModificaSpesa"><rect fill="#F1F1F1" height="50" rx="12.5" ry="12.5" style="stroke:#181818;stroke-width:0.5;" width="111.8271" x="368.9" y="376"/><line style="stroke:#181818;stroke-width:0.5;" x1="368.9" x2="480.7271" y1="404.6211" y2="404.6211"/><text fill="#000000" font-family="sans-serif" font-size="14" lengthAdjust="spacing" textLength="91.8271" x="378.9" y="396.1074">ModificaSpesa</text></g><g id="GenerazioneGrafici"><rect fill="#F1F1F1" height="50" rx="12.5" ry="12.5" style="stroke:#181818;stroke-width:0.5;" width="140.6133" x="669.4" y="376"/><line style="stroke:#181818;stroke-width:0.5;" x1="669.4" x2="810.0133" y1="404.6211" y2="404.6211"/><text fill="#000000" font-family="sans-serif" font-size="14" lengthAdjust="spacing" textLength="120.6133" x="679.4" y="396.1074">GenerazioneGrafici</text></g><g id="ImportaEsportaDati"><rect fill="#F1F1F1" height="50" rx="12.5" ry="12.5" style="stroke:#181818;stroke-width:0.5;" width="140.6064" x="261.4" y="118"/><line style="stroke:#181818;stroke-width:0.5;" x1="261.4" x2="402.0064" y1="146.6211" y2="146.6211"/><text fill="#000000" font-family="sans-serif" font-size="14" lengthAdjust="spacing" textLength="120.6064" x="271.4" y="138.1074">ImportaEsportaDati</text></g><ellipse cx="627.9" cy="272" fill="none" rx="11" ry="11" style="stroke:#222222;stroke-width:1.0;"/><ellipse cx="627.9" cy="272" fill="#222222" rx="6" ry="6" style="stroke:#222222;stroke-width:1.0;"/><!--link *start* to NonAutenticato--><g id="link_*start*_NonAutenticato"><path d="M273.96,32 C285.58,32 291.19,32 302.81,32 " fill="none" id="*start*-to-NonAutenticato" style="stroke:#181818;stroke-width:1.0;"/><polygon fill="#181818" points="308.81,32,299.81,28,303.81,32,299.81,36,308.81,32" style="stroke:#181818;stroke-width:1.0;"/></g><!--link NonAutenticato to Autenticato--><g id="link_NonAutenticato_Autenticato"><path d="M425.27,32 C447.33,32 466.08,32 486.74,32 " fill="none" id="NonAutenticato-to-Autenticato" style="stroke:#181818;stroke-width:1.0;"/><polygon fill="#181818" points="492.74,32,483.74,28,487.74,32,483.74,36,492.74,32" style="stroke:#181818;stroke-width:1.0;"/><text fill="#000000" font-family="sans-serif" font-size="13" lengthAdjust="spacing" textLength="31.8081" x="443.4" y="25.0283">Login</text></g><!--link Autenticato to VisualizzazioneSpese--><g id="link_Autenticato_VisualizzazioneSpese"><path d="M537.72,57.08 C536.38,94.28 529.38,166.68 496.9,217 C489.36,228.68 483.1957,235.2181 472.0457,243.4081 " fill="none" id="Autenticato-to-VisualizzazioneSpese" style="stroke:#181818;stroke-width:1.0;"/><polygon fill="#181818" points="467.21,246.96,476.8315,244.8559,471.2397,244,472.0955,238.4083,467.21,246.96" style="stroke:#181818;stroke-width:1.0;"/><text fill="#000000" font-family="sans-serif" font-size="13" lengthAdjust="spacing" textLength="100.4263" x="532.9" y="148.5283">Visualizza storico</text></g><!--link VisualizzazioneSpese to InserimentoSpesa--><g id="link_VisualizzazioneSpese_InserimentoSpesa"><path d="M346.81,278 C235.68,285.92 42.93,302.96 21.9,327 C6,345.18 19.9632,359.7958 44.3532,373.1058 " fill="none" id="VisualizzazioneSpese-to-InserimentoSpesa" style="stroke:#181818;stroke-width:1.0;"/><polygon fill="#181818" points="49.62,375.98,43.6359,368.1575,45.231,373.5849,39.8037,375.1799,49.62,375.98" style="stroke:#181818;stroke-width:1.0;"/><text fill="#000000" font-family="sans-serif" font-size="13" lengthAdjust="spacing" textLength="125.0107" x="22.9" y="342.0283">Inserisci nuova spesa</text></g><!--link InserimentoSpesa to VisualizzazioneSpese--><g id="link_InserimentoSpesa_VisualizzazioneSpese"><path d="M139.53,375.66 C160.75,359.84 190.24,339.84 218.9,327 C259.39,308.86 301.3211,297.1535 340.6811,288.4635 " fill="none" id="InserimentoSpesa-to-VisualizzazioneSpese" style="stroke:#181818;stroke-width:1.0;"/><polygon fill="#181818" points="346.54,287.17,336.8893,285.2044,341.6576,288.248,338.614,293.0163,346.54,287.17" style="stroke:#181818;stroke-width:1.0;"/><text fill="#000000" font-family="sans-serif" font-size="13" lengthAdjust="spacing" textLength="127.2007" x="219.9" y="342.0283">Salva o annulla spesa</text></g><!--link VisualizzazioneSpese to ModificaSpesa--><g id="link_VisualizzazioneSpese_ModificaSpesa"><path d="M380.72,297.15 C363.16,310.17 348.99,327.38 357.9,346 C363.51,357.72 368.3458,363.9831 378.4958,372.0631 " fill="none" id="VisualizzazioneSpese-to-ModificaSpesa" style="stroke:#181818;stroke-width:1.0;"/><polygon fill="#181818" points="383.19,375.8,378.6399,367.0652,379.2781,372.6859,373.6574,373.3242,383.19,375.8" style="stroke:#181818;stroke-width:1.0;"/><text fill="#000000" font-family="sans-serif" font-size="13" lengthAdjust="spacing" textLength="86.709" x="358.9" y="342.0283">Modifica spesa</text></g><!--link ModificaSpesa to VisualizzazioneSpese--><g id="link_ModificaSpesa_VisualizzazioneSpese"><path d="M440.33,375.73 C447.44,361.71 453.56,343.61 449.9,327 C447.66,316.81 445.9423,311.6419 441.4823,302.5919 " fill="none" id="ModificaSpesa-to-VisualizzazioneSpese" style="stroke:#181818;stroke-width:1.0;"/><polygon fill="#181818" points="438.83,297.21,439.2205,307.0511,441.0403,301.6949,446.3964,303.5147,438.83,297.21" style="stroke:#181818;stroke-width:1.0;"/><text fill="#000000" font-family="sans-serif" font-size="13" lengthAdjust="spacing" textLength="148.1479" x="452.9" y="342.0283">Salva o annulla modifiche</text></g><!--link VisualizzazioneSpese to GenerazioneGrafici--><g id="link_VisualizzazioneSpese_GenerazioneGrafici"><path d="M503.22,291.62 C536.69,300.66 575.82,312.68 609.9,327 C642.35,340.64 671.8918,357.2589 697.2618,372.7789 " fill="none" id="VisualizzazioneSpese-to-GenerazioneGrafici" style="stroke:#181818;stroke-width:1.0;"/><polygon fill="#181818" points="702.38,375.91,696.79,367.8012,698.1148,373.3008,692.6153,374.6256,702.38,375.91" style="stroke:#181818;stroke-width:1.0;"/><text fill="#000000" font-family="sans-serif" font-size="13" lengthAdjust="spacing" textLength="81.6499" x="646.9" y="342.0283">Genera grafici</text></g><!--link GenerazioneGrafici to VisualizzazioneSpese--><g id="link_GenerazioneGrafici_VisualizzazioneSpese"><path d="M745.99,375.81 C748.41,360.05 748.36,340.06 736.9,327 C729.16,318.18 598.8776,297.963 509.0176,284.903 " fill="none" id="GenerazioneGrafici-to-VisualizzazioneSpese" style="stroke:#181818;stroke-width:1.0;"/><polygon fill="#181818" points="503.08,284.04,511.4111,289.2928,508.028,284.7591,512.5617,281.376,503.08,284.04" style="stroke:#181818;stroke-width:1.0;"/><text fill="#000000" font-family="sans-serif" font-size="13" lengthAdjust="spacing" textLength="74.4072" x="745.9" y="342.0283">Grafici chiusi</text></g><!--reverse link ImportaEsportaDati to VisualizzazioneSpese--><g id="link_ImportaEsportaDati_VisualizzazioneSpese"><path d="M280.7617,171.6278 C261.1117,185.1878 250.26,199.46 262.9,217 C282.23,243.82 315.45,257.52 346.8,264.44 " fill="none" id="ImportaEsportaDati-backto-VisualizzazioneSpese" style="stroke:#181818;stroke-width:1.0;"/><polygon fill="#181818" points="285.7,168.22,276.0207,170.0395,281.5847,171.0598,280.5644,176.6239,285.7,168.22" style="stroke:#181818;stroke-width:1.0;"/><text fill="#000000" font-family="sans-serif" font-size="13" lengthAdjust="spacing" textLength="117.0571" x="263.9" y="213.0283">Importa/Esporta dati</text></g><!--link ImportaEsportaDati to VisualizzazioneSpese--><g id="link_ImportaEsportaDati_VisualizzazioneSpese"><path d="M359.1,168.12 C368.23,176.99 378.08,187.46 385.9,198 C397.2,213.24 404.624,226.7559 411.674,241.5159 " fill="none" id="ImportaEsportaDati-to-VisualizzazioneSpese" style="stroke:#181818;stroke-width:1.0;"/><polygon fill="#181818" points="414.26,246.93,413.9904,237.0848,412.105,242.4182,406.7716,240.5328,414.26,246.93" style="stroke:#181818;stroke-width:1.0;"/><text fill="#000000" font-family="sans-serif" font-size="13" lengthAdjust="spacing" textLength="88.8989" x="399.9" y="213.0283">fine operazione</text></g><!--link VisualizzazioneSpese to *end*--><g id="link_VisualizzazioneSpese_*end*"><path d="M503.09,272 C546.21,272 589.25,272 610.78,272 " fill="none" id="VisualizzazioneSpese-to-*end*" style="stroke:#181818;stroke-width:1.0;"/><polygon fill="#181818" points="616.78,272,607.78,268,611.78,272,607.78,276,616.78,272" style="stroke:#181818;stroke-width:1.0;"/><text fill="#000000" font-family="sans-serif" font-size="13" lengthAdjust="spacing" textLength="77.3271" x="521.4" y="265.0283">Chiusura app</text></g><!--SRC=[bP9FIyD04CNl-odcB0JlHGgYKWhMIy5ByJ2astOWcLdsZuTyUcVTB1fC0fx2lFszDsyWfxiFQBRm9loOekL8BKOnPZfdulUuWLUv4fi9qYZqJY5XHyE00mdRexF1AlqZGuZYgTKDisZEs7EmddeDbYoY-eiKMW9EygaXMJT_m9K6H-pK9u3CgUjgmdA9WvpfeeVL1dKUZTFdV-pjY_5cLtRlB5jVn9r7fKc3YWZN8fWPPgL5HTeRfK36x7idFk9B-FuyOoHuQ9ebzqZVZpYSbP-BM2bm8ROWhbPUEduB9_qTD_2KUoOz5vqpNm00]--></g></svg>